<?xml version="1.0" encoding="utf-8"?>
<!-- Generator: Adobe Illustrator 17.0.0, SVG Export Plug-In . SVG Version: 6.00 Build 0)  -->
<!DOCTYPE svg PUBLIC "-//W3C//DTD SVG 1.1//EN" "http://www.w3.org/Graphics/SVG/1.1/DTD/svg11.dtd">
<svg version="1.1" id="Слой_1" xmlns="http://www.w3.org/2000/svg" xmlns:xlink="http://www.w3.org/1999/xlink" x="0px" y="0px"
	 width="30.032px" height="47.967px" viewBox="0 0 30.032 47.967" enable-background="new 0 0 30.032 47.967" xml:space="preserve">
<path fill="none" stroke="#ED3237" stroke-width="2" stroke-miterlimit="10" d="M17,19.704c0,1.105-0.895,2-2,2l0,0
	c-1.105,0-2-0.895-2-2v-7c0-1.105,0.895-2,2-2l0,0c1.105,0,2,0.895,2,2V19.704z"/>
<path fill="none" stroke="#ED3237" stroke-width="2" stroke-miterlimit="10" d="M17,34.704c0,1.105-0.895,2-2,2l0,0
	c-1.105,0-2-0.895-2-2v-7c0-1.105,0.895-2,2-2l0,0c1.105,0,2,0.895,2,2V34.704z"/>
<path fill="none" stroke="#ED3237" stroke-width="1.9675" stroke-miterlimit="10" d="M17,0.984v3c0,1.104-0.895,2-2,2s-2-0.896-2-2
	v-3H0.984v46H13v-3c0-1.104,0.895-2,2-2s2,0.896,2,2v3h12.048v-46H17z"/>
<line fill="none" stroke="#ED3237" stroke-miterlimit="10" x1="23.5" y1="0.704" x2="23.5" y2="46.704"/>
<line fill="none" stroke="#ED3237" stroke-miterlimit="10" x1="6.5" y1="0.704" x2="6.5" y2="46.704"/>
</svg>
