<?xml version="1.0" encoding="utf-8"?>
<!-- Generator: Adobe Illustrator 17.0.0, SVG Export Plug-In . SVG Version: 6.00 Build 0)  -->
<!DOCTYPE svg PUBLIC "-//W3C//DTD SVG 1.1//EN" "http://www.w3.org/Graphics/SVG/1.1/DTD/svg11.dtd">
<svg version="1.1" id="Слой_1" xmlns="http://www.w3.org/2000/svg" xmlns:xlink="http://www.w3.org/1999/xlink" x="0px" y="0px"
	 width="22px" height="54.72px" viewBox="0 0 22 54.72" enable-background="new 0 0 22 54.72" xml:space="preserve">
<rect x="5" y="29.72" fill="none" stroke="#ED3237" stroke-width="2" stroke-miterlimit="10" width="12" height="10"/>
<polygon fill="none" stroke="#ED3237" stroke-width="2" stroke-miterlimit="10" points="20.251,53.72 1.749,53.72 3.358,39.72 
	18.642,39.72 "/>
<path fill="none" stroke="#ED3237" stroke-width="2" stroke-miterlimit="10" d="M5,30l-4-6V12.766c0-0.194,0-0.394,0-0.601V3.835
	C1,2.269,2.109,1,3.476,1h0.289C5.133,1,6,2.269,6,3.835v8.032C6.187,13.939,7.672,14,8.893,14h4.331c1.226,0,2.495-0.03,2.776-2.15
	V3.835C16,2.269,16.988,1,18.356,1h0.289C20.012,1,21,2.269,21,3.835v8.331c0,0.212,0,0.417,0,0.616V24l-4,6"/>
</svg>
