<?xml version="1.0" encoding="utf-8"?>
<!-- Generator: Adobe Illustrator 17.0.0, SVG Export Plug-In . SVG Version: 6.00 Build 0)  -->
<!DOCTYPE svg PUBLIC "-//W3C//DTD SVG 1.1//EN" "http://www.w3.org/Graphics/SVG/1.1/DTD/svg11.dtd">
<svg version="1.1" id="Слой_1" xmlns="http://www.w3.org/2000/svg" xmlns:xlink="http://www.w3.org/1999/xlink" x="0px" y="0px"
	 width="34px" height="47px" viewBox="0 0 34 47" enable-background="new 0 0 34 47" xml:space="preserve">
<rect x="14" y="18" fill="none" stroke="#ED3237" stroke-width="2" stroke-miterlimit="10" width="6" height="11"/>
<line fill="none" stroke="#ED3237" stroke-width="2" stroke-miterlimit="10" x1="22" y1="1" x2="26" y2="1"/>
<line fill="none" stroke="#ED3237" stroke-width="2" stroke-miterlimit="10" x1="10" y1="1" x2="13" y2="1"/>
<line fill="none" stroke="#ED3237" stroke-width="2" stroke-miterlimit="10" x1="1" y1="47" x2="1" y2="2.125"/>
<line fill="none" stroke="#ED3237" stroke-width="2" stroke-miterlimit="10" x1="33" y1="0" x2="33" y2="47"/>
<path fill="none" stroke="#ED3237" stroke-width="2" stroke-miterlimit="10" d="M1,0v3.165C1,4.731,2.015,6,3.268,6h3.465
	C7.985,6,9,4.731,9,3.165V1V0"/>
<rect x="1" y="13" fill="#ED3237" width="31" height="1"/>
<rect x="1" y="33" fill="#ED3237" width="33" height="1"/>
<rect x="14" y="23" fill="#ED3237" width="7" height="1"/>
<rect x="4" y="0" fill="#ED3237" width="2" height="2"/>
<path fill="none" stroke="#ED3237" stroke-width="2" stroke-miterlimit="10" d="M13,0v3.165C13,4.731,14.015,6,15.268,6h3.465
	C19.985,6,21,4.731,21,3.165V1V0"/>
<rect x="16" y="0" fill="#ED3237" width="2" height="2"/>
<path fill="none" stroke="#ED3237" stroke-width="2" stroke-miterlimit="10" d="M25,0v3.165C25,4.731,26.015,6,27.268,6h3.465
	C31.985,6,33,4.731,33,3.165V1V0"/>
<rect x="28" y="0" fill="#ED3237" width="2" height="2"/>
<line fill="none" stroke="#ED3237" stroke-width="2" stroke-miterlimit="10" x1="22" y1="46" x2="26" y2="46"/>
<line fill="none" stroke="#ED3237" stroke-width="2" stroke-miterlimit="10" x1="10" y1="46" x2="13" y2="46"/>
<path fill="none" stroke="#ED3237" stroke-width="2" stroke-miterlimit="10" d="M1,47v-3.165C1,42.269,2.015,41,3.268,41h3.465
	C7.985,41,9,42.269,9,43.835V46v1"/>
<rect x="4" y="45" fill="#ED3237" width="2" height="2"/>
<path fill="none" stroke="#ED3237" stroke-width="2" stroke-miterlimit="10" d="M13,47v-3.165C13,42.269,14.015,41,15.268,41h3.465
	C19.985,41,21,42.269,21,43.835V46v1"/>
<rect x="16" y="45" fill="#ED3237" width="2" height="2"/>
<path fill="none" stroke="#ED3237" stroke-width="2" stroke-miterlimit="10" d="M25,47v-3.165C25,42.269,26.015,41,27.268,41h3.465
	C31.985,41,33,42.269,33,43.835V46v1"/>
<rect x="28" y="45" fill="#ED3237" width="2" height="2"/>
</svg>
