<?xml version="1.0" encoding="utf-8"?>
<!-- Generator: Adobe Illustrator 17.0.0, SVG Export Plug-In . SVG Version: 6.00 Build 0)  -->
<!DOCTYPE svg PUBLIC "-//W3C//DTD SVG 1.1//EN" "http://www.w3.org/Graphics/SVG/1.1/DTD/svg11.dtd">
<svg version="1.1" id="Слой_1" xmlns="http://www.w3.org/2000/svg" xmlns:xlink="http://www.w3.org/1999/xlink" x="0px" y="0px"
	 width="34px" height="43.499px" viewBox="0 0 34 43.499" enable-background="new 0 0 34 43.499" xml:space="preserve">
<rect x="5" y="20.25" fill="none" stroke="#ED3237" stroke-width="2" stroke-miterlimit="10" width="24" height="4"/>
<line fill="none" stroke="#ED3237" stroke-width="2" stroke-miterlimit="10" x1="1" y1="43.125" x2="1" y2="0.25"/>
<line fill="none" stroke="#ED3237" stroke-width="2" stroke-miterlimit="10" x1="33" y1="0.25" x2="33" y2="43.25"/>
<rect x="1.357" y="11.25" fill="#ED3237" width="31" height="1"/>
<path fill="none" stroke="#ED3237" stroke-width="2" stroke-miterlimit="10" d="M11.857,0.25v0.874c0,1.174,1.269,2.126,2.835,2.126
	h4.331c1.566,0,2.835-0.952,2.835-2.126V1V0.25"/>
<path fill="none" stroke="#ED3237" stroke-width="2" stroke-miterlimit="10" d="M23,0.25v0.874c0,1.174,1.269,2.126,2.835,2.126
	h4.331C31.731,3.25,33,2.298,33,1.124V1V0.25"/>
<path fill="none" stroke="#ED3237" stroke-width="2" stroke-miterlimit="10" d="M1,0.25v0.874C1,2.298,2.269,3.25,3.835,3.25h4.331
	C9.731,3.25,11,2.298,11,1.124V1V0.25"/>
<rect x="22" y="0.25" fill="#ED3237" width="1" height="12"/>
<rect x="11" y="0.25" fill="#ED3237" width="1" height="12"/>
<circle fill="none" stroke="#ED3237" stroke-width="2" stroke-miterlimit="10" cx="6.5" cy="7.75" r="1.5"/>
<circle fill="none" stroke="#ED3237" stroke-width="2" stroke-miterlimit="10" cx="16.857" cy="7.75" r="1.5"/>
<circle fill="none" stroke="#ED3237" stroke-width="2" stroke-miterlimit="10" cx="27.5" cy="7.75" r="1.5"/>
<rect x="1.357" y="31.25" fill="#ED3237" width="31" height="1"/>
<path fill="none" stroke="#ED3237" stroke-width="2" stroke-miterlimit="10" d="M11.857,43.25v-0.874
	c0-1.174,1.269-2.126,2.835-2.126h4.331c1.566,0,2.835,0.952,2.835,2.126v0.124v0.75"/>
<path fill="none" stroke="#ED3237" stroke-width="2" stroke-miterlimit="10" d="M23,43.25v-0.874c0-1.174,1.269-2.126,2.835-2.126
	h4.331c1.566,0,2.835,0.952,2.835,2.126v0.124v0.75"/>
<path fill="none" stroke="#ED3237" stroke-width="2" stroke-miterlimit="10" d="M1,43.25v-0.874c0-1.174,1.269-2.126,2.835-2.126
	h4.331c1.566,0,2.835,0.952,2.835,2.126v0.124v0.75"/>
<rect x="22" y="31.25" fill="#ED3237" width="1" height="12"/>
<rect x="11" y="31.25" fill="#ED3237" width="1" height="12"/>
<circle fill="none" stroke="#ED3237" stroke-width="2" stroke-miterlimit="10" cx="6.5" cy="35.75" r="1.5"/>
<circle fill="none" stroke="#ED3237" stroke-width="2" stroke-miterlimit="10" cx="16.857" cy="35.75" r="1.5"/>
<circle fill="none" stroke="#ED3237" stroke-width="2" stroke-miterlimit="10" cx="27.5" cy="35.75" r="1.5"/>
</svg>
