<?xml version="1.0" encoding="utf-8"?>
<!-- Generator: Adobe Illustrator 17.0.0, SVG Export Plug-In . SVG Version: 6.00 Build 0)  -->
<!DOCTYPE svg PUBLIC "-//W3C//DTD SVG 1.1//EN" "http://www.w3.org/Graphics/SVG/1.1/DTD/svg11.dtd">
<svg version="1.1" id="Слой_1" xmlns="http://www.w3.org/2000/svg" xmlns:xlink="http://www.w3.org/1999/xlink" x="0px" y="0px"
	 width="27px" height="54.269px" viewBox="0 0 27 54.269" enable-background="new 0 0 27 54.269" xml:space="preserve">
<g>
	<rect x="5" y="21.05" fill="#EA3237" width="1" height="23"/>
	<path fill="#EA3237" d="M27,12.207c0-2.406-3.257-3.877-7-4.617V0l-5,3.513v3.521c-0.996-0.038-2-0.05-3-0.009V0L7,3.513v4.083
		c-3.987,0.786-7,2.332-7,4.61c0,0.295,0.067,0.573,0.164,0.844H0v37h0.268C1.57,52.53,7.563,54.269,13.5,54.269
		s11.93-1.739,13.232-4.219H27v-37h-0.164C26.933,12.78,27,12.501,27,12.207z M16,4.032l3-2.107V6.05h-1v1h1v0.358v2.024v0.637
		l-3,2.107v-3.1V7.072V4.032z M8,4.032l3-2.107V6.05h-1v1h1v3.018l-3,2.107V4.032z M7,9.63v4.471l5-3.513V9.02
		c0.485-0.02,0.982-0.032,1.5-0.032c0.503,0,1,0.03,1.5,0.051v5.062l5-3.513V9.634c3.239,0.701,5,1.818,5,2.573
		c0,1.092-4.059,3.219-11.5,3.219S2,13.299,2,12.207C2,11.494,3.736,10.345,7,9.63z M13.5,52.269C6.059,52.269,2,50.05,2,49.05
		V15.066c2.505,1.554,7.016,2.36,11.5,2.36s8.995-0.805,11.5-2.36V49.05C25,50.05,20.941,52.269,13.5,52.269z"/>
</g>
</svg>
