<?xml version="1.0" encoding="utf-8"?>
<!-- Generator: Adobe Illustrator 17.0.0, SVG Export Plug-In . SVG Version: 6.00 Build 0)  -->
<!DOCTYPE svg PUBLIC "-//W3C//DTD SVG 1.1//EN" "http://www.w3.org/Graphics/SVG/1.1/DTD/svg11.dtd">
<svg version="1.1" id="Слой_1" xmlns="http://www.w3.org/2000/svg" xmlns:xlink="http://www.w3.org/1999/xlink" x="0px" y="0px"
	 width="30.065px" height="48.071px" viewBox="0 0 30.065 48.071" enable-background="new 0 0 30.065 48.071" xml:space="preserve">
<ellipse fill="none" stroke="#ED3237" stroke-width="2" stroke-miterlimit="10" cx="15.173" cy="6.571" rx="12.462" ry="5.571"/>
<line fill="none" stroke="#ED3237" stroke-width="2" stroke-miterlimit="10" x1="9.032" y1="25.071" x2="9.032" y2="12.071"/>
<line fill="none" stroke="#ED3237" stroke-width="2" stroke-miterlimit="10" x1="21.032" y1="12.071" x2="21.032" y2="25.071"/>
<polygon fill="none" stroke="#ED3237" stroke-width="2" stroke-miterlimit="10" points="29.065,47.071 1,47.071 1,35.071 1,24.071 
	29.065,24.071 29.065,36.071 "/>
<polyline fill="none" stroke="#ED3237" stroke-width="2" stroke-miterlimit="10" points="29.065,36.071 25.194,31.071 4.871,31.071 
	1,36.071 "/>
<line fill="none" stroke="#ED3237" stroke-miterlimit="10" x1="10.032" y1="17.291" x2="21.032" y2="17.291"/>
<path fill="none" stroke="#ED3237" stroke-width="2" stroke-miterlimit="10" d="M25.79,3.826c0,2.622-4.753,4.747-10.617,4.747
	S4.556,6.448,4.556,3.826"/>
<g>
	<line fill="none" stroke="#ED3237" stroke-miterlimit="10" x1="8.532" y1="30.791" x2="8.532" y2="46.791"/>
	<line fill="none" stroke="#ED3237" stroke-miterlimit="10" x1="20.532" y1="30.791" x2="20.532" y2="46.791"/>
</g>
</svg>
