<?xml version="1.0" encoding="utf-8"?>
<!-- Generator: Adobe Illustrator 17.0.0, SVG Export Plug-In . SVG Version: 6.00 Build 0)  -->
<!DOCTYPE svg PUBLIC "-//W3C//DTD SVG 1.1//EN" "http://www.w3.org/Graphics/SVG/1.1/DTD/svg11.dtd">
<svg version="1.1" id="Слой_1" xmlns="http://www.w3.org/2000/svg" xmlns:xlink="http://www.w3.org/1999/xlink" x="0px" y="0px"
	 width="46px" height="34px" viewBox="0 0 46 34" enable-background="new 0 0 46 34" xml:space="preserve">
<polygon fill="none" stroke="#ED3237" stroke-width="2" stroke-miterlimit="10" points="11,33 1,33 1,17.64 1,3 11,3 11,18.92 "/>
<polygon fill="none" stroke="#ED3237" stroke-width="2" stroke-miterlimit="10" points="45,33 35,33 35,17.64 35,3 45,3 45,18.92 
	"/>
<g>
	<polygon fill="none" stroke="#ED3237" stroke-width="2" stroke-miterlimit="10" points="35,12 11,12 11,6.52 11,1 35,1 35,7.04 	
		"/>
	<line fill="none" stroke="#ED3237" stroke-miterlimit="10" x1="15.5" y1="0" x2="15.5" y2="9"/>
	<line fill="none" stroke="#ED3237" stroke-miterlimit="10" x1="20.5" y1="0" x2="20.5" y2="9"/>
	<line fill="none" stroke="#ED3237" stroke-miterlimit="10" x1="25.5" y1="0" x2="25.5" y2="9"/>
	<line fill="none" stroke="#ED3237" stroke-miterlimit="10" x1="30.5" y1="0" x2="30.5" y2="9"/>
</g>
<rect x="39" y="7.28" fill="#ED3237" width="2" height="2"/>
<rect x="5" y="7.28" fill="#ED3237" width="2" height="2"/>
<rect x="39" y="27.28" fill="#ED3237" width="2" height="2"/>
<rect x="5" y="27.28" fill="#ED3237" width="2" height="2"/>
<line fill="#FFFFFF" stroke="#ED3237" stroke-width="2" stroke-miterlimit="10" x1="11" y1="28" x2="35" y2="28"/>
</svg>
