<?xml version="1.0" encoding="utf-8"?>
<!-- Generator: Adobe Illustrator 17.0.0, SVG Export Plug-In . SVG Version: 6.00 Build 0)  -->
<!DOCTYPE svg PUBLIC "-//W3C//DTD SVG 1.1//EN" "http://www.w3.org/Graphics/SVG/1.1/DTD/svg11.dtd">
<svg version="1.1" id="Слой_1" xmlns="http://www.w3.org/2000/svg" xmlns:xlink="http://www.w3.org/1999/xlink" x="0px" y="0px"
	 width="46px" height="50px" viewBox="0 0 46 50" enable-background="new 0 0 46 50" xml:space="preserve">
<polyline fill="none" stroke="#ED3237" stroke-width="2" stroke-miterlimit="10" points="20,37 8,37 8,18.52 8,1 38,1 38,20.04 
	38,37 26,37 "/>
<polygon fill="none" stroke="#ED3237" stroke-width="2" stroke-miterlimit="10" points="8,31 1,31 1,18.76 1,7 8,7 8,19.8 "/>
<polygon fill="none" stroke="#ED3237" stroke-width="2" stroke-miterlimit="10" points="45,31 38,31 38,18.76 38,7 45,7 45,19.8 "/>
<polygon fill="none" stroke="#ED3237" stroke-width="2" stroke-miterlimit="10" points="25.237,49 20.09,49 18.031,18 27.296,18 "/>
<line fill="none" stroke="#ED3237" stroke-width="2" stroke-miterlimit="10" x1="23" y1="14.28" x2="23" y2="18.28"/>
<path fill="none" stroke="#ED3237" stroke-width="2" stroke-miterlimit="10" d="M23,8.234c-4.971,0-9,4.029-9,9
	c0,3.526,2.032,6.57,4.985,8.046l-0.453-7.046h9.265l-0.442,6.875C30.123,23.575,32,20.625,32,17.234
	C32,12.263,27.971,8.234,23,8.234z"/>
</svg>
