<?xml version="1.0" encoding="utf-8"?>
<!-- Generator: Adobe Illustrator 17.0.0, SVG Export Plug-In . SVG Version: 6.00 Build 0)  -->
<!DOCTYPE svg PUBLIC "-//W3C//DTD SVG 1.1//EN" "http://www.w3.org/Graphics/SVG/1.1/DTD/svg11.dtd">
<svg version="1.1" id="Слой_1" xmlns="http://www.w3.org/2000/svg" xmlns:xlink="http://www.w3.org/1999/xlink" x="0px" y="0px"
	 width="30px" height="52.28px" viewBox="0 0 30 52.28" enable-background="new 0 0 30 52.28" xml:space="preserve">
<g>
	<rect x="8" y="16" fill="none" stroke="#ED3237" stroke-width="2" stroke-miterlimit="10" width="14" height="22"/>
	<polygon fill="none" stroke="#ED3237" stroke-miterlimit="10" points="26.5,7.5 3.5,7.5 3.5,3.986 3.5,0.5 26.5,0.5 26.5,4.316 	
		"/>
	<rect x="1" y="8" fill="none" stroke="#ED3237" stroke-width="2" stroke-miterlimit="10" width="28" height="40"/>
	<line fill="none" stroke="#ED3237" stroke-width="2" stroke-miterlimit="10" x1="5" y1="51.28" x2="25" y2="51.28"/>
	<circle fill="#ED3237" cx="7.406" cy="4.274" r="1.406"/>
	<circle fill="#ED3237" cx="12.594" cy="4.274" r="1.406"/>
	<circle fill="#ED3237" cx="17.406" cy="4.274" r="1.406"/>
	<circle fill="#ED3237" cx="22.594" cy="4.274" r="1.406"/>
	<path fill="none" stroke="#ED3237" stroke-miterlimit="10" d="M22,17.78c0,4.142-3.134,7.5-7,7.5s-7-3.358-7-7.5"/>
	<rect x="10" y="29.28" fill="#ED3237" width="2" height="2"/>
	<rect x="14" y="29.28" fill="#ED3237" width="2" height="2"/>
	<rect x="18" y="29.28" fill="#ED3237" width="2" height="2"/>
	<rect x="10" y="33.28" fill="#ED3237" width="2" height="2"/>
	<rect x="14" y="33.28" fill="#ED3237" width="2" height="2"/>
	<rect x="18" y="33.28" fill="#ED3237" width="2" height="2"/>
</g>
</svg>
