<?xml version="1.0" encoding="utf-8"?>
<!-- Generator: Adobe Illustrator 17.0.0, SVG Export Plug-In . SVG Version: 6.00 Build 0)  -->
<!DOCTYPE svg PUBLIC "-//W3C//DTD SVG 1.1//EN" "http://www.w3.org/Graphics/SVG/1.1/DTD/svg11.dtd">
<svg version="1.1" id="Слой_1" xmlns="http://www.w3.org/2000/svg" xmlns:xlink="http://www.w3.org/1999/xlink" x="0px" y="0px"
	 width="48.45px" height="77.5px" viewBox="0 0 48.45 77.5" enable-background="new 0 0 48.45 77.5" xml:space="preserve">
<ellipse fill="none" stroke="#ED3237" stroke-width="2" cx="24.225" cy="6.75" rx="13.875" ry="5.75"/>
<path fill="none" stroke="#ED3237" stroke-width="2" d="M38.071,14.75c0,3.176-6.199,5.75-13.846,5.75s-13.846-2.574-13.846-5.75"/>
<line fill="none" stroke="#ED3237" stroke-width="2" x1="10.35" y1="7.063" x2="10.35" y2="14.875"/>
<line fill="none" stroke="#ED3237" stroke-width="2" x1="38.071" y1="7.354" x2="38.071" y2="15.093"/>
<path fill="none" stroke="#ED3237" stroke-width="2" d="M38.07,14.302c5.68,1.408,9.359,3.66,9.359,6.198
	c0,4.265-10.389,7.723-23.205,7.723S1.02,24.765,1.02,20.5c0-2.47,3.484-4.669,8.906-6.083"/>
<path fill="none" stroke="#ED3237" stroke-width="2" d="M1.02,20.5L1,24.278c0,4.265,10.398,7.723,23.225,7.723
	s23.225-3.458,23.225-7.723l-0.02-3.721"/>
<path fill="none" stroke="#ED3237" stroke-width="2" d="M44.75,27.894c1.711,1.076,2.68,2.304,2.68,3.606
	c0,4.265-10.389,7.723-23.205,7.723S1.02,35.765,1.02,31.5c0-1.302,0.969-2.53,2.679-3.606"/>
<path fill="none" stroke="#ED3237" stroke-width="2" d="M1.02,31.5L1,35.278c0,4.265,10.398,7.723,23.225,7.723
	s23.225-3.458,23.225-7.723l-0.02-3.721"/>
<path fill="none" stroke="#ED3237" stroke-width="2" d="M44.75,38.894c1.711,1.076,2.68,2.304,2.68,3.606
	c0,4.265-10.389,7.723-23.205,7.723S1.02,46.765,1.02,42.5c0-1.302,0.969-2.53,2.679-3.606"/>
<path fill="none" stroke="#ED3237" stroke-width="2" d="M1.02,42.5L1,46.278c0,4.265,10.398,7.723,23.225,7.723
	s23.225-3.458,23.225-7.723l-0.02-3.721"/>
<path fill="none" stroke="#ED3237" stroke-width="2" d="M38.071,53.063V70.75c0,3.176-6.199,5.75-13.846,5.75
	s-13.846-2.574-13.846-5.75L10.35,53.063"/>
</svg>
