<svg xmlns="http://www.w3.org/2000/svg" width="54" height="70" viewBox="0 0 54 70">
  <defs>
    <style>
      .cls-1 {
        fill: #131f39;
        fill-rule: evenodd;
      }
    </style>
  </defs>
  <path id="conception-icon-2" class="cls-1" d="M3626.21,3735.29h-8.29V3732h-23.85v3.29h-8.29a6.851,6.851,0,0,0-6.78,6.9v52.92a6.842,6.842,0,0,0,6.78,6.89h40.43a6.85,6.85,0,0,0,6.79-6.89v-52.92A6.859,6.859,0,0,0,3626.21,3735.29Zm-29.33-.44h18.23v3.74h-18.23v-3.74Zm33.31,60.26a4.01,4.01,0,0,1-3.98,4.04h-40.43a4.016,4.016,0,0,1-3.98-4.04v-52.92a4.025,4.025,0,0,1,3.98-4.05h8.29v3.3h23.85v-3.3h8.29a4.019,4.019,0,0,1,3.98,4.05v52.92Zm-12-30.94-1.46,2.25a0.8,0.8,0,0,1-.65.36,0.784,0.784,0,0,1-.65-0.35l-0.04-.06a3.561,3.561,0,0,0-6.22.52l-0.78,1.71a0.778,0.778,0,0,1-1.47-.14l-1.7-6.79a3.548,3.548,0,0,0-3.48-2.75h-0.02a3.565,3.565,0,0,0-3.47,2.79l-1.53,6.4a0.738,0.738,0,0,1-.69.6,0.748,0.748,0,0,1-.79-0.47l-1.51-3.52a3.594,3.594,0,0,0-3.29-2.2h-4.04v2.85h4.04a0.775,0.775,0,0,1,.72.48l1.51,3.52a3.573,3.573,0,0,0,6.78-.59l1.53-6.4a0.78,0.78,0,0,1,1.52-.01l1.7,6.79a3.551,3.551,0,0,0,3.15,2.73c0.11,0.01.22,0.02,0.34,0.02a3.525,3.525,0,0,0,3.24-2.11l0.78-1.71a0.775,0.775,0,0,1,.65-0.46,0.758,0.758,0,0,1,.71.35l0.04,0.06a3.583,3.583,0,0,0,2.97,1.58h0.03a3.535,3.535,0,0,0,2.96-1.64l1.46-2.25a0.8,0.8,0,0,1,.66-0.36h4.4v-2.85h-4.4A3.6,3.6,0,0,0,3618.19,3764.17Zm-31.79,19.45h15.84v2.85H3586.4v-2.85Zm0,6.96h31.68v2.85H3586.4v-2.85Z" transform="translate(-3579 -3732)"/>
</svg>
