<svg xmlns="http://www.w3.org/2000/svg" width="52" height="76" viewBox="0 0 52 76">
  <defs>
    <style>
      .cls-1 {
        fill: #131f39;
        fill-rule: evenodd;
      }
    </style>
  </defs>
  <path id="conception-icon-1" class="cls-1" d="M3406.53,3752.43l6.47-6.48-7.93-7.95-6.46,6.48-3.4-3.41-29.04,29.11,14.73,14.78,19.17-19.22a19.511,19.511,0,0,1-25.17,29.06h5.77v-3.3H3361v3.3h8.45a22.779,22.779,0,0,0,22.81,4.9l3.37,11h-18.68l3.03-10.23-3.16-.94-4.29,14.47h27.55l-4.77-15.58a22.507,22.507,0,0,0,5.75-4.2,22.914,22.914,0,0,0,1.35-30.82l7.53-7.56Zm-5.6-5.62,4.14-4.14,3.27,3.28-4.13,4.15-1.64-1.65Zm-0.69,3.98,3.97,3.97h0l1.07,1.08-18.13,18.19-10.08-10.11,18.14-18.18Zm-29.42,19.39,3.92-3.93,10.08,10.11-3.92,3.93Z" transform="translate(-3361 -3738)"/>
</svg>
