<svg xmlns="http://www.w3.org/2000/svg" width="71" height="71" viewBox="0 0 71 71">
  <defs>
    <style>
      .cls-1 {
        fill: #131f39;
        fill-rule: evenodd;
      }
    </style>
  </defs>
  <path id="conception-icon-4" class="cls-1" d="M4030.5,3738a35.5,35.5,0,1,0,35.5,35.5A35.469,35.469,0,0,0,4030.5,3738Zm-10.72,4.83a51.052,51.052,0,0,0-4.8,8.31h-8.06A32.209,32.209,0,0,1,4019.78,3742.83Zm-15.4,11.33h9.32a53.111,53.111,0,0,0-3.57,17.83h-12.07A32.328,32.328,0,0,1,4004.38,3754.16Zm0,38.68a32.328,32.328,0,0,1-6.32-17.83h12.07a52.928,52.928,0,0,0,3.63,17.83h-9.38Zm2.54,3.02h8.13a54.642,54.642,0,0,0,4.79,8.33A32.252,32.252,0,0,1,4006.92,3795.86Zm22.07,10.09a34.379,34.379,0,0,1-4.46-.51,50.881,50.881,0,0,1-6.14-9.57h10.6v10.08Zm0-13.11h-11.98a50.268,50.268,0,0,1-3.86-17.83h15.84v17.83Zm0-20.85h-15.84a50.5,50.5,0,0,1,3.83-17.83h12.01v17.83h0Zm0.01-20.85h-10.64a49.771,49.771,0,0,1,6.17-9.57,34.334,34.334,0,0,1,4.47-.51v10.08Zm27.62,3.02a32.186,32.186,0,0,1,6.31,17.83h-12.06a53.419,53.419,0,0,0-3.63-17.83h9.38Zm-2.54-3.02h-8.14a52.3,52.3,0,0,0-4.8-8.33A32.254,32.254,0,0,1,4054.08,3751.14Zm-22.07-10.08a36.053,36.053,0,0,1,4.45.51,51.583,51.583,0,0,1,6.15,9.57h-10.6v-10.08Zm0,13.1h11.97a50.449,50.449,0,0,1,3.87,17.83h-15.84v-17.83Zm0,20.85h15.84a50.732,50.732,0,0,1-3.84,17.83h-12v-17.83h0Zm-0.02,30.93v-10.08h10.65a49.818,49.818,0,0,1-6.18,9.57A34.137,34.137,0,0,1,4031.99,3805.94Zm9.15-1.75a53.762,53.762,0,0,0,4.78-8.33h8.17A32.358,32.358,0,0,1,4041.14,3804.19Zm6.06-11.35a55.77,55.77,0,0,0,3.65-17.83h12.1a32.405,32.405,0,0,1-6.32,17.83h-9.43Z" transform="translate(-3995 -3738)"/>
</svg>
