<svg xmlns="http://www.w3.org/2000/svg" width="59" height="56" viewBox="0 0 59 56">
  <defs>
    <style>
      .cls-1 {
        fill: #131f39;
        fill-rule: evenodd;
      }
    </style>
  </defs>
  <path id="cooperation-icon-4" class="cls-1" d="M9730.73,1491H9687.1a1.261,1.261,0,0,0-1.27,1.25v24.8h-11.57a1.244,1.244,0,0,0-1.26,1.24v21.15a7.625,7.625,0,0,0,7.68,7.56h43.63a7.634,7.634,0,0,0,7.69-7.56v-47.19A1.261,1.261,0,0,0,9730.73,1491Zm-55.2,48.44v-19.9h10.3v19.9A5.151,5.151,0,0,1,9675.53,1539.44Zm53.93,0a5.111,5.111,0,0,1-5.15,5.06h-37.93a7.478,7.478,0,0,0,1.99-5.06v-45.95h41.09v45.95h0Zm-22.33-34.03h16.25a1.25,1.25,0,1,0,0-2.5h-16.25A1.25,1.25,0,1,0,9707.13,1505.41Zm0,13.7h16.25a1.245,1.245,0,1,0,0-2.49h-16.25A1.245,1.245,0,1,0,9707.13,1519.11Zm0,13.7h16.25a1.245,1.245,0,1,0,0-2.49h-16.25A1.245,1.245,0,1,0,9707.13,1532.81Zm-11.69-26a1.27,1.27,0,0,0,.92.39h0.01a1.3,1.3,0,0,0,.93-0.4l6.96-7.51a1.238,1.238,0,0,0-.08-1.76,1.275,1.275,0,0,0-1.79.08l-6.04,6.51-1.88-1.96a1.3,1.3,0,0,0-1.8-.05,1.229,1.229,0,0,0-.05,1.76Zm6.95,5.1-6.04,6.51-1.88-1.96a1.3,1.3,0,0,0-1.8-.05,1.229,1.229,0,0,0-.05,1.76l2.82,2.94a1.27,1.27,0,0,0,.92.39h0.01a1.273,1.273,0,0,0,.93-0.41l6.96-7.5a1.238,1.238,0,0,0-.08-1.76A1.275,1.275,0,0,0,9702.39,1511.91Zm0,14.3-6.04,6.51-1.88-1.96a1.3,1.3,0,0,0-1.8-.05,1.229,1.229,0,0,0-.05,1.76l2.82,2.94a1.27,1.27,0,0,0,.92.39h0.01a1.273,1.273,0,0,0,.93-0.41l6.96-7.5a1.238,1.238,0,0,0-.08-1.76A1.275,1.275,0,0,0,9702.39,1526.21Z" transform="translate(-9673 -1491)"/>
</svg>
