<svg xmlns="http://www.w3.org/2000/svg" width="67" height="63" viewBox="0 0 67 63">
  <defs>
    <style>
      .cls-1 {
        fill: #131f39;
        fill-rule: evenodd;
      }
    </style>
  </defs>
  <path id="cooperation-icon-3" class="cls-1" d="M9422.26,1527.51h-4.46v-14.95a7.6,7.6,0,0,0-7.82-7.48h-11.17a7.6,7.6,0,0,0-7.81,7.48v14.95h2.23v-14.95a5.414,5.414,0,0,1,5.58-5.34h1.45l3.13,7.9a1.146,1.146,0,0,0,1.01.64,1.953,1.953,0,0,0,1.22-.64l3.13-7.9h1.23a5.408,5.408,0,0,1,5.58,5.34v14.95h-3.35v-13.88h-2.23v35.23h-4.47v-20.28h-2.23v20.28h-4.47v-35.23h-2.23v36.3a1.037,1.037,0,0,0,1.12,1.07h13.4a1.029,1.029,0,0,0,1.11-1.07v-9.61h10.05a1.037,1.037,0,0,0,1.12-1.07v-10.67A1.037,1.037,0,0,0,9422.26,1527.51Zm-17.75-15.81-1.79-4.48h3.58Zm16.64,17.94v4.28h-8.94v-4.28h8.94Zm-8.94,8.55v-2.14h8.94v2.14h-8.94Zm-8.93-20.29h2.23v2.13h-2.23v-2.13Zm0,4.27h2.23v2.13h-2.23v-2.13Zm0-18.15h2.23a5.417,5.417,0,0,0,5.59-5.34v-3.21a5.408,5.408,0,0,0-5.59-5.33h-2.23a5.406,5.406,0,0,0-5.58,5.33v3.21A5.414,5.414,0,0,0,9403.28,1504.02Zm-3.35-8.55a3.22,3.22,0,0,1,3.35-3.2h2.23a3.22,3.22,0,0,1,3.35,3.2v3.21a3.22,3.22,0,0,1-3.35,3.2h-2.23a3.22,3.22,0,0,1-3.35-3.2v-3.21Zm56.95-7.47h-44.67v2.14h43.55v37.37h-27.91v2.13h29.03a1.03,1.03,0,0,0,1.12-1.06v-39.51A1.037,1.037,0,0,0,9456.88,1488Zm-39.08,6.41h7.81v2.13h-7.81v-2.13Zm0,4.27h11.16v2.13H9417.8v-2.13Zm17.53,7.15,1.45-1.39v14.53h2.23v-14.53l1.45,1.39,1.57-1.49-3.35-3.21a1.123,1.123,0,0,0-1.56,0l-3.36,3.21Zm14.85,2.89,1.45,1.38,1.56-1.49-3.34-3.21a1.136,1.136,0,0,0-1.57,0l-3.35,3.21,1.57,1.49,1.45-1.38v10.25h2.23v-10.25h0Zm-2.23,14.52h2.23v2.13h-2.23v-2.13Zm-4.47,0h2.23v2.13h-2.23v-2.13Zm-4.47,0h2.24v2.13h-2.24v-2.13Zm-4.46,0h2.23v2.13h-2.23v-2.13Zm-4.47,0h2.23v2.13h-2.23v-2.13Zm-4.47-14.95h6.7v2.13h-6.7v-2.13Zm-3.35,4.27h10.05v2.13h-10.05v-2.13Zm0,4.27h10.05v2.14h-10.05v-2.14Zm16.75-21.36h3.35v-2.13h-4.46a1.037,1.037,0,0,0-1.12,1.07v4.27h2.23v-3.21Zm5.59-2.13h6.7v2.13h-6.7v-2.13Zm0,4.27h6.7v2.14h-6.7v-2.14Z" transform="translate(-9391 -1488)"/>
</svg>
