<svg xmlns="http://www.w3.org/2000/svg" width="57" height="69" viewBox="0 0 57 69">
  <defs>
    <style>
      .cls-1 {
        fill: #131f39;
        fill-rule: evenodd;
      }
    </style>
  </defs>
  <path id="cooperation-icon-1" class="cls-1" d="M8993.91,1550.42l-9.08-22.05a1.1,1.1,0,1,0-2.03.84l8.22,19.94-7.5-2.19a1.1,1.1,0,0,0-1.26.53l-3.76,6.87-8.82-21.39a22.141,22.141,0,1,0-21.88-8.55l-10.72,26a1.12,1.12,0,0,0,.2,1.16,1.091,1.091,0,0,0,1.12.32l8.84-2.58,4.44,8.11a1.091,1.091,0,0,0,.95.57h0.07a1.108,1.108,0,0,0,.95-0.68l8.49-20.61a1.1,1.1,0,0,0-2.03-.84l-7.61,18.49-3.77-6.87a1.092,1.092,0,0,0-1.26-.53l-7.49,2.19,9.4-22.83a21.947,21.947,0,0,0,16.12,7.05c0.65,0,1.3-.03,1.94-0.09l9.9,24.04a1.135,1.135,0,0,0,.96.68h0.06a1.106,1.106,0,0,0,.96-0.57l4.44-8.11,8.84,2.58a1.1,1.1,0,0,0,1.12-.32A1.117,1.117,0,0,0,8993.91,1550.42Zm-48.29-39.23a19.88,19.88,0,1,1,19.88,19.98A19.961,19.961,0,0,1,8945.62,1511.19Zm32.53-4.14a1.073,1.073,0,0,0-.86-0.74l-7.37-1.25-3.45-6.66a1.1,1.1,0,0,0-.97-0.59,1.086,1.086,0,0,0-.97.59l-3.46,6.66-7.37,1.25a1.086,1.086,0,0,0-.86.74,1.128,1.128,0,0,0,.26,1.11l5.24,5.36-1.1,7.43a1.112,1.112,0,0,0,.44,1.06,1.073,1.073,0,0,0,1.13.09l6.69-3.35,6.69,3.35a1.034,1.034,0,0,0,.48.12,1.1,1.1,0,0,0,.65-0.21,1.112,1.112,0,0,0,.44-1.06l-1.1-7.43,5.23-5.36A1.084,1.084,0,0,0,8978.15,1507.05Zm-7.44,5.32a1.116,1.116,0,0,0-.3.94l0.87,5.88-5.29-2.65a1.105,1.105,0,0,0-.49-0.12,1.044,1.044,0,0,0-.49.12l-5.3,2.65,0.88-5.88a1.122,1.122,0,0,0-.31-0.94l-4.14-4.24,5.83-.99a1.085,1.085,0,0,0,.79-0.57l2.74-5.28,2.73,5.28a1.085,1.085,0,0,0,.79.57l5.84,0.99Zm11.38-.07a1.094,1.094,0,0,0-1.23.94,15.575,15.575,0,1,1,0-4.11,1.095,1.095,0,1,0,2.17-.29,17.785,17.785,0,1,0,0,4.69A1.094,1.094,0,0,0,8982.09,1512.3Z" transform="translate(-8937 -1489)"/>
</svg>
