<svg xmlns="http://www.w3.org/2000/svg" width="73" height="56" viewBox="0 0 73 56">
  <defs>
    <style>
      .cls-1 {
        fill: #131f39;
        fill-rule: evenodd;
      }
    </style>
  </defs>
  <path id="cooperation-icon-2" class="cls-1" d="M9150.86,1506.04h2.44v2.44h-2.44v-2.44Zm66.92,0h-52.32v2.44h9.37a13.523,13.523,0,0,0-5.72,10.95v12.18a13.212,13.212,0,0,0,5.72,10.95h-9.37V1545h52.32a1.155,1.155,0,0,0,1.22-1.22v-36.52A1.155,1.155,0,0,0,9217.78,1506.04Zm-46.23,25.57v-12.18a10.95,10.95,0,0,1,21.9,0v12.18A10.95,10.95,0,0,1,9171.55,1531.61Zm45.01,10.95h-26.4a13.523,13.523,0,0,0,5.72-10.95v-12.18a13.212,13.212,0,0,0-5.72-10.95h26.4v34.08Zm-55.96-36.52h2.43v2.44h-2.43v-2.44Zm-4.87,0h2.43v2.44h-2.43v-2.44Zm-4.87,36.52h2.44V1545h-2.44v-2.44Zm-4.86,0h2.43V1545H9146v-2.44Zm0-36.52h2.43v2.44H9146v-2.44Zm0,6.09h2.43v2.43H9146v-2.43Zm0,4.87h2.43v2.43H9146V1517Zm0,4.87h2.43v2.43H9146v-2.43Zm0,4.87h2.43v2.43H9146v-2.43Zm0,4.87h2.43v2.43H9146v-2.43Zm0,4.87h2.43v2.43H9146v-2.43Zm14.6,6.08h2.43V1545h-2.43v-2.44Zm-4.87,0h2.43V1545h-2.43v-2.44Zm53.53-21.91h2.44v-7.3a1.155,1.155,0,0,0-1.22-1.22h-7.3v2.43h6.08v6.09Zm-57.18-7.3v7.3h2.43v-6.09h6.09v-2.43h-7.3A1.155,1.155,0,0,0,9152.08,1513.35Zm8.52,23.13h-6.09v-6.09h-2.43v7.31a1.147,1.147,0,0,0,1.22,1.21h7.3v-2.43Zm48.66,0h-6.08v2.43h7.3a1.147,1.147,0,0,0,1.22-1.21v-7.31h-2.44v6.09ZM9181.28,1517h2.43a3.583,3.583,0,0,1,3.65,3.65h2.44a6.031,6.031,0,0,0-6.09-6.09v-2.43h-2.43v2.43a6.09,6.09,0,0,0,0,12.18h2.43a3.65,3.65,0,1,1,0,7.3h-2.43a3.583,3.583,0,0,1-3.65-3.65h-2.43a6.023,6.023,0,0,0,6.08,6.09v2.43h2.43v-2.43a6.09,6.09,0,1,0,0-12.18h-2.43A3.65,3.65,0,0,1,9181.28,1517Zm19.47,7.3h3.65v2.44h-3.65v-2.44Zm-40.15,0h3.65v2.44h-3.65v-2.44Zm-7.3-32.87h13.38V1489h-14.6a1.155,1.155,0,0,0-1.22,1.22v12.17h2.44v-10.96Zm17.03-2.43h12.17v2.43h-12.17V1489Zm0,4.87h25.55v2.43h-25.55v-2.43Zm0,4.87h25.55v2.43h-25.55v-2.43Z" transform="translate(-9146 -1489)"/>
</svg>
