<svg xmlns="http://www.w3.org/2000/svg" width="62" height="51" viewBox="0 0 62 51">
  <defs>
    <style>
      .cls-1 {
        fill: #131f39;
        fill-rule: evenodd;
      }
    </style>
  </defs>
  <path id="cooperation-icon-5" class="cls-1" d="M9933.28,1525.66a13.222,13.222,0,0,0,5.7-11.1c0-7.1-5.2-12.89-11.59-12.89a10.875,10.875,0,0,0-1.81.16,11.537,11.537,0,0,0-17.17,0,10.782,10.782,0,0,0-1.81-.16c-6.39,0-11.59,5.79-11.59,12.89a13.222,13.222,0,0,0,5.7,11.1c-8.5,2.83-14.71,11.6-14.71,21.97a1.309,1.309,0,0,0,1.23,1.37h59.53a1.317,1.317,0,0,0,1.24-1.37C9948,1537.26,9941.78,1528.49,9933.28,1525.66Zm-5.78-21.23c4.98,0.06,9.01,4.58,9.01,10.13,0,5.6-4.09,10.15-9.12,10.15a8.312,8.312,0,0,1-3.97-1.02,14.241,14.241,0,0,0,6.02-11.85A14.844,14.844,0,0,0,9927.5,1504.43Zm-18.25.43a10.829,10.829,0,0,1,2.02-2.09,9.137,9.137,0,0,1,11.46,0,10.5,10.5,0,0,1,2.01,2.09,11.856,11.856,0,0,1,2.23,6.98,11.238,11.238,0,0,1-5.84,10.09,9.129,9.129,0,0,1-5.63.88,9.434,9.434,0,0,1-2.64-.88,11.23,11.23,0,0,1-5.83-10.09A11.849,11.849,0,0,1,9909.25,1504.86Zm-11.77,9.7c0-5.55,4.04-10.07,9.02-10.13a14.844,14.844,0,0,0-1.94,7.41,14.216,14.216,0,0,0,6.02,11.85,8.351,8.351,0,0,1-3.98,1.02C9901.57,1524.71,9897.48,1520.16,9897.48,1514.56Zm-8.97,31.69c0.58-9.49,7.08-17.2,15.42-18.58a25.546,25.546,0,0,0-9.1,18.58h-6.32Zm8.8,0c0.46-8.3,5.09-15.36,11.58-18.63a18.037,18.037,0,0,1,4.6-1.59,17.725,17.725,0,0,1,7.01,0,18.037,18.037,0,0,1,4.6,1.59c6.49,3.27,11.13,10.33,11.59,18.63h-39.38Zm41.85,0a25.546,25.546,0,0,0-9.1-18.58c8.34,1.38,14.85,9.09,15.43,18.58h-6.33Zm-29.46-15.33a1.168,1.168,0,0,0-1.7-.48,19.59,19.59,0,0,0-8.06,12.17,1.393,1.393,0,0,0,.91,1.66,0.967,0.967,0,0,0,.29.04,1.26,1.26,0,0,0,1.2-1.05,16.793,16.793,0,0,1,6.93-10.46A1.466,1.466,0,0,0,9909.7,1530.92Zm7.49-3.2a0.761,0.761,0,0,0-.21-0.03c-0.07,0-.14.01-0.21,0.01a15.6,15.6,0,0,0-3.85.52,1.167,1.167,0,0,0-.52.29,1.47,1.47,0,0,0-.4,1.36,1.259,1.259,0,0,0,1.2,1.06,0.967,0.967,0,0,0,.29-0.04,13.088,13.088,0,0,1,2.64-.42c0.28-.02.56-0.03,0.85-0.03a1.3,1.3,0,0,0,1.23-1.37A1.333,1.333,0,0,0,9917.19,1527.72Z" transform="translate(-9886 -1498)"/>
</svg>
