<?xml version="1.0" encoding="utf-8"?>
<!-- Generator: Adobe Illustrator 17.0.0, SVG Export Plug-In . SVG Version: 6.00 Build 0)  -->
<!DOCTYPE svg PUBLIC "-//W3C//DTD SVG 1.1//EN" "http://www.w3.org/Graphics/SVG/1.1/DTD/svg11.dtd">
<svg version="1.1" id="Слой_1" xmlns="http://www.w3.org/2000/svg" xmlns:xlink="http://www.w3.org/1999/xlink" x="0px" y="0px"
	 width="57px" height="77px" viewBox="0 0 57 77" enable-background="new 0 0 57 77" xml:space="preserve">
<line fill="none" stroke="#ED3237" stroke-width="2" stroke-miterlimit="10" x1="1" y1="51.72" x2="57" y2="51.72"/>
<path fill="none" stroke="#ED3237" stroke-width="2" stroke-miterlimit="10" d="M56,19v-3.665C55.563,0.72,40,1,40,1H1v75h55V19z"/>
<polyline fill="none" stroke="#ED3237" stroke-width="2" stroke-miterlimit="10" points="56,19.72 38,19.72 38,0.72 "/>
<g>
	<path fill="#ED3237" d="M15.281,59.505h2.902c2.627,0,4.342,1.559,4.342,4.246s-1.715,4.27-4.342,4.27h-2.902V59.505z M18.1,66.689
		c1.728,0,2.831-1.02,2.831-2.938c0-1.895-1.128-2.915-2.831-2.915h-1.271v5.853H18.1z"/>
	<path fill="#ED3237" d="M28.023,59.361c2.578,0,4.401,1.907,4.401,4.341c0,2.507-1.823,4.462-4.401,4.462
		c-2.579,0-4.402-1.955-4.402-4.462C23.621,61.268,25.444,59.361,28.023,59.361z M28.023,66.749c1.631,0,2.806-1.319,2.806-3.046
		c0-1.655-1.175-2.926-2.806-2.926c-1.632,0-2.807,1.271-2.807,2.926C25.217,65.43,26.392,66.749,28.023,66.749z"/>
	<path fill="#ED3237" d="M37.875,59.361c1.115,0,2.315,0.36,3.143,1.163l-0.743,1.151c-0.601-0.516-1.5-0.899-2.327-0.899
		c-1.871,0-2.854,1.355-2.854,2.926c0,1.595,1.02,3.046,2.866,3.046c0.912,0,1.823-0.443,2.471-1.079l0.815,1.115
		c-0.731,0.744-1.822,1.379-3.346,1.379c-2.675,0-4.401-1.931-4.401-4.438C33.498,61.256,35.309,59.361,37.875,59.361z"/>
</g>
</svg>
