<svg xmlns="http://www.w3.org/2000/svg" width="17" height="17" viewBox="0 0 17 17"><path fill="#006cb5" fill-rule="evenodd" d="M16.57 12.432a.434.434 0 0 0-.44.423v1.612a1.708 1.708 0 0 1-1.73 1.689H2.6a1.708 1.708 0 0 1-1.73-1.689v-1.612a.434.434 0 0 0-.44-.423.425.425 0 0 0-.43.423v1.612A2.566 2.566 0 0 0 2.6 17h11.8a2.566 2.566 0 0 0 2.6-2.533v-1.612a.425.425 0 0 0-.43-.423zm-3.69-4.275a.44.44 0 0 0-.61-.033l-3.34 2.907V.422a.43.43 0 0 0-.86 0v10.609L4.73 8.124a.44.44 0 0 0-.61.033.422.422 0 0 0 .03.6l3.63 3.157a1.1 1.1 0 0 0 1.44 0l3.63-3.158a.422.422 0 0 0 .03-.599z"/></svg>