<svg xmlns="http://www.w3.org/2000/svg" width="24" height="21" viewBox="0 0 24 21"><path fill="#fff" fill-rule="evenodd" d="M23.389 14.418a.61.61 0 0 0-.611.608v2.324a2.441 2.441 0 0 1-2.444 2.433H3.666a2.441 2.441 0 0 1-2.444-2.433v-2.324a.611.611 0 0 0-1.222 0v2.324A3.662 3.662 0 0 0 3.666 21h16.668A3.662 3.662 0 0 0 24 17.35v-2.324a.61.61 0 0 0-.611-.608zm-3.709 2.4H4.32a.609.609 0 1 0 0 1.217h15.36a.61.61 0 1 0 0-1.221zm-1.5-8.557a.613.613 0 0 0-.863-.049l-4.71 4.189V.608a.611.611 0 0 0-1.222 0V12.4l-4.71-4.189a.613.613 0 0 0-.863.049.606.606 0 0 0 .049.859l5.117 4.551a1.531 1.531 0 0 0 2.035 0l5.118-4.551a.607.607 0 0 0 .053-.862z"/></svg>