<?xml version="1.0" encoding="utf-8"?>
<!-- Generator: Adobe Illustrator 17.0.0, SVG Export Plug-In . SVG Version: 6.00 Build 0)  -->
<!DOCTYPE svg PUBLIC "-//W3C//DTD SVG 1.1//EN" "http://www.w3.org/Graphics/SVG/1.1/DTD/svg11.dtd">
<svg version="1.1" id="Слой_1" xmlns="http://www.w3.org/2000/svg" xmlns:xlink="http://www.w3.org/1999/xlink" x="0px" y="0px"
	 width="57px" height="77px" viewBox="0 0 57 77" enable-background="new 0 0 57 77" xml:space="preserve">
<line fill="none" stroke="#ED3237" stroke-width="2" stroke-miterlimit="10" x1="1" y1="51.72" x2="57" y2="51.72"/>
<path fill="none" stroke="#ED3237" stroke-width="2" stroke-miterlimit="10" d="M56,19v-3.665C55.563,0.72,40,1,40,1H1v75h55V19z"/>
<polyline fill="none" stroke="#ED3237" stroke-width="2" stroke-miterlimit="10" points="56,19.72 38,19.72 38,0.72 "/>
<g>
	<path fill="#ED3237" d="M12.739,64.9h1.247v0.382c0,0.865,0.408,1.641,1.413,1.641c0.725,0,1.412-0.42,1.412-1.59V60.04h-2.265
		v-1.094h3.512v6.4c0,1.946-1.349,2.736-2.659,2.736c-1.311,0-2.66-0.802-2.66-2.736V64.9z"/>
	<path fill="#ED3237" d="M20.345,58.946h3.296c1.641,0,2.811,1.107,2.811,2.812c0,1.705-1.171,2.85-2.811,2.85h-2.036v3.321h-1.26
		V58.946z M23.437,63.513c1.069,0,1.742-0.674,1.742-1.756c0-1.069-0.674-1.718-1.73-1.718h-1.845v3.473H23.437z"/>
	<path fill="#ED3237" d="M28.051,58.946h5.229v1.094h-3.97v2.812h3.219v1.094H29.31v2.888h4.186v1.094h-5.446V58.946z"/>
	<path fill="#ED3237" d="M39.079,58.793c1.159,0,2.367,0.331,3.27,1.094l-0.636,0.929c-0.598-0.509-1.629-0.878-2.545-0.878
		c-2.099,0-3.371,1.552-3.371,3.46c0,2.074,1.425,3.524,3.295,3.524c0.968,0,1.896-0.445,2.545-1.119v-1.298h-1.451v-1.094h2.608
		v4.517h-1.106v-0.56c0-0.19,0.012-0.381,0.012-0.381h-0.025c-0.611,0.636-1.654,1.094-2.761,1.094
		c-2.417,0-4.415-1.909-4.415-4.657C34.499,60.829,36.458,58.793,39.079,58.793z"/>
</g>
</svg>
