<svg xmlns="http://www.w3.org/2000/svg" width="76" height="76" viewBox="0 0 76 76">
  <defs>
    <style>
      .cls-1 {
        fill: #131f39;
        fill-rule: evenodd;
      }
    </style>
  </defs>
  <path id="production-icon-4" class="cls-1" d="M5781.54,3722.55H5784V3725h-2.46v-2.45Zm2.46-46.58v-2.45h-24.52v2.45h2.45V3687h-2.45v2.45h2.45v11.03h-3.8l-4.64-44.13h2.31V3649h-14.71v7.35h2.32l-4.65,44.13h-2l-19.01-22.57a4.888,4.888,0,1,0-6.08,5.24v39.4H5708V3725h71.09v-2.45h-2.45v-12.26H5784v-9.81h-2.46v-11.03H5784V3687h-2.46v-11.03H5784Zm-19.62,0h14.71V3687h-14.71v-11.03Zm0,13.48h14.71v11.03h-14.71v-11.03Zm-8.79,10.32-10.31-10.32h9.22Zm-1.46-13.87-7.83-8.71h6.92Zm-8.9-23.42,0.64-6.13h5.15l0.65,6.13h-6.44Zm6.7,2.46,0.85,8.07-5.65-8.07h4.8Zm-0.93,9.8h-7.06l0.92-8.76Zm-7.45-23.29h9.8v2.45h-9.8v-2.45Zm0.06,26.42,8.22,9.13h-9.18Zm-1.28,12.11,10.51,10.5h-11.61Zm-8.77,10.5h-5.3l-1.69-2.45h4.92Zm-7.79-9.25,3.66,4.35h-4.55l-0.54-.79Zm-1.79-2.12-1.31,3.25-4.45-6.48,4.76,2.04Zm-6.89-8.18,2.37,2.82-3.52-1.51A4.955,4.955,0,0,0,5717.09,3680.93Zm-6.64-2.51a2.45,2.45,0,1,1,2.45,2.45A2.454,2.454,0,0,1,5710.45,3678.42Zm13.48,44.13h-9.8v-38.29l7.45,10.84-0.01.03,0.04,0.01,3.67,5.34h-8.7v9.81h7.35v12.26Zm12.26-4.9h-1.22v2.45h1.22v2.45h-9.8v-2.45h6.13v-2.45h-6.13v-7.36h9.8v7.36Zm25.74,4.9h-23.29v-12.26h23.29v12.26Zm12.26-4.9h-1.23v2.45h1.23v2.45h-9.81v-2.45h6.13v-2.45h-6.13v-7.36h9.81v7.36Zm7.35-9.81h-62.51v-4.9h62.51v4.9Zm-14.7-29.42h2.45v2.45h-2.45v-2.45Zm4.9,0h2.45v2.45h-2.45v-2.45Zm2.45,17.16h2.45v2.45h-2.45v-2.45Zm-4.9,0h2.45v2.45h-2.45v-2.45Z" transform="translate(-5708 -3649)"/>
</svg>
