<svg xmlns="http://www.w3.org/2000/svg" width="69.72" height="69.72" viewBox="0 0 69.72 69.72">
  <defs>
    <style>
      .cls-1 {
        fill: #131f39;
        fill-rule: evenodd;
      }
    </style>
  </defs>
  <path id="production-icon-1" class="cls-1" d="M4953.1,3716v-2.25h2.25v-6.74h-2.25v-2.25h4.49v-10.12h-9.35l13.04-11.3a5.637,5.637,0,0,0,1.94-4.25v-4.5l1.07-.91a3.382,3.382,0,0,0,1.17-2.57v-7.96a5.625,5.625,0,0,0-5.62-5.62h-25.86v2.25h-4.5v-4.5h-17.13l-5.35,2.68v4.07h8.99v2.25H4907v4.07l5.35,2.67h17.13v-4.49h4.5v2.25h16.17l-18.98,16.98a7.484,7.484,0,0,0-3.99,12.66l6.34,6.34h3.84v2.25h-2.25v6.74h2.25V3716h-12.37v9h51.72v-9H4953.1Zm-32.61-47.22h-7.61l-3.63-1.82v-0.43h8.99v-6.75h-8.99v-0.43l3.63-1.82h7.61v11.25Zm6.75,0h-4.5v-11.25h4.5v11.25Zm6.74-4.5h-4.5v-2.25h4.5v2.25Zm19.12,47.23h-2.25v-2.25h2.25v2.25Zm-2.25,2.24V3716H4939.6v-2.25h11.25Zm-9-2.24v-2.25h2.25v2.25h-2.25Zm4.5,0v-2.25h2.25v2.25h-2.25Zm-6.75-4.5v-2.25h11.25v2.25H4939.6Zm21.37-27.92a3.375,3.375,0,0,1-1.17,2.55l-15,13h-0.23l-2.19-2.19,18.59-15.93v2.57Zm-22.49-12.56h-2.25v-6.75h2.25v6.75Zm2.25,0v-6.75h19.11a3.38,3.38,0,0,1,3.38,3.37v3.38h-22.49Zm12.8,2.25h9.69v2.33a1.149,1.149,0,0,1-.4.86l-22.03,18.89-3.02-3.02a7.445,7.445,0,0,0-3.38-1.94Zm-19.08,33.73-5.68-5.68a5.188,5.188,0,0,1-1.53-3.7,5.233,5.233,0,0,1,8.94-3.7l7.46,7.46h11.71v5.62h-20.9Zm2.91,6.75h2.24v2.25h-2.24v-2.25Zm37.1,13.49h-2.25v-2.25h-2.25v2.25h-2.25v-2.25h-2.25v2.25h-2.24v-2.25h-2.25v2.25h-2.25v-2.25h-2.25v2.25h-2.25v-2.25h-2.25v2.25h-2.25v-2.25h-2.25v2.25h-2.24v-2.25h-2.25v2.25h-2.25v-2.25h-2.25v2.25h-2.25v-2.25h-2.25v2.25h-2.25v-2.25h-2.25v2.25h-2.24v-4.5h47.22v4.5Zm-42.17-32.61a2.81,2.81,0,1,0,2.82,2.81A2.819,2.819,0,0,0,4932.29,3690.14Zm0,3.37a0.56,0.56,0,1,1,.57-0.56A0.566,0.566,0,0,1,4932.29,3693.51Z" transform="translate(-4907 -3655.28)"/>
</svg>
