<svg xmlns="http://www.w3.org/2000/svg" width="65.31" height="81" viewBox="0 0 65.31 81">
  <defs>
    <style>
      .cls-1 {
        fill: #131f39;
        fill-rule: evenodd;
      }
    </style>
  </defs>
  <path id="production-icon-5" class="cls-1" d="M5994.7,3699.17l-10.22-2.27v-3.22a15.652,15.652,0,0,0,6.53-12.71V3674a5.722,5.722,0,0,0,.75-0.87h5.78v-2.61h-2.61v-2.62a19.665,19.665,0,0,0-15.84-19.19,2.616,2.616,0,0,0-2.45-1.71h-2.61a2.6,2.6,0,0,0-2.44,1.71,19.664,19.664,0,0,0-15.85,19.19v2.62h-2.62v2.61h5.79a6.343,6.343,0,0,0,.75.87v6.97a15.652,15.652,0,0,0,6.53,12.71v3.22l-10.22,2.27a16.877,16.877,0,0,0-13.29,16.58V3728H6008v-12.25A16.886,16.886,0,0,0,5994.7,3699.17Zm-38.96,26.22h-10.45v-9.64a14.259,14.259,0,0,1,10.45-13.81v23.45Zm29.37-25.67-4.88,6.51-3.56-3.56,6.68-3.34Zm-9.77.69-6.54-3.27v-1.94a15.549,15.549,0,0,0,13.07,0v1.94Zm-14.51-29.17-0.37-.72h-2.11v-2.62a17.054,17.054,0,0,1,13.07-16.5v6.05h2.61v-7.84h2.61v7.84h2.62v-6.05a17.056,17.056,0,0,1,13.06,16.5v2.62h-2.11l-0.36.72a3.425,3.425,0,0,1-3.06,1.89h-22.9A3.4,3.4,0,0,1,5960.83,3671.24Zm1.44,4.28a6.209,6.209,0,0,0,1.62.22h22.89a6.209,6.209,0,0,0,1.62-.22v4.64l-1.75.87a11.815,11.815,0,0,1-5.25,1.24h-2.14a0.521,0.521,0,0,1-.49-0.34l-0.47-1.44a3.124,3.124,0,0,0-5.93,0l-0.47,1.44a0.518,0.518,0,0,1-.48.34h-2.15a11.815,11.815,0,0,1-5.25-1.24l-1.75-.87v-4.64Zm0.2,7.66,0.38,0.19a14.466,14.466,0,0,0,6.42,1.52h2.15a3.126,3.126,0,0,0,2.96-2.14l0.47-1.43a0.534,0.534,0,0,1,.97-0.01l0.48,1.45a3.111,3.111,0,0,0,2.96,2.13h2.14a14.434,14.434,0,0,0,6.42-1.52l0.38-.19A13.052,13.052,0,0,1,5962.47,3683.18Zm4.86,16.15,6.67,3.33-3.56,3.57-4.88-6.51Zm6.7,26.06h-15.68v-2.62h15.68v2.62Zm0-5.23h-15.68v-18.84l4.41-.98,11.27,15.03v4.79Zm-2.01-11.82,3.32-3.32,3.31,3.32-3.31,4.42Zm20.3,17.05h-15.68v-2.62h15.68v2.62Zm0-5.23h-15.68v-4.79l11.27-15.03,4.41,0.98v18.84Zm13.06,5.23h-10.45v-23.45a14.267,14.267,0,0,1,10.45,13.81v9.64Zm-16.98-57.49h-7.87a6.445,6.445,0,0,0,1.34-3.92,6.535,6.535,0,0,0-13.07,0,6.445,6.445,0,0,0,1.34,3.92h-7.87v2.62h26.13v-2.62Zm-13.06,0a3.92,3.92,0,1,1,3.92-3.92A3.92,3.92,0,0,1,5975.34,3667.9Zm3.92,47.04h10.45v2.61h-10.45v-2.61Z" transform="translate(-5942.69 -3647)"/>
</svg>
