<svg xmlns="http://www.w3.org/2000/svg" width="75" height="75" viewBox="0 0 75 75">
  <defs>
    <style>
      .cls-1 {
        fill: #131f39;
        fill-rule: evenodd;
      }
    </style>
  </defs>
  <path id="production-icon-3" class="cls-1" d="M5418.89,3685.08h2.42v2.42h-2.42v-2.42Zm-2.42-3.63h2.42v2.42h-2.42v-2.42Zm10.89,6.05h2.42v2.42h-2.42v-2.42Zm4.83-2.42h2.42v2.42h-2.42v-2.42Zm35.08,35.08a7.26,7.26,0,1,0-7.25-7.26A7.266,7.266,0,0,0,5467.27,3720.16Zm-4.64-8.54,1.94,1.12,1.21-2.09-1.95-1.13a4.715,4.715,0,0,1,2.23-1.28v2.24h2.42v-2.24a4.8,4.8,0,0,1,2.24,1.28l-1.96,1.13,1.21,2.09,1.95-1.12a4.44,4.44,0,0,1,0,2.57l-1.95-1.13-1.21,2.1,1.96,1.13a4.8,4.8,0,0,1-2.24,1.28v-2.25h-2.42v2.25a4.715,4.715,0,0,1-2.23-1.28l1.95-1.13-1.21-2.09-1.94,1.12A4.228,4.228,0,0,1,5462.63,3711.62Zm17.95,10.96v-21.77h-2.42v-7.26h-3.63v-13.81a8.422,8.422,0,0,0-2.73-11.48l-10.93-12.22a8.463,8.463,0,0,0-15.21-2.18l-14.08,13.39a6.331,6.331,0,0,0-.98,8.04l-6.52,6.52,1.71,1.71,6.48-6.48a6.3,6.3,0,0,0,8.02-.49l10.64-9.82a8.408,8.408,0,0,0,1.12.17l6.8,7.65a8.06,8.06,0,0,0-.04.85,8.329,8.329,0,0,0,1.21,4.34v13.81h-3.63v7.26h-2.42v21.77h-21.78v-21.77h-2.41v-2.42h2.41v-2.42h-2.54a6.049,6.049,0,0,0-5.92-4.84h-10.89v4.84h-2.42v2.42h2.42v2.42h-2.42v21.77H5408V3725h75v-2.42h-2.42Zm-65.32-29.03h8.47a3.613,3.613,0,0,1,3.4,2.42h-11.87v-2.42Zm0,4.84h12.1v2.42h-12.1v-2.42Zm14.52,12.09h-2.42v2.42h2.42v9.68h-16.94v-9.68h12.1v-2.42h-12.1v-7.25h16.94v7.25Zm43.54-35.08a6.045,6.045,0,1,1-6.05-6.05A6.052,6.052,0,0,1,5473.32,3675.4Zm-1.21,6.94v11.21h-9.68v-11.21A8.42,8.42,0,0,0,5472.11,3682.34Zm-33.46-7.56a3.959,3.959,0,0,1-5.41-5.78l11.05-10.5a8.458,8.458,0,0,0,4.15,7.24Zm14.1-10.26a6.055,6.055,0,1,1,.01,0h-0.01Zm6.88,7.27-4.6-5.17a8.482,8.482,0,0,0,6.06-6.7l6.28,7.02h-0.1A8.454,8.454,0,0,0,5459.63,3671.79Zm-0.82,24.18h16.93v4.84h-16.93v-4.84Zm19.35,26.61h-21.77v-19.35h21.77v19.35Z" transform="translate(-5408 -3650)"/>
</svg>
