<svg xmlns="http://www.w3.org/2000/svg" width="71.82" height="71.84" viewBox="0 0 71.82 71.84">
  <defs>
    <style>
      .cls-1 {
        fill: #131f39;
        fill-rule: evenodd;
      }
    </style>
  </defs>
  <path id="production-icon-2" class="cls-1" d="M5222.77,3686.77h-1.16v-16.22h-20.85v16.22h-2.31v-16.22h-18.54v-17.38h-20.85v2.32h18.53v67.19h-18.53V3725h20.85v-22.01h32.44V3725h2.31v-22.01h2.32V3725h2.32v-22.01h3.47A8.11,8.11,0,0,0,5222.77,3686.77Zm-19.69-13.91h6.95v8.11h2.32v-8.11h6.95v13.91h-16.22v-13.91Zm-23.17,0h6.95v8.11h2.32v-8.11h6.95v13.91h-16.22v-13.91Zm42.86,27.81h-3.47v-2.32h-2.32v2.32h-6.95v-2.32h-2.32v2.32h-6.95v-2.32h-2.31v2.32h-6.96v-2.32h-2.31v2.32h-6.95v-2.32h-2.32v-6.95h2.32v-2.32h6.95v2.32h2.31v-2.32h6.96v2.32h2.31v-2.32h6.95v2.32h2.32v-2.32h6.95v2.32h2.32v-2.32h3.47A5.8,5.8,0,0,1,5222.77,3700.67Zm0-9.27a3.475,3.475,0,1,0,3.48,3.48A3.48,3.48,0,0,0,5222.77,3691.4Zm0,4.64a1.16,1.16,0,1,1,1.16-1.16A1.161,1.161,0,0,1,5222.77,3696.04Zm-9.27-4.64a3.475,3.475,0,1,0,3.48,3.48A3.48,3.48,0,0,0,5213.5,3691.4Zm0,4.64a1.16,1.16,0,1,1,1.16-1.16A1.159,1.159,0,0,1,5213.5,3696.04Zm-9.26-4.64a3.475,3.475,0,1,0,3.47,3.48A3.483,3.483,0,0,0,5204.24,3691.4Zm0,4.64a1.16,1.16,0,1,1,1.16-1.16A1.161,1.161,0,0,1,5204.24,3696.04Zm-9.27-4.64a3.475,3.475,0,1,0,3.48,3.48A3.483,3.483,0,0,0,5194.97,3691.4Zm0,4.64a1.16,1.16,0,1,1,1.16-1.16A1.161,1.161,0,0,1,5194.97,3696.04Zm-9.27-4.64a3.475,3.475,0,1,0,3.48,3.48A3.48,3.48,0,0,0,5185.7,3691.4Zm0,4.64a1.16,1.16,0,1,1,1.16-1.16A1.161,1.161,0,0,1,5185.7,3696.04Zm-13.9-24.33a12.763,12.763,0,0,0-12.74-12.75v2.32a10.425,10.425,0,0,1,0,20.85v2.32A12.761,12.761,0,0,0,5171.8,3671.71Zm-12.74-1.16h2.31v2.31h-2.31v-2.31Zm4.63,0h2.32v2.31h-2.32v-2.31Zm6.95,19.69h-11.58v2.32h9.26v8.11h-9.26v2.32h11.58v-12.75Zm-11.58,15.06h2.31v2.32h-2.31v-2.32Zm4.63,0h2.32v2.32h-2.32v-2.32Zm4.63,0h2.32v2.32h-2.32v-2.32Z" transform="translate(-5159.06 -3653.16)"/>
</svg>
