<?xml version="1.0" encoding="utf-8"?>
<!-- Generator: Adobe Illustrator 17.0.0, SVG Export Plug-In . SVG Version: 6.00 Build 0)  -->
<!DOCTYPE svg PUBLIC "-//W3C//DTD SVG 1.1//EN" "http://www.w3.org/Graphics/SVG/1.1/DTD/svg11.dtd">
<svg version="1.1" id="Слой_1" xmlns="http://www.w3.org/2000/svg" xmlns:xlink="http://www.w3.org/1999/xlink" x="0px" y="0px"
	 width="57px" height="77px" viewBox="0 0 57 77" enable-background="new 0 0 57 77" xml:space="preserve">
<line fill="none" stroke="#ED3237" stroke-width="2" stroke-miterlimit="10" x1="1" y1="51.72" x2="57" y2="51.72"/>
<path fill="none" stroke="#ED3237" stroke-width="2" stroke-miterlimit="10" d="M56,19v-3.665C55.563,0.72,40,1,40,1H1v75h55V19z"/>
<polyline fill="none" stroke="#ED3237" stroke-width="2" stroke-miterlimit="10" points="56,19.72 38,19.72 38,0.72 "/>
<g>
	<path fill="#ED3237" d="M17.031,59.505h2.807c0.84,0,1.247,0.072,1.607,0.228c0.875,0.36,1.438,1.175,1.438,2.327
		c0,1.008-0.527,1.967-1.427,2.327v0.024c0,0,0.107,0.132,0.275,0.443l1.752,3.167h-1.739l-1.68-3.178h-1.487v3.178h-1.547V59.505z
		 M19.97,63.499c0.827,0,1.344-0.516,1.344-1.355c0-0.54-0.204-0.971-0.672-1.163c-0.216-0.096-0.468-0.144-0.936-0.144h-1.128
		v2.663H19.97z"/>
	<path fill="#ED3237" d="M26.762,59.505h1.632l2.986,8.515h-1.584l-0.731-2.183h-2.986l-0.72,2.183h-1.583L26.762,59.505z
		 M28.681,64.579L27.926,62.3c-0.145-0.48-0.336-1.319-0.336-1.319h-0.024c0,0-0.191,0.839-0.336,1.319l-0.768,2.279H28.681z"/>
	<path fill="#ED3237" d="M32.511,59.505h2.807c0.84,0,1.247,0.072,1.607,0.228c0.875,0.36,1.438,1.175,1.438,2.327
		c0,1.008-0.527,1.967-1.427,2.327v0.024c0,0,0.108,0.132,0.275,0.443l1.751,3.167h-1.738l-1.68-3.178h-1.487v3.178h-1.547V59.505z
		 M35.449,63.499c0.828,0,1.344-0.516,1.344-1.355c0-0.54-0.204-0.971-0.672-1.163c-0.216-0.096-0.468-0.144-0.936-0.144h-1.128
		v2.663H35.449z"/>
</g>
</svg>
