<svg xmlns="http://www.w3.org/2000/svg" width="25" height="20" viewBox="0 0 25 20"><path fill-rule="evenodd" d="M24.41 2.32a10.225 10.225 0 0 1-1.21.43A5.26 5.26 0 0 0 24.29.88a.38.38 0 0 0-.14-.43.41.41 0 0 0-.45-.03 9.82 9.82 0 0 1-2.81 1.09 5.442 5.442 0 0 0-3.75-1.5 5.312 5.312 0 0 0-5.37 5.24c0 .23.02.46.04.68a13.833 13.833 0 0 1-9.42-4.89.4.4 0 0 0-.34-.14.4.4 0 0 0-.32.19 5.192 5.192 0 0 0 .55 6.04 4.12 4.12 0 0 1-.71-.31.407.407 0 0 0-.4 0 .393.393 0 0 0-.21.33v.07a5.228 5.228 0 0 0 2.63 4.51 2.9 2.9 0 0 1-.41-.06.45.45 0 0 0-.38.13.4.4 0 0 0-.08.38 5.35 5.35 0 0 0 3.93 3.52 9.73 9.73 0 0 1-5.07 1.41 10.553 10.553 0 0 1-1.13-.06.4.4 0 0 0-.43.25.383.383 0 0 0 .16.47A14.663 14.663 0 0 0 8 20.01a14.045 14.045 0 0 0 10.78-4.63 14.507 14.507 0 0 0 3.74-9.56c0-.15-.01-.29-.01-.44a10.28 10.28 0 0 0 2.4-2.48.376.376 0 0 0-.03-.47.4.4 0 0 0-.47-.11z" opacity=".15"/></svg>