<?xml version="1.0" encoding="utf-8"?>
<!-- Generator: Adobe Illustrator 17.0.0, SVG Export Plug-In . SVG Version: 6.00 Build 0)  -->
<!DOCTYPE svg PUBLIC "-//W3C//DTD SVG 1.1//EN" "http://www.w3.org/Graphics/SVG/1.1/DTD/svg11.dtd">
<svg version="1.1" id="Слой_1" xmlns="http://www.w3.org/2000/svg" xmlns:xlink="http://www.w3.org/1999/xlink" x="0px" y="0px"
	 width="57px" height="77px" viewBox="0 0 57 77" enable-background="new 0 0 57 77" xml:space="preserve">
<line fill="none" stroke="#ED3237" stroke-width="2" stroke-miterlimit="10" x1="1" y1="51.72" x2="57" y2="51.72"/>
<path fill="none" stroke="#ED3237" stroke-width="2" stroke-miterlimit="10" d="M56,19v-3.665C55.563,0.72,40,1,40,1H1v75h55V19z"/>
<polyline fill="none" stroke="#ED3237" stroke-width="2" stroke-miterlimit="10" points="56,19.72 38,19.72 38,0.72 "/>
<g>
	<path fill="#ED3237" d="M20.545,63.453l-2.543-4.197h1.763l1.176,2.087c0.264,0.492,0.527,1.043,0.527,1.043h0.024
		c0,0,0.239-0.54,0.527-1.043l1.188-2.087h1.763l-2.555,4.197l2.651,4.318h-1.728l-1.331-2.291
		c-0.276-0.492-0.528-1.008-0.528-1.008h-0.023c0,0-0.24,0.516-0.516,1.008l-1.319,2.291h-1.715L20.545,63.453z"/>
	<path fill="#ED3237" d="M26.245,59.255h1.547v7.184h3.683v1.331h-5.229V59.255z"/>
	<path fill="#ED3237" d="M32.905,65.588c0.503,0.456,1.318,0.899,2.11,0.899c0.768,0,1.247-0.396,1.247-0.972
		c0-1.619-3.97-1.283-3.97-3.934c0-1.5,1.247-2.471,2.902-2.471c0.888,0,1.823,0.3,2.495,0.912l-0.684,1.259
		c-0.468-0.42-1.199-0.744-1.871-0.744c-0.779,0-1.296,0.384-1.296,0.971c0,1.583,3.971,1.175,3.971,3.886
		c0,1.379-1.008,2.519-2.831,2.519c-1.056,0-2.146-0.396-2.914-1.164L32.905,65.588z"/>
</g>
</svg>
