<?xml version="1.0" standalone="no"?>
<!DOCTYPE svg PUBLIC "-//W3C//DTD SVG 20010904//EN"
 "http://www.w3.org/TR/2001/REC-SVG-20010904/DTD/svg10.dtd">
<svg version="1.0" xmlns="http://www.w3.org/2000/svg"
 width="377.000000pt" height="377.000000pt" viewBox="0 0 377.000000 377.000000"
 preserveAspectRatio="xMidYMid meet">
<metadata>
Created by potrace 1.11, written by Peter Selinger 2001-2013
</metadata>
<g transform="translate(0.000000,377.000000) scale(0.100000,-0.100000)"
fill="#000000" stroke="none">
<path d="M0 1885 l0 -1885 1885 0 1885 0 0 1885 0 1885 -1885 0 -1885 0 0
-1885z m1294 1293 c59 -18 118 -81 139 -148 42 -136 343 -1396 376 -1575 37
-199 38 -200 64 -203 15 -2 27 0 27 4 0 52 103 517 240 1085 191 788 186 774
279 822 l55 27 350 0 c225 0 365 -4 391 -11 52 -15 109 -74 123 -130 10 -38
112 -2332 112 -2521 l0 -68 -283 0 -283 0 -38 998 c-20 548 -40 1057 -43 1130
l-6 133 -36 -3 -36 -3 -211 -867 c-165 -676 -217 -877 -239 -913 -21 -37 -39
-53 -84 -74 -56 -26 -56 -26 -306 -26 -287 0 -327 7 -385 65 -21 21 -45 58
-55 83 -9 25 -111 425 -225 889 l-207 843 -37 3 c-36 3 -36 3 -36 -35 1 -21
-16 -530 -37 -1130 l-37 -1093 -283 0 c-270 0 -283 1 -283 19 0 10 22 585 50
1278 53 1338 51 1316 103 1372 12 13 40 32 62 42 36 17 71 19 389 19 247 0
361 -4 390 -12z"/>
</g>
</svg>
