<?xml version="1.0" encoding="utf-8"?>
<!-- Generator: Adobe Illustrator 21.1.0, SVG Export Plug-In . SVG Version: 6.00 Build 0)  -->
<svg version="1.1" id="Слой_1" xmlns="http://www.w3.org/2000/svg" xmlns:xlink="http://www.w3.org/1999/xlink" x="0px" y="0px"
	 viewBox="0 0 196.987 236.985" enable-background="new 0 0 196.987 236.985" xml:space="preserve">
<g display="none">
</g>
<g display="none">
</g>
<g>
	<path fill="#131F38" d="M56.836,133.342c-1.55-0.302-4.342-3.089-5.276-3.089c-0.928,0-2.474-0.626-3.402-1.24
		c-0.926-0.623-2.781-1.243-3.404-2.173c-0.626-0.938-1.557-2.488-2.174-4.034c-0.616-1.55-0.306-1.55-2.79-4.336
		c-2.471-2.786-1.856-2.166-3.716-3.109c-1.862-0.93-2.484-1.836-4.028-2.469c-1.552-0.633-2.241-1.154-3.412-2.172
		c-0.806-0.706-1.379-0.998-1.777-1.103c3.716,16.304,12.293,30.735,24.11,41.779c1.249,0.336,1.638-0.383,2.781-0.383
		c1.227,0,3.094-1.558,3.094-1.558l-1.242-3.716l1.242-4.642l1.544-4.336C58.386,136.761,58.386,133.665,56.836,133.342z"/>
	<path fill="#131F38" d="M30.501,69.51c0.616-1.558,3.408-5.578,4.96-8.062c1.539-2.476-0.316-1.552-1.866-0.62
		c-1.544,0.93,0.934-2.48,1.866-3.098c0.924-0.622,6.198-4.34,6.198-4.34s1.855-1.86-0.306-5.886c-1.687-3.115,0-3.414,0-4.65
		c0,0-0.227-0.085-0.552-0.128c-9.683,13.131-15.545,29.185-15.97,46.607c0.545-1.302,1.238-4.487,1.026-5.559
		c-0.31-1.552,0.928-5.274,0.928-7.136C26.785,74.778,29.889,71.067,30.501,69.51z"/>
	<path fill="#131F38" d="M77.568,14.63c-9.797,3.776-18.675,9.346-26.257,16.348c-0.15,0.363-0.276,0.705-0.365,1.03
		c-0.314,1.244,2.179,0.31,2.179,0.31l2.783,1.242l3.412-1.242c0,0,0.928-1.862,3.092-3.406c2.176-1.554,1.873-1.862,2.794-3.098
		c0.932-1.238,0,0,4.032-4.334c4.026-4.346,6.196-4.34,6.196-4.34S76.603,15.872,77.568,14.63z"/>
	<path fill="#131F38" d="M93.865,34.93v3.28l5.386-1.242l1.353-1.854l-3.34-4.034l-1.757-3.406l-1.638,1.546v5.531l-4.207-1.191
		l-1.223,2.784l1.219,1.866L93.865,34.93z M91.44,34.751l0.096,0.053l-0.096,0.125V34.751z"/>
	<path fill="#131F38" d="M152.305,89.307c-0.932-1.552-1.849-4.65-2.161-5.892c-0.312-1.231-1.86-4.65-2.181-5.578
		c-0.312-0.926-2.465-3.716-3.092-4.642c-0.62-0.934-2.79-1.558-4.034-2.491c-1.238-0.928-8.982-2.48-8.982-2.48
		s-2.369-1.497-3.089-0.926c-3.109,2.478-10.247,0.926-11.776,0.312c-1.563-0.622-2.495-1.544-2.495-2.478
		c0-0.934-1.403-5.426-1.403-5.426s-3.025,0.541-3.953,0.541c-0.928,0-3.369-0.971-3.369-0.971s-3.083,0.291-4.325,0.915
		c-1.225,0.62-3.705,1.541-4.631,1.854c-0.928,0.31-3.399,0.614-3.399,0.614c-2.792-1.238-4.956,1.856-5.588,3.096
		c-0.607,1.244-1.854,1.862-1.854,3.098c-0.003,1.249-2.173,3.105-3.101,3.72c-0.922,0.624-4.334,2.478-5.262,4.03
		c-0.932,1.546-1.86,3.408-2.17,4.96c-0.304,1.552-0.304,2.788-0.304,4.956c0,2.166-0.312,3.41,0,5.281
		c0.299,1.845,3.402,6.499,4.637,8.049c1.246,1.552,2.798,3.414,4.348,4.338c1.541,0.924,3.722,2.784,3.722,2.784
		s1.234,1.862,3.699,0.932c2.493-0.932,4.966-0.932,7.143-2.166c2.176-1.221,5.582-2.773,5.582-0.924
		c0,1.862,1.231,3.104,3.092,2.489c1.854-0.628,4.949-2.166,4.641,0c-0.297,2.164,0.626,4.956,0.626,6.198
		c0,1.234-0.303,2.469,0.622,3.406c0.922,0.924,3.425,2.487,3.425,3.412c0,0.924,0.303,4.021,0.924,5.266
		c0.633,1.242,1.278,3.104,0.65,4.344c-0.626,1.236-1.819,4.648-1.819,4.648s-0.545,2.784-0.224,3.709
		c0.312,0.938,1.069,2.172,2.621,3.724c1.544,1.544,1.537,3.412,2.467,4.646c0.932,1.248,2.657,4.958,2.657,4.958l1.712,3.102v2.786
		c0,0,5.27-0.924,6.504-1.242c1.24-0.31,4.53-2.482,5.757-3.709c1.232-1.247,0.99-2.172,2.531-3.414
		c1.558-1.24,4.37-3.412,4.37-3.412l-0.299-4.641l3.733-4.964l2.794-2.786c0,0,2.482-3.393,2.166-4.635
		c-0.306-1.24-0.924-7.444-0.924-7.444s1.24-2.786,2.168-4.021c0.921-1.266,0.932-2.805,2.792-4.349
		c1.864-1.552,3.093-3.412,4.021-4.648c0.926-1.24,2.79-3.709,3.414-4.641c0.62-0.93,1.242-3.722,1.266-3.748l-5.589,0.926
		C158.509,97.664,153.235,90.861,152.305,89.307z"/>
	<path fill="#131F38" d="M161.601,130.562c0,0-3.714,1.552-4.036,2.779c-0.314,1.248-0.622,3.104-0.622,3.104
		s-1.541,3.399-1.86,4.652c-0.311,1.228,0.32,3.723,1.246,3.413c0.923-0.318,2.476-2.178,3.406-2.805
		c0.919-0.609,2.471-3.096,2.779-4.331c0.31-1.24,0.921-3.412,1.242-4.648c0.31-1.24,0.622-3.728,0.646-4.646
		c0-0.924-0.312-2.172-0.312-2.172L161.601,130.562z"/>
	<path fill="#131F38" d="M0,1v238.992h197.66V1H0z M106.972,181.351c-49.626,0-90.007-40.379-90.007-90.011
		s40.38-90.007,90.007-90.007c49.632,0,90.015,40.375,90.015,90.007C196.986,140.98,156.603,181.351,106.972,181.351z"/>
	<path fill="#131F38" d="M150.516,21.588c-1.291,0.716-3.538,2.281-4.406,1.405c-0.926-0.928-3.115-2.516-3.115-2.516
		c1.873-1.248-3.709-3.788-3.709-3.788l-6.497-0.438c0,0-3.711,0-4.635,0c-0.945,0-2.805,0.291-4.355,0.291
		c-1.539,0-5.268,2.382-6.502,2.692c-1.229,0.308-4.034,1.896-5.261,1.896c-1.236,0-3.104,2.335-3.104,2.335
		s-2.168,3.966-0.297,3.342c1.849-0.622,4.331-0.652,4.627,0.282c0.325,0.921,0.93,2.45,1.249,3.384
		c0.299,0.928,4.646,1.229,4.646,1.229s0.631-1.55,1.563-2.792c0.919-1.238,1.849-2.788,1.849-2.788s1.55,3.102,1.862,4.03
		c0.299,0.934-0.628,3.716-0.628,3.716s-3.41,2.164-4.347,2.164c-0.932,0-6.204-4.65-6.204-4.65
		c-1.858,0.624-3.404,1.557-3.404,1.557c-2.168,2.172-4.342,4.026-4.342,4.026s-1.871,0.624-3.104,1.552
		c-1.242,0.928-3.915,1.125-4.661,2.164c-1.541,2.17,0.599,3.716,0.599,3.716l-1.907,2.48l-1.334,0.934l-4.53,0.934l-2.722,0.458
		c0.31,0.928-0.314,3.874-0.314,3.874v5.257c0,0,4.49,1.236,5.424,1.236c0.928,0,3.256,0.318,4.5-0.926
		c1.225-1.238,3.252-4.028,3.868-4.954c0.616-0.932,1.484-1.856,3.352-2.48c1.854-0.616,2.146-1.544,3.079-1.854
		c0.926-0.314,4.659-0.934,4.659-0.934s2.324,1.557,3.239,2.172c0.438,0.297-2.717,1.266,3.637,2.206v2.444l3.799-0.31l-2.198-2.478
		l-0.316-0.081l-3.592-3.637l-0.263-2.788c0,0,3.818,2.174,5.065,2.788c1.234,0.618,3.878,2.472,3.878,2.472l1.836,4.348
		l2.474,3.021c-0.828-1.033-2.876-3.955,0.327-3.955c0,0,2.944,0.31,3.87,0c0.934-0.308,1.779-0.611,3.002-1.236
		c1.24-0.62-0.477-2.788,0.744-4.338c1.251-1.548,2.861-2.172,3.784-2.476c0.943-0.31,4.062-1.862,4.062-1.862l3.433,0.622
		c-1.542,1.24-3.393,3.094-2.159,2.79c1.229-0.312,4.039,1.24,5.266,2.166c1.249,0.928,0.318,3.098,0.318,3.098
		s-3.404-0.31-5.571-0.62c-2.185-0.306-5.591,0.31-5.591,0.31l-2.784,1.546c0,0-1.862,0.62-1.552,2.164
		c0.312,1.552,1.552,3.419,2.792,4.962c1.231,1.556,2.161,3.412,3.091,2.79c0.936-0.622,4.039-2.478,4.039-2.478
		s-0.626,2.166-0.318,3.716c0.318,1.546,0.318,3.716,0.318,3.716s-3.108,0-2.179,0.629c0.921,0.603,2.241,2.955,2.781,3.718
		c3.104,4.331,9.603,13.937,10.23,15.175c0.601,1.248,0.325,3.134,1.236,4.03c1.847,1.862,5.571,0,6.495-0.616
		c0.938-0.609,4.026-2.172,4.96-3.1c0.941-0.928,0.624-0.624,2.488-1.854c1.854-1.238,3.094-2.176,2.164-3.104
		c-0.926-0.926-2.779-4.336-2.779-4.336c-2.807,0.62-5.586-0.928-5.586-1.854c0-0.928-2.48-4.644-2.48-4.644s0.308-0.618,2.48,0.614
		c2.179,1.24,4.026,3.722,5.896,3.722c1.854,0,2.777,0.618,4.951,1.862c2.17,1.234,3.102,2.782,4.334,3.406
		c1.244,0.624,3.104,3.102,3.104,3.102s1.862,4.336,2.164,5.584c0.212,0.814,1.082,2.683,1.676,4.16
		c0.086-1.558,0.231-3.123,0.231-4.699C189.214,61.945,173.708,36.149,150.516,21.588z"/>
</g>
<g id="_x32_0._1_" display="none">
	<g display="inline">
		<defs>
			<path id="SVGID_1_" d="M107.025,181.134c-49.626,0-90.007-40.379-90.007-90.011s40.38-90.007,90.007-90.007
				c49.632,0,90.015,40.375,90.015,90.007C197.039,140.763,156.656,181.134,107.025,181.134L107.025,181.134z M156.382,144.293
				c0.923-0.318,2.476-2.178,3.406-2.805c0.919-0.609,2.471-3.096,2.779-4.331c0.31-1.24,0.921-3.412,1.242-4.648
				c0.31-1.24,0.622-3.728,0.646-4.646c0-0.924-0.312-2.172-0.312-2.172l-2.489,4.654c0,0-3.714,1.552-4.036,2.779
				c-0.314,1.248-0.622,3.104-0.622,3.104s-1.541,3.399-1.86,4.652C154.825,142.108,155.456,144.603,156.382,144.293
				L156.382,144.293z M41.406,47.287c-1.687-3.115,0-3.414,0-4.65c0,0-0.227-0.085-0.552-0.128
				c-9.683,13.131-15.545,29.185-15.97,46.607c0.545-1.302,1.238-4.487,1.026-5.559c-0.31-1.552,0.928-5.274,0.928-7.136
				c0-1.86,3.104-5.571,3.716-7.128c0.616-1.558,3.408-5.578,4.96-8.062c1.539-2.476-0.316-1.552-1.866-0.62
				c-1.544,0.93,0.934-2.48,1.866-3.098c0.924-0.622,6.198-4.34,6.198-4.34S43.567,51.313,41.406,47.287L41.406,47.287z
				 M44.807,126.623c-0.626-0.938-1.557-2.488-2.174-4.034c-0.616-1.55-0.306-1.55-2.79-4.336c-2.471-2.786-1.856-2.166-3.716-3.109
				c-1.862-0.93-2.484-1.836-4.028-2.469c-1.552-0.633-2.241-1.154-3.412-2.172c-0.806-0.706-1.379-0.998-1.777-1.103
				c3.716,16.304,12.293,30.735,24.11,41.779c1.249,0.336,1.638-0.383,2.781-0.383c1.227,0,3.094-1.558,3.094-1.558l-1.242-3.716
				l1.242-4.642l1.544-4.336c0,0,0-3.096-1.55-3.419c-1.55-0.302-4.342-3.089-5.276-3.089c-0.928,0-2.474-0.626-3.402-1.24
				C47.285,128.173,45.43,127.553,44.807,126.623L44.807,126.623z M51.364,30.761c-0.15,0.363-0.276,0.705-0.365,1.03
				c-0.314,1.244,2.179,0.31,2.179,0.31l2.783,1.242l3.412-1.242c0,0,0.928-1.862,3.092-3.406c2.176-1.554,1.873-1.862,2.794-3.098
				c0.932-1.238,0,0,4.032-4.334c4.026-4.346,6.196-4.34,6.196-4.34s1.169-1.268,2.134-2.51
				C67.824,18.189,58.946,23.759,51.364,30.761L51.364,30.761z M82.925,72.356c-0.922,0.624-4.334,2.478-5.262,4.03
				c-0.932,1.546-1.86,3.408-2.17,4.96c-0.304,1.552-0.304,2.788-0.304,4.956c0,2.166-0.312,3.41,0,5.281
				c0.299,1.845,3.402,6.499,4.637,8.049c1.246,1.552,2.798,3.414,4.348,4.338c1.541,0.924,3.722,2.784,3.722,2.784
				s1.234,1.862,3.699,0.932c2.493-0.932,4.966-0.932,7.143-2.166c2.176-1.221,5.582-2.773,5.582-0.924
				c0,1.862,1.231,3.104,3.092,2.489c1.854-0.628,4.949-2.166,4.641,0c-0.297,2.164,0.626,4.956,0.626,6.198
				c0,1.234-0.303,2.469,0.622,3.406c0.922,0.924,3.425,2.487,3.425,3.412c0,0.924,0.303,4.021,0.924,5.266
				c0.633,1.242,1.278,3.104,0.65,4.344c-0.626,1.236-1.819,4.648-1.819,4.648s-0.545,2.784-0.224,3.709
				c0.312,0.938,1.069,2.172,2.621,3.724c1.544,1.544,1.537,3.412,2.467,4.646c0.932,1.248,2.657,4.958,2.657,4.958l1.712,3.102
				v2.786c0,0,5.27-0.924,6.504-1.242c1.24-0.31,4.53-2.482,5.757-3.709c1.232-1.247,0.99-2.172,2.531-3.414
				c1.558-1.24,4.37-3.412,4.37-3.412l-0.299-4.641l3.733-4.964l2.794-2.786c0,0,2.482-3.393,2.166-4.635
				c-0.306-1.24-0.924-7.444-0.924-7.444s1.24-2.786,2.168-4.021c0.921-1.266,0.932-2.805,2.792-4.349
				c1.864-1.552,3.093-3.412,4.021-4.648c0.926-1.24,2.79-3.709,3.414-4.641c0.62-0.93,1.242-3.722,1.266-3.748l-5.589,0.926
				c-1.856-3.109-7.13-9.912-8.06-11.466c-0.932-1.552-1.849-4.65-2.161-5.892c-0.312-1.231-1.86-4.65-2.181-5.578
				c-0.312-0.926-2.465-3.716-3.092-4.642c-0.62-0.934-2.79-1.558-4.034-2.491c-1.238-0.928-8.982-2.48-8.982-2.48
				s-2.369-1.497-3.089-0.926c-3.109,2.478-10.247,0.926-11.776,0.312c-1.563-0.622-2.495-1.544-2.495-2.478
				c0-0.934-1.403-5.426-1.403-5.426s-3.025,0.541-3.953,0.541s-3.369-0.971-3.369-0.971s-3.083,0.291-4.325,0.915
				c-1.225,0.62-3.705,1.541-4.631,1.854c-0.928,0.31-3.399,0.614-3.399,0.614c-2.792-1.238-4.956,1.856-5.588,3.096
				c-0.607,1.244-1.854,1.862-1.854,3.098C86.023,69.885,83.853,71.741,82.925,72.356L82.925,72.356z M97.317,30.863l-1.757-3.406
				l-1.638,1.546v5.531l-4.207-1.191l-1.223,2.784l1.219,1.866l4.207-3.28v3.28l5.386-1.242l1.353-1.854L97.317,30.863
				L97.317,30.863z M150.569,21.371c-1.291,0.716-3.538,2.281-4.406,1.405c-0.926-0.928-3.115-2.516-3.115-2.516
				c1.873-1.248-3.709-3.788-3.709-3.788l-6.497-0.438c0,0-3.711,0-4.635,0c-0.945,0-2.805,0.291-4.355,0.291
				c-1.539,0-5.268,2.382-6.502,2.692c-1.229,0.308-4.034,1.896-5.261,1.896c-1.236,0-3.104,2.335-3.104,2.335
				s-2.168,3.966-0.297,3.342c1.849-0.622,4.331-0.652,4.627,0.282c0.325,0.921,0.93,2.45,1.249,3.384
				c0.299,0.928,4.646,1.229,4.646,1.229s0.631-1.55,1.563-2.792c0.919-1.238,1.849-2.788,1.849-2.788s1.55,3.102,1.862,4.03
				c0.299,0.934-0.628,3.716-0.628,3.716s-3.41,2.164-4.347,2.164c-0.932,0-6.204-4.65-6.204-4.65
				c-1.858,0.624-3.404,1.557-3.404,1.557c-2.168,2.172-4.342,4.026-4.342,4.026s-1.871,0.624-3.104,1.552
				c-1.242,0.928-3.915,1.125-4.661,2.164c-1.541,2.17,0.599,3.716,0.599,3.716l-1.907,2.48l-1.334,0.934l-4.53,0.934L87.9,48.986
				c0.31,0.928-0.314,3.874-0.314,3.874v5.257c0,0,4.49,1.236,5.424,1.236c0.928,0,3.256,0.318,4.5-0.926
				c1.225-1.238,3.252-4.028,3.868-4.954c0.616-0.932,1.484-1.856,3.352-2.48c1.854-0.616,2.146-1.544,3.079-1.854
				c0.926-0.314,4.659-0.934,4.659-0.934s2.324,1.557,3.239,2.172c0.438,0.297-2.717,1.266,3.637,2.206v2.444l3.799-0.31
				l-2.198-2.478l-0.316-0.081l-3.592-3.637l-0.263-2.788c0,0,3.818,2.174,5.065,2.788c1.234,0.618,3.878,2.472,3.878,2.472
				l1.836,4.348l2.474,3.021c-0.828-1.033-2.876-3.955,0.327-3.955c0,0,2.944,0.31,3.87,0c0.934-0.308,1.779-0.611,3.002-1.236
				c1.24-0.62-0.477-2.788,0.744-4.338c1.251-1.548,2.861-2.172,3.784-2.476c0.943-0.31,4.062-1.862,4.062-1.862l3.433,0.622
				c-1.542,1.24-3.393,3.094-2.159,2.79c1.229-0.312,4.039,1.24,5.266,2.166c1.249,0.928,0.318,3.098,0.318,3.098
				s-3.404-0.31-5.571-0.62c-2.185-0.306-5.591,0.31-5.591,0.31l-2.784,1.546c0,0-1.862,0.62-1.552,2.164
				c0.312,1.552,1.552,3.419,2.792,4.962c1.231,1.556,2.161,3.412,3.091,2.79c0.936-0.622,4.039-2.478,4.039-2.478
				s-0.626,2.166-0.318,3.716c0.318,1.546,0.318,3.716,0.318,3.716s-3.108,0-2.179,0.629c0.921,0.603,2.241,2.955,2.781,3.718
				c3.104,4.331,9.603,13.937,10.23,15.175c0.601,1.248,0.325,3.134,1.236,4.03c1.847,1.862,5.571,0,6.495-0.616
				c0.938-0.609,4.026-2.172,4.96-3.1c0.941-0.928,0.624-0.624,2.488-1.854c1.854-1.238,3.094-2.176,2.164-3.104
				c-0.926-0.926-2.779-4.336-2.779-4.336c-2.807,0.62-5.586-0.928-5.586-1.854c0-0.928-2.48-4.644-2.48-4.644
				s0.308-0.618,2.48,0.614c2.179,1.24,4.026,3.722,5.896,3.722c1.854,0,2.777,0.618,4.951,1.862
				c2.17,1.234,3.102,2.782,4.334,3.406c1.244,0.624,3.104,3.102,3.104,3.102s1.862,4.336,2.164,5.584
				c0.212,0.814,1.082,2.683,1.676,4.16c0.086-1.558,0.231-3.123,0.231-4.699C189.267,61.728,173.761,35.932,150.569,21.371
				L150.569,21.371z M91.493,34.712v-0.178l0.096,0.053L91.493,34.712L91.493,34.712z"/>
		</defs>
		<linearGradient id="SVGID_2_" gradientUnits="userSpaceOnUse" x1="17.0185" y1="91.1248" x2="197.0405" y2="91.1248">
			<stop  offset="0" style="stop-color:#EC3338"/>
			<stop  offset="1" style="stop-color:#121F38"/>
		</linearGradient>
		<use xlink:href="#SVGID_1_"  overflow="visible" fill="url(#SVGID_2_)"/>
		<clipPath id="SVGID_3_">
			<use xlink:href="#SVGID_1_"  overflow="visible"/>
		</clipPath>
		<g clip-path="url(#SVGID_3_)">
		</g>
	</g>
</g>
<g id="_x32_0-3." display="none">
	<g display="inline">
		<g>
			<defs>
				<path id="SVGID_4_" d="M8.051,207.662v-8.368h-5.15v8.368h-1.46v-9.633h8.086v9.633H8.051L8.051,207.662z M20.043,206.523
					c-0.705,0.876-1.685,1.315-2.938,1.315c-0.627,0-1.201-0.116-1.719-0.348c-0.519-0.231-0.953-0.588-1.306-1.069h-0.105
					c0.071,0.564,0.105,1.097,0.105,1.601v3.964h-1.458v-13.958h1.186l0.203,1.319h0.07c0.376-0.528,0.812-0.909,1.31-1.144
					c0.498-0.233,1.071-0.351,1.715-0.351c1.278,0,2.262,0.438,2.957,1.31c0.693,0.874,1.041,2.099,1.041,3.675
					C21.103,204.419,20.749,205.647,20.043,206.523L20.043,206.523z M18.884,200.054c-0.472-0.641-1.135-0.962-1.992-0.962
					c-0.984,0-1.695,0.272-2.134,0.817c-0.44,0.545-0.665,1.413-0.678,2.602v0.325c0,1.353,0.225,2.322,0.678,2.905
					c0.451,0.582,1.174,0.874,2.17,0.874c0.832,0,1.484-0.336,1.956-1.011c0.472-0.673,0.708-1.603,0.708-2.786
					C19.592,201.617,19.355,200.697,18.884,200.054L18.884,200.054z M24.627,203.109c0.03,1.131,0.316,1.99,0.857,2.574
					c0.543,0.586,1.306,0.879,2.29,0.879c1.037,0,2.063-0.216,3.076-0.65v1.3c-0.515,0.224-1.003,0.383-1.464,0.479
					c-0.46,0.098-1.015,0.147-1.665,0.147c-1.424,0-2.548-0.434-3.371-1.302c-0.823-0.866-1.236-2.07-1.236-3.611
					c0-1.554,0.383-2.786,1.148-3.701c0.765-0.913,1.79-1.372,3.081-1.372c1.206,0,2.161,0.398,2.865,1.191
					c0.703,0.795,1.054,1.841,1.054,3.143v0.922L24.627,203.109L24.627,203.109z M29.084,199.808
					c-0.41-0.488-0.996-0.733-1.759-0.733c-0.772,0-1.39,0.252-1.849,0.755c-0.46,0.504-0.733,1.201-0.814,2.091h5.035
					C29.698,201.003,29.493,200.299,29.084,199.808L29.084,199.808z M40.702,210.993v-3.331H33.97v3.331h-1.407v-4.588h0.757
					c0.785-1.067,1.4-2.317,1.845-3.752c0.445-1.437,0.676-2.978,0.695-4.624h4.877v8.376h1.379v4.588L40.702,210.993
					L40.702,210.993z M39.331,199.181H37.17c-0.077,1.3-0.327,2.617-0.751,3.949c-0.425,1.334-0.954,2.426-1.588,3.275h4.5
					L39.331,199.181L39.331,199.181z M50.019,199.594c-0.323-0.13-0.674-0.237-1.054-0.321c-0.381-0.085-0.718-0.128-1.011-0.128
					c-1.958,0-2.937,1.248-2.937,3.744c0,1.184,0.239,2.091,0.716,2.724c0.479,0.633,1.186,0.949,2.123,0.949
					c0.802,0,1.627-0.173,2.471-0.519v1.293c-0.644,0.334-1.456,0.502-2.435,0.502c-1.394,0-2.474-0.43-3.239-1.289
					c-0.765-0.859-1.146-2.072-1.146-3.643c0-1.61,0.387-2.856,1.163-3.735c0.778-0.879,1.883-1.319,3.318-1.319
					c0.464,0,0.926,0.051,1.388,0.15c0.464,0.1,0.827,0.216,1.092,0.351L50.019,199.594L50.019,199.594z M55.978,199.276v8.385
					h-1.46v-8.385h-3.094v-1.248h7.682v1.248H55.978L55.978,199.276z M66.937,207.662l-0.289-1.372h-0.071
					c-0.479,0.603-0.958,1.013-1.435,1.227c-0.479,0.214-1.075,0.321-1.789,0.321c-0.956,0-1.704-0.246-2.247-0.738
					c-0.541-0.492-0.812-1.193-0.812-2.1c0-1.946,1.556-2.965,4.667-3.059l1.635-0.053v-0.599c0-0.755-0.163-1.313-0.488-1.674
					s-0.845-0.539-1.559-0.539c-0.804,0-1.712,0.246-2.724,0.738l-0.449-1.118c0.475-0.257,0.994-0.458,1.559-0.605
					c0.565-0.147,1.133-0.22,1.702-0.22c1.148,0,1.999,0.254,2.553,0.765c0.552,0.509,0.83,1.326,0.83,2.452v6.574L66.937,207.662
					L66.937,207.662z M66.56,202.925l-1.46,0.06c-1.159,0.041-1.995,0.222-2.508,0.541s-0.768,0.815-0.768,1.49
					c0,0.528,0.16,0.928,0.479,1.204c0.318,0.274,0.765,0.413,1.34,0.413c0.907,0,1.621-0.25,2.14-0.748s0.778-1.195,0.778-2.091
					L66.56,202.925L66.56,202.925z M76.782,202.529v0.079c0.819,0.111,1.419,0.351,1.796,0.721c0.378,0.368,0.567,0.879,0.567,1.529
					c0,0.896-0.329,1.588-0.988,2.074c-0.659,0.487-1.621,0.729-2.888,0.729h-4.246v-9.633h4.229c2.39,0,3.585,0.806,3.585,2.416
					c0,0.628-0.18,1.103-0.539,1.43C77.938,202.2,77.432,202.418,76.782,202.529L76.782,202.529z M72.484,206.44h2.681
					c1.682,0,2.521-0.56,2.521-1.68c0-0.52-0.197-0.9-0.592-1.139c-0.396-0.237-1.05-0.355-1.965-0.355h-2.645L72.484,206.44
					L72.484,206.44z M76.874,199.588c-0.361-0.195-0.907-0.295-1.64-0.295h-2.751v2.717h2.471c0.902,0,1.537-0.111,1.907-0.334
					c0.368-0.222,0.552-0.586,0.552-1.09C77.414,200.118,77.235,199.786,76.874,199.588L76.874,199.588z M88.217,207.662v-5.888
					l0.026-1.161l0.043-1.142l-5.202,8.191h-1.821v-9.633h1.371v6.108l-0.062,1.601l-0.026,0.5l5.212-8.208h1.821v9.633
					L88.217,207.662L88.217,207.662z M96.038,199.276v8.385H94.58v-8.385h-3.094v-1.248h7.682v1.248H96.038L96.038,199.276z
					 M102.05,203.109c0.03,1.131,0.316,1.99,0.857,2.574c0.543,0.586,1.306,0.879,2.29,0.879c1.037,0,2.061-0.216,3.076-0.65v1.3
					c-0.515,0.224-1.003,0.383-1.464,0.479c-0.46,0.098-1.015,0.147-1.665,0.147c-1.424,0-2.548-0.434-3.371-1.302
					c-0.825-0.866-1.236-2.07-1.236-3.611c0-1.554,0.383-2.786,1.148-3.701c0.765-0.913,1.79-1.372,3.081-1.372
					c1.206,0,2.161,0.398,2.865,1.191c0.703,0.795,1.054,1.841,1.054,3.143v0.922L102.05,203.109L102.05,203.109z M106.507,199.808
					c-0.411-0.488-0.996-0.733-1.759-0.733c-0.774,0-1.39,0.252-1.851,0.755c-0.458,0.504-0.731,1.201-0.812,2.091h5.035
					C107.121,201.003,106.916,200.299,106.507,199.808L106.507,199.808z M116.877,207.662v-8.385h-2.891
					c-0.158,2.085-0.378,3.741-0.659,4.966c-0.282,1.225-0.646,2.121-1.094,2.69c-0.449,0.567-1.018,0.851-1.71,0.851
					c-0.318,0-0.569-0.034-0.757-0.105v-1.08c0.13,0.036,0.276,0.053,0.44,0.053c0.674,0,1.21-0.712,1.608-2.136
					s0.701-3.585,0.906-6.486h5.634v9.633L116.877,207.662L116.877,207.662z M128.607,206.906c-0.643,0.504-1.582,0.755-2.818,0.755
					h-4.342v-9.633h1.46v3.981h2.97c2.461,0,3.692,0.906,3.692,2.717C129.569,205.676,129.247,206.403,128.607,206.906
					L128.607,206.906z M127.543,203.641c-0.378-0.25-1.001-0.374-1.868-0.374h-2.769v3.173h2.813c0.774,0,1.366-0.135,1.775-0.404
					c0.41-0.271,0.614-0.678,0.614-1.223C128.109,204.282,127.921,203.889,127.543,203.641L127.543,203.641z M138.076,199.594
					c-0.321-0.13-0.673-0.237-1.054-0.321c-0.381-0.085-0.718-0.128-1.011-0.128c-1.958,0-2.935,1.248-2.935,3.744
					c0,1.184,0.239,2.091,0.716,2.724s1.186,0.949,2.123,0.949c0.802,0,1.625-0.173,2.469-0.519v1.293
					c-0.644,0.334-1.456,0.502-2.435,0.502c-1.394,0-2.474-0.43-3.239-1.289c-0.765-0.859-1.146-2.072-1.146-3.643
					c0-1.61,0.387-2.856,1.165-3.735c0.776-0.879,1.883-1.319,3.318-1.319c0.462,0,0.924,0.051,1.388,0.15
					c0.462,0.1,0.827,0.216,1.09,0.351L138.076,199.594L138.076,199.594z M144.035,199.276v8.385h-1.46v-8.385h-3.093v-1.248h7.681
					v1.248H144.035L144.035,199.276z M154.829,202.529v0.079c0.819,0.111,1.418,0.351,1.796,0.721
					c0.378,0.368,0.567,0.879,0.567,1.529c0,0.896-0.329,1.588-0.988,2.074c-0.659,0.487-1.621,0.729-2.888,0.729h-4.244v-9.633
					h4.227c2.39,0,3.585,0.806,3.585,2.416c0,0.628-0.18,1.103-0.539,1.43C155.984,202.2,155.479,202.418,154.829,202.529
					L154.829,202.529z M150.53,206.44h2.681c1.681,0,2.523-0.56,2.523-1.68c0-0.52-0.199-0.9-0.594-1.139
					c-0.396-0.237-1.05-0.355-1.965-0.355h-2.645V206.44L150.53,206.44z M154.921,199.588c-0.361-0.195-0.907-0.295-1.64-0.295
					h-2.751v2.717h2.471c0.902,0,1.537-0.111,1.907-0.334c0.368-0.222,0.554-0.586,0.554-1.09
					C155.462,200.118,155.282,199.786,154.921,199.588L154.921,199.588z M8.051,232.661v-8.366h-5.15v8.366h-1.46v-9.633h8.086
					v9.633H8.051L8.051,232.661z M19.75,231.515c-0.791,0.881-1.884,1.323-3.278,1.323c-0.862,0-1.627-0.203-2.294-0.607
					c-0.669-0.404-1.184-0.984-1.546-1.74c-0.364-0.755-0.547-1.64-0.547-2.655c0-1.571,0.393-2.794,1.178-3.669
					c0.785-0.876,1.875-1.313,3.271-1.313c1.347,0,2.418,0.447,3.211,1.343c0.795,0.898,1.191,2.11,1.191,3.639
					C20.935,229.407,20.541,230.633,19.75,231.515L19.75,231.515z M18.681,225.046c-0.494-0.635-1.225-0.954-2.193-0.954
					c-0.954,0-1.676,0.314-2.162,0.941c-0.487,0.628-0.729,1.561-0.729,2.803c0,1.231,0.246,2.168,0.738,2.813
					c0.492,0.644,1.216,0.968,2.172,0.968c0.954,0,1.68-0.321,2.174-0.962c0.496-0.643,0.744-1.582,0.744-2.818
					C19.425,226.611,19.177,225.681,18.681,225.046L18.681,225.046z M33.925,227.528v0.081c0.821,0.111,1.42,0.351,1.798,0.72
					c0.378,0.37,0.567,0.879,0.567,1.529c0,0.896-0.331,1.588-0.988,2.074c-0.659,0.487-1.623,0.729-2.888,0.729h-4.246v-9.633
					h4.227c2.392,0,3.587,0.806,3.587,2.418c0,0.627-0.18,1.103-0.541,1.428C35.083,227.199,34.577,227.417,33.925,227.528
					L33.925,227.528z M29.628,231.439h2.681c1.681,0,2.521-0.56,2.521-1.678c0-0.522-0.197-0.902-0.592-1.139
					c-0.396-0.237-1.052-0.357-1.965-0.357h-2.645L29.628,231.439L29.628,231.439z M34.019,224.589
					c-0.361-0.197-0.907-0.295-1.64-0.295h-2.751v2.715h2.469c0.904,0,1.539-0.111,1.909-0.333c0.368-0.224,0.552-0.586,0.552-1.09
					C34.558,225.117,34.378,224.785,34.019,224.589L34.019,224.589z M44.384,224.593c-0.321-0.13-0.673-0.235-1.054-0.321
					c-0.381-0.085-0.718-0.128-1.011-0.128c-1.958,0-2.935,1.249-2.935,3.744c0,1.184,0.239,2.093,0.716,2.724
					c0.477,0.633,1.186,0.951,2.123,0.951c0.802,0,1.625-0.173,2.469-0.519v1.291c-0.644,0.334-1.456,0.502-2.435,0.502
					c-1.394,0-2.474-0.428-3.239-1.287c-0.765-0.859-1.146-2.074-1.146-3.643c0-1.612,0.387-2.858,1.165-3.737
					c0.776-0.877,1.883-1.317,3.318-1.317c0.462,0,0.924,0.049,1.388,0.148c0.462,0.1,0.827,0.218,1.09,0.351L44.384,224.593
					L44.384,224.593z M47.954,228.108c0.028,1.131,0.314,1.99,0.857,2.576c0.541,0.586,1.304,0.879,2.288,0.879
					c1.037,0,2.063-0.218,3.077-0.65v1.3c-0.517,0.222-1.003,0.381-1.464,0.479c-0.46,0.096-1.016,0.145-1.666,0.145
					c-1.424,0-2.548-0.434-3.371-1.3c-0.823-0.868-1.234-2.072-1.234-3.613c0-1.552,0.381-2.786,1.146-3.699
					c0.765-0.915,1.792-1.372,3.081-1.372c1.208,0,2.162,0.396,2.865,1.191c0.703,0.793,1.056,1.841,1.056,3.141v0.923
					L47.954,228.108L47.954,228.108z M52.409,224.809c-0.41-0.49-0.996-0.735-1.757-0.735c-0.774,0-1.39,0.252-1.851,0.755
					c-0.46,0.505-0.731,1.202-0.814,2.093h5.037C53.025,226.002,52.82,225.298,52.409,224.809L52.409,224.809z M65.9,232.661v-7.953
					l-0.175,0.509l-0.511,1.345l-2.488,6.099h-1.221l-2.488-6.115c-0.31-0.785-0.524-1.398-0.641-1.837v7.953h-1.302v-9.614h1.785
					l2.523,6.108c0.252,0.644,0.483,1.345,0.693,2.101l0.272-0.817l0.378-1.037l2.612-6.354h1.854v9.614H65.9V232.661z
					 M73.671,233.998c-0.411,1.082-0.891,1.852-1.437,2.307c-0.549,0.453-1.221,0.68-2.018,0.68c-0.445,0-0.885-0.049-1.319-0.148
					v-1.17c0.323,0.071,0.684,0.105,1.082,0.105c1.001,0,1.717-0.562,2.144-1.687l0.537-1.37l-3.885-9.687h1.565l2.108,5.494
					c0.464,1.255,0.752,2.159,0.862,2.717h0.069c0.077-0.299,0.237-0.812,0.479-1.535c0.244-0.723,1.039-2.948,2.386-6.675h1.565
					L73.671,233.998L73.671,233.998z M92.874,232.661v-7.953l-0.175,0.509l-0.511,1.345l-2.488,6.099h-1.22l-2.487-6.115
					c-0.31-0.785-0.524-1.398-0.641-1.837v7.953H84.05v-9.614h1.785l2.523,6.108c0.252,0.644,0.483,1.345,0.693,2.101l0.272-0.817
					l0.378-1.037l2.612-6.354h1.854v9.614h-1.293V232.661z M104.229,232.661v-5.888l0.026-1.159l0.045-1.142l-5.204,8.19h-1.819
					v-9.633h1.371v6.11l-0.062,1.599l-0.026,0.502l5.212-8.21h1.819v9.633h-1.362V232.661z M116.109,231.524
					c-0.706,0.876-1.687,1.313-2.94,1.313c-0.628,0-1.201-0.116-1.719-0.348c-0.519-0.231-0.952-0.586-1.306-1.067h-0.105
					c0.071,0.562,0.105,1.095,0.105,1.599v3.964h-1.458v-13.958h1.186l0.203,1.319h0.069c0.376-0.528,0.812-0.907,1.311-1.142
					c0.498-0.235,1.069-0.351,1.714-0.351c1.278,0,2.262,0.436,2.957,1.309c0.693,0.874,1.041,2.097,1.041,3.673
					C117.167,229.418,116.814,230.647,116.109,231.524L116.109,231.524z M114.948,225.055c-0.472-0.643-1.135-0.964-1.992-0.964
					c-0.983,0-1.695,0.272-2.134,0.817c-0.44,0.545-0.665,1.413-0.678,2.602v0.325c0,1.355,0.227,2.322,0.678,2.905
					c0.451,0.584,1.174,0.876,2.17,0.876c0.832,0,1.484-0.338,1.956-1.011c0.472-0.674,0.708-1.603,0.708-2.786
					C115.656,226.619,115.42,225.696,114.948,225.055L114.948,225.055z M123.083,233.998c-0.411,1.082-0.891,1.852-1.437,2.307
					c-0.549,0.453-1.221,0.68-2.018,0.68c-0.445,0-0.885-0.049-1.319-0.148v-1.17c0.323,0.071,0.684,0.105,1.082,0.105
					c1.001,0,1.717-0.562,2.144-1.687l0.537-1.37l-3.885-9.687h1.565l2.108,5.494c0.464,1.255,0.75,2.159,0.862,2.717h0.069
					c0.077-0.299,0.237-0.812,0.479-1.535c0.244-0.723,1.039-2.948,2.386-6.675h1.565L123.083,233.998L123.083,233.998z"/>
			</defs>
			<use xlink:href="#SVGID_4_"  overflow="visible" fill="#FFFFFF"/>
			<clipPath id="SVGID_5_">
				<use xlink:href="#SVGID_4_"  overflow="visible"/>
			</clipPath>
			<g clip-path="url(#SVGID_5_)">
			</g>
		</g>
	</g>
	<g display="inline">
		<g>
			<defs>
				<path id="SVGID_6_" d="M5.377,75.959c4.688,0,7.03,1.742,7.03,5.225c0,3.581-2.294,5.371-6.884,5.371H0.334V68.708h10.889v2.503
					H3.252v4.748H5.377L5.377,75.959z M3.252,84.101h2.101c1.4,0,2.424-0.231,3.076-0.69c0.65-0.46,0.977-1.202,0.977-2.228
					c0-0.984-0.329-1.695-0.983-2.13c-0.656-0.436-1.798-0.654-3.425-0.654H3.252V84.101L3.252,84.101z M25.933,84.943
					c-1.131,1.236-2.705,1.856-4.723,1.856c-1.263,0-2.377-0.286-3.346-0.855c-0.968-0.569-1.713-1.388-2.234-2.454
					c-0.52-1.067-0.782-2.303-0.782-3.711c0-2.189,0.562-3.898,1.685-5.127c1.124-1.229,2.705-1.843,4.75-1.843
					c1.952,0,3.498,0.628,4.639,1.886c1.139,1.257,1.708,2.952,1.708,5.084C27.629,81.986,27.064,83.707,25.933,84.943
					L25.933,84.943z M21.234,75.153c-1.206,0-2.078,0.398-2.619,1.197c-0.541,0.797-0.812,1.941-0.812,3.431
					c0,3.117,1.152,4.674,3.455,4.674c2.277,0,3.418-1.557,3.418-4.674C24.676,76.695,23.528,75.153,21.234,75.153L21.234,75.153z
					 M39.13,86.555V75.299h-3.724c-0.227,2.897-0.535,5.159-0.923,6.788c-0.385,1.627-0.891,2.814-1.512,3.564
					c-0.624,0.748-1.432,1.124-2.424,1.124c-0.628,0-1.152-0.09-1.574-0.269v-2.247c0.301,0.115,0.601,0.171,0.904,0.171
					c0.829,0,1.482-0.934,1.958-2.801c0.477-1.867,0.849-4.725,1.118-8.575h9.069v13.501H39.13L39.13,86.555z M48.272,80.451
					c0.041,1.31,0.395,2.318,1.062,3.021c0.667,0.705,1.608,1.056,2.82,1.056c0.798,0,1.541-0.075,2.228-0.225
					c0.688-0.15,1.426-0.4,2.215-0.752v2.332c-0.699,0.334-1.407,0.571-2.123,0.708C53.756,86.73,52.939,86.8,52.02,86.8
					c-2.1,0-3.743-0.613-4.926-1.837c-1.184-1.225-1.775-2.912-1.775-5.06c0-2.206,0.549-3.94,1.648-5.201
					c1.099-1.263,2.608-1.892,4.528-1.892c1.783,0,3.19,0.541,4.223,1.623s1.552,2.572,1.552,4.468v1.55L48.272,80.451
					L48.272,80.451z M53.643,75.842c-0.52-0.573-1.238-0.861-2.149-0.861s-1.642,0.289-2.191,0.868
					c-0.549,0.577-0.877,1.419-0.983,2.525h6.129C54.432,77.261,54.164,76.417,53.643,75.842L53.643,75.842z M62.676,80.451
					c0.039,1.31,0.395,2.318,1.062,3.021c0.667,0.705,1.608,1.056,2.82,1.056c0.797,0,1.541-0.075,2.228-0.225
					c0.688-0.15,1.426-0.4,2.215-0.752v2.332c-0.701,0.334-1.407,0.571-2.125,0.708C68.16,86.73,67.343,86.8,66.424,86.8
					c-2.1,0-3.743-0.613-4.926-1.837c-1.184-1.225-1.775-2.912-1.775-5.06c0-2.206,0.549-3.94,1.648-5.201
					c1.097-1.263,2.608-1.892,4.528-1.892c1.783,0,3.19,0.541,4.224,1.623c1.033,1.082,1.55,2.572,1.55,4.468v1.55L62.676,80.451
					L62.676,80.451z M68.048,75.842c-0.522-0.573-1.238-0.861-2.149-0.861s-1.642,0.289-2.191,0.868
					c-0.549,0.577-0.877,1.419-0.983,2.525h6.127C68.837,77.261,68.568,76.417,68.048,75.842L68.048,75.842z M48.381,156.91v14.645
					H0.72v-11.68l16.037-16.218c4.581-4.791,7.575-8.062,8.984-9.815c1.407-1.751,2.388-3.256,2.942-4.515
					c0.552-1.257,0.83-2.576,0.83-3.953c0-1.706-0.554-3.055-1.663-4.043c-1.108-0.988-2.666-1.482-4.671-1.482
					c-2.067,0-4.156,0.592-6.268,1.775c-2.11,1.182-4.5,2.927-7.164,5.232L0,115.447c3.384-3.025,6.228-5.189,8.535-6.491
					c2.305-1.302,4.813-2.298,7.525-2.987c2.709-0.689,5.757-1.033,9.142-1.033c4.252,0,8.047,0.75,11.387,2.247
					c3.339,1.497,5.929,3.632,7.771,6.401c1.843,2.769,2.764,5.877,2.764,9.321c0,2.576-0.323,4.956-0.966,7.143
					c-0.644,2.185-1.64,4.334-2.987,6.446c-1.349,2.112-3.138,4.334-5.37,6.67c-2.23,2.337-6.985,6.769-14.262,13.298v0.449h24.842
					V156.91z M96.716,164.344c-3.893,5.405-9.852,8.109-17.879,8.109c-7.846,0-13.76-2.822-17.743-8.468s-5.975-14.038-5.975-25.179
					c0-11.679,1.946-20.244,5.839-25.694s9.852-8.177,17.879-8.177c7.818,0,13.725,2.837,17.723,8.513s5.997,14.128,5.997,25.358
					C102.557,150.426,100.609,158.939,96.716,164.344L96.716,164.344z M83.51,123.511c-0.928-2.92-2.486-4.379-4.673-4.379
					c-2.185,0-3.743,1.407-4.671,4.222c-0.93,2.816-1.394,7.966-1.394,15.453c0,7.429,0.464,12.533,1.394,15.32
					c0.928,2.784,2.486,4.177,4.671,4.177c2.217,0,3.78-1.437,4.695-4.312c0.913-2.875,1.37-7.936,1.37-15.184
					C84.902,131.529,84.438,126.43,83.51,123.511L83.51,123.511z"/>
			</defs>
			<use xlink:href="#SVGID_6_"  overflow="visible" fill="#FFFFFF"/>
			<clipPath id="SVGID_7_">
				<use xlink:href="#SVGID_6_"  overflow="visible"/>
			</clipPath>
			<g clip-path="url(#SVGID_7_)">
			</g>
		</g>
	</g>
</g>
</svg>
