<?xml version="1.0" encoding="utf-8"?>
<!-- Generator: Adobe Illustrator 21.1.0, SVG Export Plug-In . SVG Version: 6.00 Build 0)  -->
<svg version="1.1" xmlns="http://www.w3.org/2000/svg" xmlns:xlink="http://www.w3.org/1999/xlink" x="0px" y="0px"
	 viewBox="-4 0 268.239 376.007" enable-background="new -4 0 268.239 376.007" xml:space="preserve">
<g id="Слой_2" display="none">
</g>
<g id="Слой_1">
	<g id="_x33_-2." display="none">
		<path display="inline" fill="#131F39" d="M75.751,63.333H47.055c-2.187,0-3.957,1.772-3.957,3.959c0,2.189,1.77,3.959,3.957,3.959
			h28.696c2.191,0,3.959-1.77,3.961-3.959C79.712,65.105,77.942,63.333,75.751,63.333z"/>
		<path display="inline" fill="#131F39" d="M35.411,93.106c-1.033-1.921-3.44-2.621-5.364-1.581
			c-1.915,1.048-2.627,3.451-1.577,5.37l15.114,27.708c0.712,1.318,2.071,2.063,3.471,2.063c0.643,0,1.291-0.154,1.896-0.483
			c1.917-1.046,2.629-3.451,1.575-5.37L35.411,93.106z"/>
		<path display="inline" fill="#131F39" d="M163.039,166.251h-29.113c-2.187,0-3.957,1.77-3.957,3.957
			c0,2.189,1.77,3.959,3.957,3.959h29.113c2.191,0,3.961-1.77,3.961-3.957C167,168.021,165.23,166.251,163.039,166.251z"/>
		<path display="inline" fill="#131F39" d="M172.233,0c1.423,0,2.729,0.762,3.442,1.996l23.747,41.561
			c0.687,1.218,0.687,2.71,0,3.928l-23.747,41.561c-0.712,1.233-2.019,1.996-3.442,1.996h-47.499c-1.423,0-2.728-0.763-3.44-1.996
			l-23.75-41.561c-0.689-1.218-0.689-2.71,0-3.928l23.75-41.561C122.007,0.762,123.312,0,124.734,0H-4v376.757h268.239V0H172.233z
			 M85.156,142.5h-47.5c-1.45,0-2.785-0.793-3.471-2.063l-23.75-43.542c-0.652-1.179-0.652-2.61,0-3.789l23.75-43.54
			c0.685-1.274,2.021-2.065,3.471-2.065h47.499c1.442,0,2.78,0.793,3.469,2.065l23.75,43.54c0.647,1.18,0.647,2.61,0.001,3.789
			l-23.75,43.542C87.936,141.709,86.598,142.5,85.156,142.5z M199.422,146.444l-23.747,41.561c-0.712,1.234-2.019,1.996-3.442,1.996
			h-47.499c-1.423,0-2.728-0.762-3.44-1.996l-23.75-41.561c-0.689-1.218-0.689-2.71,0-3.928l23.75-41.561
			c0.712-1.233,2.017-1.996,3.44-1.996h47.499c1.423,0,2.729,0.762,3.442,1.996l23.747,41.561
			C200.109,143.734,200.109,145.226,199.422,146.444z"/>
		<path display="inline" fill="#131F39" d="M166.481,116.787c-1.096-1.909-3.527-2.563-5.403-1.473
			c-1.901,1.087-2.56,3.502-1.479,5.401l14.705,25.729c0.734,1.28,2.073,1.994,3.442,1.994c0.672,0,1.342-0.166,1.963-0.521
			c1.902-1.087,2.56-3.503,1.477-5.401L166.481,116.787z"/>
	</g>
	<g id="_x33_-3.">
		<g>
			<defs>
				<path id="SVGID_1_" d="M112.375,96.895l-23.75,43.542c-0.689,1.272-2.027,2.063-3.469,2.063h-47.5
					c-1.45,0-2.785-0.793-3.471-2.063l-23.75-43.542c-0.652-1.179-0.652-2.61,0-3.789l23.75-43.54
					c0.685-1.274,2.021-2.065,3.471-2.065h47.499c1.442,0,2.78,0.793,3.469,2.065l23.75,43.54
					C113.021,94.286,113.021,95.716,112.375,96.895L112.375,96.895z M35.411,93.106c-1.033-1.921-3.44-2.621-5.364-1.581
					c-1.915,1.048-2.627,3.451-1.577,5.37l15.114,27.708c0.712,1.318,2.071,2.063,3.471,2.063c0.643,0,1.291-0.154,1.896-0.483
					c1.917-1.046,2.629-3.451,1.575-5.37L35.411,93.106L35.411,93.106z M75.751,63.333H47.055c-2.187,0-3.957,1.772-3.957,3.959
					c0,2.189,1.77,3.959,3.957,3.959h28.696c2.191,0,3.959-1.77,3.961-3.959C79.712,65.105,77.942,63.333,75.751,63.333
					L75.751,63.333z M199.422,47.485l-23.747,41.561c-0.712,1.233-2.019,1.996-3.442,1.996h-47.499c-1.423,0-2.728-0.763-3.44-1.996
					l-23.75-41.561c-0.689-1.218-0.689-2.71,0-3.928l23.75-41.561C122.007,0.762,123.312,0,124.734,0h47.499
					c1.423,0,2.729,0.762,3.442,1.996l23.747,41.561C200.109,44.775,200.109,46.267,199.422,47.485L199.422,47.485z
					 M199.422,146.444l-23.747,41.561c-0.712,1.234-2.019,1.996-3.442,1.996h-47.499c-1.423,0-2.728-0.762-3.44-1.996l-23.75-41.561
					c-0.689-1.218-0.689-2.71,0-3.928l23.75-41.561c0.712-1.233,2.017-1.996,3.44-1.996h47.499c1.423,0,2.729,0.762,3.442,1.996
					l23.747,41.561C200.109,143.734,200.109,145.226,199.422,146.444L199.422,146.444z M129.969,170.208
					c0,2.189,1.77,3.959,3.957,3.959h29.113c2.191,0,3.961-1.77,3.961-3.957c0-2.189-1.77-3.959-3.961-3.959h-29.113
					C131.739,166.251,129.969,168.021,129.969,170.208L129.969,170.208z M181.186,142.516l-14.705-25.729
					c-1.096-1.909-3.527-2.563-5.403-1.473c-1.901,1.087-2.56,3.502-1.479,5.401l14.705,25.729c0.734,1.28,2.073,1.994,3.442,1.994
					c0.672,0,1.342-0.166,1.963-0.521C181.611,146.83,182.269,144.414,181.186,142.516L181.186,142.516z"/>
			</defs>
			<linearGradient id="SVGID_2_" gradientUnits="userSpaceOnUse" x1="9.946" y1="95.0005" x2="199.9372" y2="95.0005">
				<stop  offset="0" style="stop-color:#ED3338"/>
				<stop  offset="1" style="stop-color:#131F38"/>
			</linearGradient>
			<use xlink:href="#SVGID_1_"  overflow="visible" fill="url(#SVGID_2_)"/>
			<clipPath id="SVGID_3_">
				<use xlink:href="#SVGID_1_"  overflow="visible"/>
			</clipPath>
			<g clip-path="url(#SVGID_3_)">
			</g>
		</g>
	</g>
	<g id="_x33_." display="none">
		<g display="inline">
			<g>
				<defs>
					<path id="SVGID_4_" d="M9.618,225.929v-6.403h-5.32v6.403h-4.6v-15.705h4.6v5.822h5.32v-5.822h4.602v15.705H9.618
						L9.618,225.929z M26.182,225.929l-0.871-1.612h-0.093c-0.61,0.703-1.232,1.181-1.867,1.44
						c-0.633,0.259-1.452,0.386-2.455,0.386c-1.237,0-2.21-0.344-2.922-1.031c-0.71-0.687-1.066-1.654-1.066-2.899
						c0-1.297,0.486-2.262,1.461-2.895c0.973-0.635,2.382-0.99,4.229-1.069l2.191-0.064v-0.172c0-1.004-0.533-1.504-1.6-1.504
						c-0.957,0-2.174,0.299-3.65,0.901l-1.309-2.772c1.529-0.73,3.461-1.094,5.795-1.094c1.683,0,2.988,0.386,3.911,1.16
						c0.923,0.772,1.386,1.855,1.386,3.243v7.982H26.182L26.182,225.929z M24.814,220.493l-1.042,0.042
						c-1.492,0.05-2.237,0.56-2.237,1.527c0,0.745,0.429,1.116,1.286,1.116c0.548,0,1.019-0.16,1.409-0.483
						c0.39-0.322,0.585-0.741,0.585-1.257L24.814,220.493L24.814,220.493z M40.125,226.703c-0.666,1.647-1.482,2.811-2.451,3.49
						c-0.971,0.681-2.235,1.021-3.797,1.021c-0.602,0-1.22-0.06-1.853-0.183v-3.297c0.409,0.087,0.876,0.129,1.401,0.129
						c0.402,0,0.755-0.071,1.056-0.214c0.301-0.145,0.564-0.347,0.788-0.608s0.463-0.689,0.718-1.284l-5.169-11.999h4.776
						l2.226,6.982c0.108,0.365,0.181,0.807,0.22,1.322h0.093c0.062-0.494,0.154-0.928,0.278-1.301l2.284-7.003h4.625L40.125,226.703
						L40.125,226.703z M55.145,225.929v-4.426c-1.498,0.602-2.886,0.903-4.16,0.903c-1.592,0-2.768-0.34-3.529-1.015
						c-0.762-0.677-1.143-1.724-1.143-3.143v-4.49h4.532v4.276c0,0.838,0.413,1.257,1.239,1.257c0.882,0,1.901-0.18,3.06-0.537
						v-4.996h4.532v12.171H55.145L55.145,225.929z M70.931,225.929v-4.662h-3.592v4.662h-4.532v-12.171h4.532v4.382h3.592v-4.382
						h4.532v12.171L70.931,225.929L70.931,225.929z M89.4,224.473c-1.154,1.114-2.772,1.67-4.851,1.67
						c-1.992,0-3.579-0.569-4.756-1.706c-1.179-1.139-1.768-2.679-1.768-4.619c0-1.984,0.577-3.527,1.733-4.625
						c1.154-1.1,2.776-1.648,4.861-1.648c1.291,0,2.43,0.253,3.421,0.762c0.988,0.508,1.751,1.237,2.289,2.185
						c0.537,0.95,0.805,2.058,0.805,3.326C91.133,221.809,90.556,223.36,89.4,224.473L89.4,224.473z M86.08,217.465
						c-0.293-0.531-0.795-0.795-1.508-0.795c-0.695,0-1.193,0.263-1.494,0.79s-0.452,1.313-0.452,2.359
						c0,1.044,0.151,1.842,0.452,2.39s0.807,0.822,1.517,0.822c0.705,0,1.201-0.274,1.49-0.822c0.29-0.548,0.434-1.345,0.434-2.39
						C86.52,218.779,86.373,217.993,86.08,217.465L86.08,217.465z"/>
				</defs>
				<use xlink:href="#SVGID_4_"  overflow="visible" fill="#FFFFFF"/>
				<clipPath id="SVGID_5_">
					<use xlink:href="#SVGID_4_"  overflow="visible"/>
				</clipPath>
				<g clip-path="url(#SVGID_5_)">
				</g>
			</g>
		</g>
		<g display="inline">
			<g>
				<defs>
					<path id="SVGID_6_" d="M-1.635,253.391v-3.351h6.55v3.351H-1.635L-1.635,253.391z M17.071,257.613v-3.297
						c0-1.152,0.054-2.517,0.162-4.092l-5.227,7.389h-5.03v-12.171h4.034v3.061c0,0.172-0.002,0.359-0.006,0.56
						s-0.056,1.475-0.156,3.824l5.25-7.445h5.007v12.171H17.071L17.071,257.613z M33.541,249.257
						c-0.548-0.222-1.054-0.4-1.517-0.533c-0.463-0.131-0.948-0.199-1.45-0.199c-0.734,0-1.301,0.266-1.703,0.795
						c-0.403,0.531-0.604,1.278-0.604,2.245c0,1.95,0.778,2.922,2.33,2.922c1.33,0,2.604-0.357,3.826-1.073v3.339
						c-1.168,0.716-2.569,1.075-4.208,1.075c-2.148,0-3.776-0.539-4.886-1.612c-1.108-1.075-1.662-2.618-1.662-4.631
						c0-2.019,0.598-3.583,1.795-4.693c1.199-1.11,2.901-1.666,5.111-1.666c1.523,0,2.955,0.309,4.301,0.925L33.541,249.257
						L33.541,249.257z M46.337,249.257c-0.548-0.222-1.054-0.4-1.517-0.533c-0.465-0.131-0.948-0.199-1.45-0.199
						c-0.734,0-1.303,0.266-1.704,0.795c-0.402,0.531-0.602,1.278-0.602,2.245c0,1.95,0.776,2.922,2.33,2.922
						c1.328,0,2.604-0.357,3.824-1.073v3.339c-1.166,0.716-2.569,1.075-4.206,1.075c-2.148,0-3.778-0.539-4.886-1.612
						c-1.108-1.075-1.664-2.618-1.664-4.631c0-2.019,0.6-3.583,1.797-4.693c1.197-1.11,2.901-1.666,5.111-1.666
						c1.523,0,2.955,0.309,4.301,0.925L46.337,249.257L46.337,249.257z M58.473,257.613v-9.044h-2.666
						c-0.255,2.614-0.577,4.534-0.963,5.762c-0.386,1.23-0.919,2.119-1.598,2.67c-0.681,0.552-1.596,0.828-2.747,0.828
						c-0.805,0-1.488-0.108-2.052-0.322v-3.127c0.255,0.129,0.595,0.195,1.019,0.195c0.347,0,0.629-0.168,0.847-0.5
						c0.216-0.334,0.407-0.865,0.573-1.596c0.166-0.73,0.317-1.668,0.452-2.814c0.135-1.145,0.264-2.552,0.388-4.222h11.277v12.171
						h-4.53V257.613z M70.143,252.662c0.031,0.679,0.299,1.214,0.805,1.6c0.506,0.388,1.197,0.581,2.069,0.581
						c0.795,0,1.529-0.071,2.197-0.21s1.392-0.376,2.174-0.714v3.019c-0.712,0.336-1.446,0.569-2.203,0.699
						c-0.757,0.127-1.662,0.193-2.712,0.193c-2.187,0-3.886-0.539-5.094-1.618c-1.21-1.077-1.815-2.612-1.815-4.602
						c0-2.056,0.56-3.633,1.681-4.733c1.12-1.098,2.72-1.648,4.799-1.648c1.977,0,3.505,0.479,4.583,1.434
						c1.079,0.955,1.618,2.332,1.618,4.131v1.869L70.143,252.662L70.143,252.662z M73.591,248.613
						c-0.344-0.351-0.805-0.527-1.384-0.527c-0.533,0-0.981,0.156-1.34,0.467c-0.359,0.313-0.569,0.801-0.631,1.467h3.893
						C74.114,249.432,73.934,248.964,73.591,248.613L73.591,248.613z M92.176,262.082v-4.469h-8.681v4.469h-3.963v-7.594h1.158
						c0.672-1.06,1.237-2.382,1.699-3.969c0.459-1.587,0.778-3.278,0.955-5.077h10.848v9.045h1.948v7.594h-3.964V262.082z
						 M89.66,248.569h-2.585c-0.139,0.967-0.328,1.907-0.567,2.824s-0.587,1.948-1.042,3.094h4.195L89.66,248.569L89.66,248.569z
						 M108.801,256.158c-1.154,1.114-2.772,1.672-4.849,1.672c-1.994,0-3.581-0.569-4.758-1.708
						c-1.179-1.139-1.768-2.679-1.768-4.619c0-1.984,0.577-3.525,1.733-4.625c1.154-1.098,2.776-1.648,4.862-1.648
						c1.289,0,2.43,0.255,3.419,0.762c0.988,0.51,1.753,1.237,2.289,2.187c0.537,0.948,0.805,2.056,0.805,3.324
						C110.535,253.492,109.958,255.046,108.801,256.158L108.801,256.158z M105.481,249.149c-0.293-0.529-0.795-0.795-1.506-0.795
						c-0.697,0-1.195,0.264-1.496,0.79c-0.301,0.527-0.452,1.313-0.452,2.359c0,1.046,0.151,1.842,0.452,2.39
						s0.807,0.822,1.519,0.822c0.703,0,1.199-0.274,1.488-0.822c0.29-0.548,0.434-1.343,0.434-2.39
						C105.921,250.464,105.775,249.679,105.481,249.149L105.481,249.149z M123.47,251.233v0.085c0.942,0.1,1.666,0.4,2.168,0.898
						s0.753,1.137,0.753,1.917c0,2.32-2.04,3.48-6.119,3.48h-7.152v-12.171h7.175c1.907,0,3.334,0.259,4.276,0.774
						c0.944,0.515,1.415,1.307,1.415,2.374c0,0.708-0.224,1.295-0.672,1.76C124.863,250.818,124.249,251.113,123.47,251.233
						L123.47,251.233z M120.225,248.193h-2.573v1.826h2.399c0.479,0,0.836-0.083,1.071-0.247c0.236-0.164,0.353-0.373,0.353-0.623
						C121.476,248.511,121.059,248.193,120.225,248.193L120.225,248.193z M121.371,252.91c-0.278-0.164-0.68-0.247-1.205-0.247
						h-2.515v2.203h2.469c1.112,0,1.668-0.38,1.668-1.139C121.788,253.345,121.649,253.074,121.371,252.91L121.371,252.91z
						 M137.586,257.613l-0.869-1.61h-0.093c-0.61,0.701-1.233,1.181-1.867,1.438c-0.633,0.259-1.452,0.388-2.457,0.388
						c-1.235,0-2.21-0.344-2.921-1.031c-0.71-0.689-1.066-1.656-1.066-2.901c0-1.297,0.486-2.26,1.459-2.895
						c0.975-0.633,2.384-0.99,4.231-1.069l2.191-0.064v-0.172c0-1.002-0.533-1.504-1.6-1.504c-0.957,0-2.175,0.301-3.65,0.901
						l-1.311-2.77c1.531-0.732,3.463-1.096,5.795-1.096c1.685,0,2.99,0.386,3.913,1.16c0.923,0.774,1.384,1.855,1.384,3.245v7.98
						H137.586L137.586,257.613z M136.219,252.179l-1.044,0.042c-1.49,0.05-2.235,0.558-2.235,1.525c0,0.745,0.429,1.118,1.286,1.118
						c0.548,0,1.017-0.162,1.409-0.485c0.39-0.322,0.585-0.741,0.585-1.257L136.219,252.179L136.219,252.179z M151.669,248.569
						v9.044h-4.532v-9.044h-4.324v-3.127h13.178v3.127H151.669L151.669,248.569z M162.134,252.662
						c0.031,0.679,0.301,1.214,0.807,1.6c0.506,0.388,1.195,0.581,2.069,0.581c0.795,0,1.527-0.071,2.195-0.21
						c0.67-0.139,1.394-0.376,2.174-0.714v3.019c-0.71,0.336-1.444,0.569-2.202,0.699c-0.757,0.127-1.66,0.193-2.712,0.193
						c-2.187,0-3.884-0.539-5.094-1.618c-1.208-1.077-1.813-2.612-1.813-4.602c0-2.056,0.56-3.633,1.679-4.733
						c1.121-1.098,2.72-1.648,4.799-1.648c1.979,0,3.505,0.479,4.584,1.434c1.077,0.955,1.616,2.332,1.616,4.131v1.869
						L162.134,252.662L162.134,252.662z M165.583,248.613c-0.344-0.351-0.807-0.527-1.386-0.527c-0.533,0-0.979,0.156-1.338,0.467
						c-0.359,0.313-0.571,0.801-0.633,1.467h3.895C166.106,249.432,165.927,248.964,165.583,248.613L165.583,248.613z
						 M181.444,257.613v-9.044h-2.666c-0.255,2.614-0.577,4.534-0.963,5.762c-0.386,1.23-0.919,2.119-1.598,2.67
						c-0.681,0.552-1.596,0.828-2.747,0.828c-0.805,0-1.488-0.108-2.052-0.322v-3.127c0.255,0.129,0.595,0.195,1.019,0.195
						c0.347,0,0.631-0.168,0.847-0.5c0.216-0.334,0.407-0.865,0.573-1.596c0.166-0.73,0.317-1.668,0.452-2.814
						c0.135-1.145,0.264-2.552,0.388-4.222h11.277v12.171h-4.53V257.613z M199.072,256.648c-0.981,0.643-2.469,0.965-4.461,0.965
						h-5.505v-12.171h4.53v4.384h0.429c2.28,0,3.93,0.293,4.949,0.88c1.021,0.587,1.531,1.548,1.531,2.88
						C200.545,254.982,200.054,256.003,199.072,256.648L199.072,256.648z M195.63,252.855c-0.255-0.185-0.679-0.28-1.274-0.28h-0.72
						v2.289h0.766c1.073,0,1.61-0.365,1.61-1.096C196.012,253.345,195.885,253.042,195.63,252.855L195.63,252.855z M212.181,249.257
						c-0.548-0.222-1.054-0.4-1.517-0.533c-0.465-0.131-0.948-0.199-1.45-0.199c-0.734,0-1.301,0.266-1.704,0.795
						c-0.402,0.531-0.602,1.278-0.602,2.245c0,1.95,0.778,2.922,2.33,2.922c1.33,0,2.604-0.357,3.826-1.073v3.339
						c-1.168,0.716-2.569,1.075-4.208,1.075c-2.148,0-3.778-0.539-4.886-1.612c-1.108-1.075-1.662-2.618-1.662-4.631
						c0-2.019,0.598-3.583,1.795-4.693c1.199-1.11,2.901-1.666,5.111-1.666c1.523,0,2.955,0.309,4.301,0.925L212.181,249.257
						L212.181,249.257z M230.25,257.613h-5.181l-4.868-6.175v6.175h-4.53v-12.171h4.53v5.897l4.66-5.897h5.007l-4.915,5.833
						L230.25,257.613L230.25,257.613z M241.805,257.613v-3.297c0-1.152,0.054-2.517,0.162-4.092l-5.227,7.389h-5.028v-12.171h4.032
						v3.061c0,0.172-0.002,0.359-0.006,0.56s-0.056,1.475-0.156,3.824l5.25-7.445h5.007v12.171H241.805L241.805,257.613z
						 M262.239,257.613h-5.146l-2.214-3.695l-2.202,3.695h-5.158l4.231-6.208l-4.009-5.963h5.144l1.994,3.417l2.04-3.417h5.158
						l-4.115,5.963L262.239,257.613L262.239,257.613z"/>
				</defs>
				<use xlink:href="#SVGID_6_"  overflow="visible" fill="#FFFFFF"/>
				<clipPath id="SVGID_7_">
					<use xlink:href="#SVGID_6_"  overflow="visible"/>
				</clipPath>
				<g clip-path="url(#SVGID_7_)">
				</g>
			</g>
		</g>
		<g display="inline">
			<g>
				<defs>
					<path id="SVGID_8_" d="M9.526,289.299V286c0-1.152,0.054-2.517,0.162-4.092l-5.227,7.391h-5.029v-12.171h4.032v3.061
						c0,0.172-0.002,0.357-0.006,0.558s-0.056,1.475-0.156,3.824l5.25-7.443h5.007v12.171H9.526L9.526,289.299z M24.814,289.299
						v-4.662h-3.592v4.662H16.69v-12.171h4.532v4.382h3.592v-4.382h4.532v12.171H24.814L24.814,289.299z M41.781,280.941
						c-0.548-0.222-1.054-0.4-1.517-0.531c-0.463-0.133-0.948-0.199-1.45-0.199c-0.734,0-1.301,0.264-1.703,0.795
						c-0.403,0.529-0.604,1.278-0.604,2.245c0,1.948,0.778,2.921,2.33,2.921c1.33,0,2.604-0.357,3.826-1.073v3.341
						c-1.168,0.716-2.569,1.073-4.208,1.073c-2.148,0-3.776-0.537-4.886-1.612c-1.108-1.073-1.662-2.617-1.662-4.629
						c0-2.019,0.598-3.585,1.795-4.695c1.199-1.11,2.901-1.666,5.111-1.666c1.523,0,2.955,0.309,4.301,0.925L41.781,280.941
						L41.781,280.941z M53.129,280.253v9.045h-4.532v-9.045h-4.324v-3.125h13.178v3.125H53.129L53.129,280.253z M69.68,289.299V286
						c0-1.152,0.054-2.517,0.162-4.092l-5.227,7.391h-5.03v-12.171h4.034v3.061c0,0.172-0.002,0.357-0.006,0.558
						c-0.006,0.201-0.058,1.475-0.158,3.824l5.25-7.443h5.007v12.171H69.68L69.68,289.299z M84.7,280.253v9.045h-4.53v-9.045h-4.324
						v-3.125h13.178v3.125H84.7L84.7,280.253z M98.876,290.072c-0.666,1.648-1.482,2.812-2.451,3.492
						c-0.971,0.681-2.235,1.021-3.797,1.021c-0.602,0-1.22-0.062-1.853-0.183v-3.297c0.409,0.085,0.876,0.129,1.401,0.129
						c0.401,0,0.755-0.073,1.056-0.216s0.564-0.346,0.788-0.606c0.224-0.263,0.463-0.689,0.718-1.284l-5.169-11.999h4.776
						l2.226,6.982c0.108,0.365,0.181,0.805,0.22,1.32h0.093c0.062-0.494,0.154-0.927,0.278-1.299l2.284-7.003h4.625L98.876,290.072
						L98.876,290.072z M113.49,280.253v9.045h-4.53v-9.045h-4.324v-3.125h13.178v3.125H113.49L113.49,280.253z M128.512,289.299
						l-0.869-1.612h-0.093c-0.612,0.703-1.233,1.181-1.867,1.44c-0.633,0.257-1.453,0.386-2.457,0.386
						c-1.237,0-2.21-0.344-2.921-1.031c-0.712-0.687-1.067-1.654-1.067-2.901c0-1.295,0.488-2.26,1.461-2.893
						c0.973-0.635,2.384-0.99,4.231-1.069l2.189-0.066v-0.172c0-1.002-0.533-1.504-1.598-1.504c-0.959,0-2.175,0.301-3.652,0.903
						l-1.309-2.772c1.529-0.73,3.461-1.096,5.795-1.096c1.685,0,2.988,0.388,3.913,1.16c0.923,0.774,1.384,1.855,1.384,3.245v7.982
						H128.512L128.512,289.299z M127.143,283.863l-1.042,0.042c-1.492,0.05-2.237,0.56-2.237,1.525c0,0.745,0.429,1.118,1.288,1.118
						c0.548,0,1.017-0.16,1.407-0.483c0.39-0.322,0.585-0.741,0.585-1.257v-0.945H127.143z"/>
				</defs>
				<use xlink:href="#SVGID_8_"  overflow="visible" fill="#FFFFFF"/>
				<clipPath id="SVGID_9_">
					<use xlink:href="#SVGID_8_"  overflow="visible"/>
				</clipPath>
				<g clip-path="url(#SVGID_9_)">
				</g>
			</g>
		</g>
		<g display="inline">
			<g>
				<defs>
					<path id="SVGID_10_" d="M6.3,324.288v1.262h-6.765v-12.136H6.3v1.253H0.946v3.909h5.03v1.245h-5.03v4.467H6.3L6.3,324.288z
						 M14.218,320.702v0.075c0.776,0.104,1.342,0.332,1.699,0.681c0.357,0.347,0.535,0.83,0.535,1.444
						c0,0.845-0.311,1.5-0.934,1.959c-0.622,0.459-1.531,0.689-2.726,0.689H8.783v-9.099h3.992c2.258,0,3.388,0.762,3.388,2.284
						c0,0.593-0.17,1.042-0.512,1.349C15.311,320.391,14.834,320.598,14.218,320.702L14.218,320.702z M10.161,324.396h2.531
						c1.589,0,2.382-0.529,2.382-1.587c0-0.492-0.185-0.849-0.56-1.073c-0.373-0.226-0.992-0.338-1.855-0.338h-2.498L10.161,324.396
						L10.161,324.396z M14.307,317.926c-0.342-0.185-0.857-0.278-1.548-0.278h-2.598v2.563h2.332c0.851,0,1.454-0.104,1.801-0.315
						c0.349-0.21,0.523-0.554,0.523-1.029C14.817,318.426,14.647,318.112,14.307,317.926L14.307,317.926z M25.462,324.475
						c-0.666,0.826-1.592,1.241-2.776,1.241c-0.593,0-1.133-0.11-1.623-0.328c-0.49-0.22-0.901-0.556-1.233-1.01h-0.098
						c0.066,0.531,0.098,1.035,0.098,1.511v3.743h-1.376V316.45h1.12l0.191,1.247h0.066c0.355-0.5,0.766-0.859,1.237-1.081
						c0.471-0.22,1.01-0.332,1.619-0.332c1.206,0,2.137,0.413,2.793,1.237c0.654,0.824,0.983,1.982,0.983,3.471
						C26.462,322.487,26.13,323.647,25.462,324.475L25.462,324.475z M24.366,318.366c-0.444-0.606-1.071-0.909-1.88-0.909
						c-0.928,0-1.6,0.257-2.015,0.772c-0.417,0.514-0.629,1.334-0.641,2.457v0.307c0,1.278,0.214,2.193,0.641,2.743
						c0.425,0.55,1.108,0.826,2.05,0.826c0.786,0,1.401-0.319,1.845-0.956c0.446-0.635,0.67-1.513,0.67-2.631
						C25.036,319.84,24.812,318.971,24.366,318.366L24.366,318.366z M35.602,324.465c-0.747,0.834-1.78,1.251-3.096,1.251
						c-0.815,0-1.537-0.191-2.168-0.573c-0.629-0.382-1.118-0.93-1.459-1.645c-0.344-0.712-0.515-1.548-0.515-2.505
						c0-1.484,0.371-2.639,1.112-3.467c0.741-0.826,1.772-1.241,3.089-1.241c1.272,0,2.284,0.425,3.034,1.27
						c0.749,0.847,1.123,1.992,1.123,3.438C36.722,322.475,36.349,323.633,35.602,324.465L35.602,324.465z M34.593,318.357
						c-0.467-0.6-1.158-0.9-2.071-0.9c-0.901,0-1.581,0.295-2.04,0.888s-0.689,1.475-0.689,2.648c0,1.162,0.232,2.046,0.697,2.656
						c0.465,0.608,1.149,0.913,2.05,0.913s1.587-0.303,2.054-0.909c0.469-0.606,0.703-1.492,0.703-2.66
						C35.295,319.836,35.062,318.956,34.593,318.357L34.593,318.357z M45.381,325.551v-7.903h-4.864v7.903h-1.378v-9.099h7.636
						v9.099L45.381,325.551L45.381,325.551z M55.291,325.551l-0.274-1.295h-0.066c-0.454,0.569-0.907,0.956-1.357,1.158
						c-0.452,0.201-1.015,0.303-1.689,0.303c-0.903,0-1.61-0.234-2.121-0.699c-0.512-0.463-0.768-1.125-0.768-1.982
						c0-1.838,1.469-2.801,4.407-2.89l1.544-0.05v-0.564c0-0.714-0.153-1.241-0.459-1.581c-0.307-0.342-0.799-0.512-1.475-0.512
						c-0.757,0-1.616,0.234-2.573,0.697l-0.423-1.054c0.448-0.243,0.94-0.434,1.473-0.571c0.535-0.139,1.069-0.208,1.606-0.208
						c1.085,0,1.89,0.241,2.413,0.722c0.523,0.483,0.784,1.255,0.784,2.316v6.21L55.291,325.551L55.291,325.551z M54.934,321.076
						l-1.378,0.058c-1.095,0.039-1.886,0.208-2.368,0.51c-0.484,0.303-0.728,0.772-0.728,1.407c0,0.498,0.151,0.878,0.454,1.137
						c0.301,0.261,0.722,0.39,1.264,0.39c0.859,0,1.533-0.234,2.023-0.705c0.488-0.471,0.734-1.129,0.734-1.977L54.934,321.076
						L54.934,321.076z M7.487,339.15c-0.919-0.432-1.838-0.649-2.756-0.649c-1.334,0-2.386,0.444-3.158,1.332
						c-0.772,0.89-1.158,2.104-1.158,3.648c0,1.589,0.373,2.816,1.116,3.681c0.745,0.867,1.807,1.299,3.185,1.299
						c0.845,0,1.811-0.151,2.895-0.456v1.237c-0.84,0.315-1.878,0.473-3.112,0.473c-1.788,0-3.168-0.542-4.139-1.627
						c-0.971-1.085-1.457-2.625-1.457-4.623c0-1.251,0.235-2.347,0.703-3.287c0.467-0.94,1.143-1.666,2.025-2.175
						c0.882-0.51,1.923-0.763,3.117-0.763c1.272,0,2.384,0.232,3.337,0.697L7.487,339.15L7.487,339.15z M10.974,345.249
						c0.027,1.069,0.297,1.88,0.809,2.432c0.512,0.554,1.233,0.83,2.164,0.83c0.979,0,1.948-0.205,2.905-0.614v1.23
						c-0.488,0.208-0.948,0.361-1.382,0.452s-0.959,0.137-1.573,0.137c-1.345,0-2.407-0.409-3.183-1.23
						c-0.778-0.818-1.168-1.955-1.168-3.411c0-1.467,0.361-2.631,1.085-3.494c0.722-0.865,1.691-1.295,2.909-1.295
						c1.139,0,2.042,0.374,2.706,1.123c0.664,0.751,0.996,1.739,0.996,2.969v0.871L10.974,345.249L10.974,345.249z M15.182,342.133
						c-0.386-0.463-0.94-0.695-1.66-0.695c-0.73,0-1.313,0.239-1.747,0.714c-0.434,0.477-0.691,1.135-0.768,1.977h4.756
						C15.763,343.26,15.57,342.594,15.182,342.133L15.182,342.133z M25.026,344.701v0.075c0.776,0.106,1.342,0.332,1.699,0.681
						c0.357,0.348,0.535,0.83,0.535,1.444c0,0.847-0.311,1.5-0.934,1.959c-0.622,0.459-1.531,0.689-2.726,0.689h-4.01v-9.098h3.992
						c2.258,0,3.388,0.761,3.388,2.282c0,0.593-0.172,1.042-0.512,1.349C26.119,344.391,25.642,344.596,25.026,344.701
						L25.026,344.701z M20.969,348.396H23.5c1.589,0,2.382-0.529,2.382-1.585c0-0.492-0.185-0.851-0.56-1.075
						c-0.374-0.224-0.992-0.336-1.855-0.336h-2.498L20.969,348.396L20.969,348.396z M25.113,341.926
						c-0.34-0.185-0.855-0.278-1.548-0.278h-2.596v2.565H23.3c0.851,0,1.452-0.106,1.801-0.317c0.349-0.21,0.523-0.552,0.523-1.029
						C25.625,342.426,25.455,342.111,25.113,341.926L25.113,341.926z M30.182,345.249c0.027,1.069,0.297,1.88,0.809,2.432
						c0.512,0.554,1.233,0.83,2.162,0.83c0.981,0,1.948-0.205,2.905-0.614v1.23c-0.486,0.208-0.948,0.361-1.382,0.452
						s-0.957,0.137-1.573,0.137c-1.343,0-2.405-0.409-3.183-1.23c-0.776-0.818-1.166-1.955-1.166-3.411
						c0-1.467,0.361-2.631,1.083-3.494c0.722-0.865,1.693-1.295,2.911-1.295c1.139,0,2.04,0.374,2.704,1.123
						c0.664,0.751,0.996,1.739,0.996,2.969v0.871L30.182,345.249L30.182,345.249z M34.39,342.133
						c-0.388-0.463-0.94-0.695-1.66-0.695c-0.73,0-1.313,0.239-1.747,0.714c-0.434,0.477-0.691,1.135-0.768,1.977h4.756
						C34.971,343.26,34.778,342.594,34.39,342.133L34.39,342.133z M45.808,348.474c-0.666,0.828-1.593,1.241-2.776,1.241
						c-0.593,0-1.133-0.11-1.623-0.328c-0.49-0.218-0.901-0.554-1.233-1.009h-0.098c0.066,0.533,0.098,1.036,0.098,1.511v3.745
						h-1.378v-13.182h1.121l0.191,1.245h0.066c0.355-0.498,0.766-0.859,1.237-1.079c0.471-0.222,1.01-0.332,1.62-0.332
						c1.206,0,2.137,0.411,2.793,1.235c0.654,0.826,0.983,1.982,0.983,3.471C46.808,346.487,46.474,347.646,45.808,348.474
						L45.808,348.474z M44.711,342.366c-0.444-0.606-1.071-0.909-1.88-0.909c-0.928,0-1.602,0.257-2.017,0.772
						c-0.415,0.515-0.627,1.334-0.639,2.457v0.307c0,1.278,0.214,2.193,0.639,2.743c0.427,0.552,1.11,0.826,2.052,0.826
						c0.786,0,1.401-0.318,1.845-0.954c0.446-0.637,0.67-1.513,0.67-2.633C45.381,343.841,45.157,342.971,44.711,342.366
						L44.711,342.366z M55.689,349.549v-4.102h-5.096v4.102h-1.378v-9.098h1.378v3.81h5.096v-3.81h1.378v9.098H55.689
						L55.689,349.549z M65.584,349.549l-0.274-1.295h-0.066c-0.454,0.569-0.905,0.956-1.357,1.158
						c-0.452,0.201-1.013,0.303-1.689,0.303c-0.901,0-1.61-0.234-2.121-0.697c-0.512-0.465-0.768-1.127-0.768-1.984
						c0-1.838,1.469-2.801,4.409-2.89l1.544-0.048v-0.566c0-0.714-0.154-1.241-0.461-1.581s-0.799-0.512-1.473-0.512
						c-0.759,0-1.616,0.234-2.573,0.699l-0.425-1.054c0.448-0.245,0.94-0.434,1.475-0.573c0.533-0.139,1.069-0.209,1.606-0.209
						c1.085,0,1.888,0.241,2.411,0.722c0.523,0.483,0.784,1.255,0.784,2.316v6.21h-1.022V349.549z M65.227,345.076l-1.376,0.058
						c-1.096,0.039-1.886,0.208-2.37,0.512c-0.485,0.301-0.726,0.77-0.726,1.405c0,0.498,0.151,0.878,0.452,1.139
						c0.301,0.259,0.724,0.39,1.266,0.39c0.857,0,1.531-0.235,2.021-0.707c0.49-0.469,0.734-1.129,0.734-1.975v-0.822H65.227z
						 M74.583,349.549v-3.637h-2.299l-2.384,3.637h-1.61l2.616-3.843c-0.703-0.154-1.241-0.456-1.616-0.901
						c-0.373-0.446-0.56-1.006-0.56-1.681c0-0.83,0.28-1.483,0.838-1.957c0.56-0.477,1.34-0.714,2.341-0.714h4.052v9.098h-1.378
						V349.549z M74.583,341.647h-2.5c-1.338,0-2.008,0.498-2.008,1.494c0,1.052,0.762,1.577,2.291,1.577h2.216L74.583,341.647
						L74.583,341.647z M91.133,349.549l-1.509-3.861H84.76l-1.494,3.861h-1.428l4.799-12.186h1.187l4.772,12.186H91.133
						L91.133,349.549z M87.773,340.659c-0.183-0.475-0.371-1.06-0.566-1.751c-0.122,0.531-0.295,1.116-0.521,1.751l-1.428,3.76
						h3.926L87.773,340.659L87.773,340.659z M102.391,349.549v-7.513l-0.166,0.483l-0.483,1.268l-2.349,5.762h-1.152l-2.349-5.777
						c-0.293-0.741-0.496-1.32-0.606-1.735v7.513h-1.23v-9.082h1.685l2.382,5.77c0.239,0.608,0.457,1.27,0.656,1.984l0.257-0.772
						l0.357-0.981l2.465-6.001h1.753v9.082h-1.22V349.549z M107.469,345.249c0.029,1.069,0.297,1.88,0.811,2.432
						c0.512,0.554,1.232,0.83,2.162,0.83c0.979,0,1.948-0.205,2.905-0.614v1.23c-0.486,0.208-0.948,0.361-1.382,0.452
						c-0.434,0.091-0.959,0.137-1.573,0.137c-1.345,0-2.405-0.409-3.183-1.23c-0.778-0.818-1.166-1.955-1.166-3.411
						c0-1.467,0.361-2.631,1.083-3.494c0.722-0.865,1.691-1.295,2.909-1.295c1.141,0,2.042,0.374,2.706,1.123
						c0.664,0.751,0.996,1.739,0.996,2.969v0.871L107.469,345.249L107.469,345.249z M111.679,342.133
						c-0.388-0.463-0.942-0.695-1.66-0.695c-0.732,0-1.315,0.239-1.749,0.714c-0.434,0.477-0.689,1.135-0.766,1.977h4.756
						C112.26,343.26,112.065,342.594,111.679,342.133L111.679,342.133z M123.097,348.474c-0.668,0.828-1.592,1.241-2.778,1.241
						c-0.593,0-1.133-0.11-1.623-0.328c-0.488-0.218-0.9-0.554-1.232-1.009h-0.1c0.068,0.533,0.1,1.036,0.1,1.511v3.745h-1.378
						v-13.182h1.121l0.189,1.245h0.068c0.353-0.498,0.766-0.859,1.237-1.079c0.469-0.222,1.01-0.332,1.618-0.332
						c1.206,0,2.137,0.411,2.793,1.235c0.656,0.826,0.984,1.982,0.984,3.471C124.097,346.487,123.763,347.646,123.097,348.474
						L123.097,348.474z M122.001,342.366c-0.446-0.606-1.073-0.909-1.88-0.909c-0.93,0-1.602,0.257-2.017,0.772
						s-0.627,1.334-0.639,2.457v0.307c0,1.278,0.212,2.193,0.639,2.743c0.427,0.552,1.11,0.826,2.05,0.826
						c0.786,0,1.401-0.318,1.847-0.954c0.446-0.637,0.668-1.513,0.668-2.633C122.669,343.841,122.447,342.971,122.001,342.366
						L122.001,342.366z M133.069,349.549v-5.561l0.025-1.096l0.042-1.079l-4.915,7.737h-1.718v-9.098h1.295v5.768l-0.058,1.511
						l-0.025,0.473l4.922-7.752h1.718v9.098L133.069,349.549L133.069,349.549z M144.417,349.549h-1.61l-4.152-4.608v4.608h-1.376
						v-9.098h1.376v4.424l3.926-4.424h1.511l-3.926,4.391L144.417,349.549L144.417,349.549z M151.696,349.549l-0.274-1.295h-0.066
						c-0.454,0.569-0.907,0.956-1.357,1.158c-0.452,0.201-1.015,0.303-1.689,0.303c-0.903,0-1.61-0.234-2.121-0.697
						c-0.511-0.465-0.768-1.127-0.768-1.984c0-1.838,1.469-2.801,4.409-2.89l1.542-0.048v-0.566c0-0.714-0.152-1.241-0.459-1.581
						s-0.799-0.512-1.475-0.512c-0.757,0-1.616,0.234-2.573,0.699l-0.423-1.054c0.448-0.245,0.94-0.434,1.473-0.573
						c0.535-0.139,1.069-0.209,1.606-0.209c1.085,0,1.89,0.241,2.413,0.722c0.523,0.483,0.784,1.255,0.784,2.316v6.21h-1.022
						V349.549z M151.339,345.076l-1.378,0.058c-1.094,0.039-1.886,0.208-2.368,0.512c-0.484,0.301-0.728,0.77-0.728,1.405
						c0,0.498,0.151,0.878,0.454,1.139c0.301,0.259,0.722,0.39,1.264,0.39c0.859,0,1.533-0.235,2.023-0.707
						c0.488-0.469,0.734-1.129,0.734-1.975L151.339,345.076L151.339,345.076z M8.267,373.549h-1.71l-5.611-6.15v6.15h-1.411v-12.136
						h1.411v5.878l5.47-5.878h1.62l-5.372,5.893L8.267,373.549L8.267,373.549z M16.293,373.549v-5.561l0.025-1.096l0.042-1.079
						l-4.915,7.737H9.727v-9.098h1.295v5.77l-0.058,1.51l-0.025,0.473l4.922-7.752h1.718v9.098h-1.286V373.549z M23.683,365.632
						v7.918h-1.378v-7.918h-2.923v-1.179h7.256v1.179H23.683L23.683,365.632z M34.033,373.549l-0.274-1.295h-0.066
						c-0.454,0.571-0.907,0.957-1.357,1.158c-0.452,0.203-1.015,0.303-1.689,0.303c-0.903,0-1.61-0.232-2.121-0.697
						c-0.512-0.465-0.768-1.125-0.768-1.984c0-1.838,1.469-2.799,4.409-2.888l1.542-0.05v-0.566c0-0.712-0.152-1.239-0.459-1.581
						c-0.307-0.34-0.799-0.51-1.475-0.51c-0.757,0-1.616,0.232-2.573,0.697l-0.423-1.054c0.448-0.243,0.94-0.434,1.473-0.573
						c0.535-0.137,1.069-0.207,1.606-0.207c1.085,0,1.89,0.239,2.413,0.722c0.523,0.481,0.784,1.253,0.784,2.316v6.208h-1.022
						V373.549z M33.676,369.074l-1.378,0.058c-1.094,0.039-1.886,0.21-2.368,0.511c-0.484,0.301-0.728,0.77-0.728,1.407
						c0,0.498,0.151,0.876,0.454,1.137c0.301,0.261,0.724,0.39,1.266,0.39c0.857,0,1.531-0.235,2.021-0.706
						c0.488-0.469,0.734-1.127,0.734-1.975v-0.822H33.676z M44.459,373.549v-5.561l0.025-1.096l0.042-1.079l-4.915,7.737h-1.718
						v-9.098h1.295v5.77l-0.06,1.51l-0.023,0.473l4.922-7.752h1.718v9.098h-1.286V373.549z M41.787,363.247
						c-1.025,0-1.772-0.197-2.243-0.593c-0.469-0.396-0.732-1.046-0.788-1.955h1.295c0.05,0.577,0.201,0.977,0.452,1.205
						c0.253,0.226,0.691,0.34,1.316,0.34c0.569,0,0.992-0.122,1.266-0.365c0.272-0.243,0.44-0.637,0.502-1.179h1.303
						c-0.068,0.874-0.346,1.519-0.84,1.93C43.559,363.043,42.804,363.247,41.787,363.247L41.787,363.247z"/>
				</defs>
				<use xlink:href="#SVGID_10_"  overflow="visible" fill="#FFFFFF"/>
				<clipPath id="SVGID_11_">
					<use xlink:href="#SVGID_10_"  overflow="visible"/>
				</clipPath>
				<g clip-path="url(#SVGID_11_)">
				</g>
			</g>
		</g>
		<g display="inline">
			<g>
				<defs>
					<path id="SVGID_12_" d="M47.369,105.241c-4.957-3.457-11.796-5.187-20.517-5.187c-6.032,0-11.381,0.654-16.049,1.959
						c-4.669,1.307-9.231,3.498-13.688,6.571l9.451,15.213c5.764-3.61,11.333-5.416,16.713-5.416c2.882,0,5.177,0.539,6.887,1.614
						c1.708,1.075,2.563,2.728,2.563,4.957c0,5.916-5.781,8.874-17.346,8.874H10.08v17.116h5.187c4.266,0,7.723,0.317,10.373,0.952
						c2.652,0.633,4.573,1.575,5.764,2.824c1.189,1.249,1.786,3.025,1.786,5.33c0,2.998-1.143,5.196-3.428,6.6
						c-2.287,1.401-5.928,2.102-10.922,2.102c-3.227,0-6.752-0.45-10.574-1.353c-3.824-0.903-7.578-2.295-11.267-4.179v18.903
						c4.496,1.728,8.673,2.921,12.535,3.573c3.861,0.652,8.057,0.979,12.591,0.979c11.026,0,19.643-2.247,25.847-6.743
						c6.204-4.494,9.308-10.661,9.308-18.498c0-11.526-7.032-18.172-21.092-19.94v-0.346c6.03-1.691,10.642-4.409,13.831-8.155
						c3.189-3.745,4.783-8.231,4.783-13.456C54.803,113.464,52.324,108.698,47.369,105.241L47.369,105.241z"/>
				</defs>
				<use xlink:href="#SVGID_12_"  overflow="visible" fill="#FFFFFF"/>
				<clipPath id="SVGID_13_">
					<use xlink:href="#SVGID_12_"  overflow="visible"/>
				</clipPath>
				<g clip-path="url(#SVGID_13_)">
				</g>
			</g>
		</g>
	</g>
</g>
</svg>
