<?xml version="1.0" encoding="utf-8"?>
<!-- Generator: Adobe Illustrator 21.1.0, SVG Export Plug-In . SVG Version: 6.00 Build 0)  -->
<svg version="1.1" id="Слой_1" xmlns="http://www.w3.org/2000/svg" xmlns:xlink="http://www.w3.org/1999/xlink" x="0px" y="0px"
	 viewBox="-1.259 0 230.667 243.827" enable-background="new -1.259 0 230.667 243.827" xml:space="preserve">
<path display="none" fill="#131F39" d="M-1.259,0L-1,243.827h230.407V0H-1.259z M160.587,191.327
	c0.001-0.001-110.097-0.001-148.038-0.001c-8.847,0-12.733-4.367-12.673-7.77c0.069-3.934,0-8.544,0-8.544
	c0.004-11.928,6.682-20.37,17.424-25.707l33.375-16.572c3.147-1.565,5.106-4.71,5.106-8.206v-11.732
	c-0.801-0.973-1.644-2.078-2.512-3.299c-4.33-6.072-7.799-12.831-10.323-20.121c-4.928-2.246-8.129-7.085-8.129-12.55V62.946
	c0-3.342,1.258-6.58,3.494-9.107V35.382c-0.195-1.908,0.189-13.27,8.461-22.641C53.947,4.612,64.44,0.49,80.236,0.49
	c15.793,0,27.438,4.122,34.614,12.247c8.274,9.372,7.506,20.737,7.309,22.641v18.456c2.236,2.53,3.494,5.766,3.494,9.108v13.879
	c0,4.222-1.931,8.16-5.229,10.788c-3.203,12.585-9.899,22.066-12.239,25.109v11.483c0,3.357,1.843,6.439,4.81,8.05l31.166,16.884
	c10.134,5.49,16.426,16.015,16.426,27.481V191.327z M201.717,191.326c-12.557,0-35.888,0-35.888,0v-14.705
	c0-13.368-7.34-25.648-19.155-32.05l-31.168-16.884c-1.283-0.699-2.082-2.034-2.082-3.483v-9.765
	c3.091-4.274,8.546-12.88,11.658-23.975c3.712-3.581,5.81-8.457,5.81-13.64V62.946c0-3.9-1.229-7.699-3.494-10.898V35.625
	c0.12-1.329,0.259-4.403-0.336-8.311c4.812-1.665,10.163-2.537,16.058-2.537c36.295,0,38.409,30.726,38.431,31.228v15.888
	c2.263,2.451,3.492,5.279,3.492,8.085v11.984c0,3.745-1.686,7.236-4.581,9.594c-2.881,10.792-9.968,18.946-12.729,21.808v9.518
	c0,2.73,1.493,5.237,4.091,6.645l23.243,14.479c8.902,4.823,17.045,13.644,15.586,30.464
	C210.653,184.47,211.207,191.326,201.717,191.326z"/>
<g id="_x33_2._2_">
	<g>
		<defs>
			<path id="SVGID_1_" d="M12.549,191.326c-8.847,0-12.733-4.367-12.673-7.77c0.069-3.934,0-8.544,0-8.544
				c0.004-11.928,6.682-20.37,17.424-25.707l33.375-16.572c3.147-1.565,5.106-4.71,5.106-8.206v-11.732
				c-0.801-0.973-1.644-2.078-2.512-3.299c-4.33-6.072-7.799-12.831-10.323-20.121c-4.928-2.246-8.129-7.085-8.129-12.55V62.946
				c0-3.342,1.258-6.58,3.494-9.107V35.382c-0.195-1.908,0.189-13.27,8.461-22.641C53.947,4.612,64.44,0.49,80.236,0.49
				c15.793,0,27.438,4.122,34.614,12.247c8.274,9.372,7.506,20.737,7.309,22.641v18.456c2.236,2.53,3.494,5.766,3.494,9.108v13.879
				c0,4.222-1.931,8.16-5.229,10.788c-3.203,12.585-9.899,22.066-12.239,25.109v11.483c0,3.357,1.843,6.439,4.81,8.05l31.166,16.884
				c10.134,5.49,16.426,16.015,16.426,27.481v14.711C160.588,191.326,50.49,191.326,12.549,191.326L12.549,191.326z M210.653,184.47
				c0,0,0.554,6.856-8.936,6.856c-12.557,0-35.888,0-35.888,0v-14.705c0-13.368-7.34-25.648-19.155-32.05l-31.168-16.884
				c-1.283-0.699-2.082-2.034-2.082-3.483v-9.765c3.091-4.274,8.546-12.88,11.658-23.975c3.712-3.581,5.81-8.457,5.81-13.64V62.946
				c0-3.9-1.229-7.699-3.494-10.898V35.625c0.12-1.329,0.259-4.403-0.336-8.311c4.812-1.665,10.163-2.537,16.058-2.537
				c36.295,0,38.409,30.726,38.431,31.228v15.888c2.263,2.451,3.492,5.279,3.492,8.085v11.984c0,3.745-1.686,7.236-4.581,9.594
				c-2.881,10.792-9.968,18.946-12.729,21.808v9.518c0,2.73,1.493,5.237,4.091,6.645l23.243,14.479
				C203.969,158.829,212.112,167.65,210.653,184.47L210.653,184.47z"/>
		</defs>
		<linearGradient id="SVGID_2_" gradientUnits="userSpaceOnUse" x1="-0.1247" y1="95.9085" x2="210.8234" y2="95.9085">
			<stop  offset="0" style="stop-color:#ED3338"/>
			<stop  offset="1" style="stop-color:#131F38"/>
		</linearGradient>
		<use xlink:href="#SVGID_1_"  overflow="visible" fill="url(#SVGID_2_)"/>
		<clipPath id="SVGID_3_">
			<use xlink:href="#SVGID_1_"  overflow="visible"/>
		</clipPath>
		<g clip-path="url(#SVGID_3_)">
		</g>
	</g>
</g>
<g display="none">
	<g id="_x33_2-3." display="inline">
		<g>
			<defs>
				<path id="SVGID_4_" d="M64.875,120.872h3.992c8.812,0,13.219,3.274,13.219,9.821c0,6.732-4.314,10.097-12.943,10.097H59.39
					v-33.551h20.47v4.704H64.875V120.872L64.875,120.872z M64.875,136.179h3.946c2.632,0,4.56-0.432,5.785-1.297
					c1.223-0.864,1.835-2.261,1.835-4.189c0-1.85-0.615-3.186-1.847-4.004c-1.233-0.818-3.379-1.229-6.437-1.229h-3.282
					L64.875,136.179L64.875,136.179z M107.514,137.761c-2.126,2.327-5.086,3.489-8.882,3.489c-2.371,0-4.467-0.534-6.288-1.605
					c-1.82-1.071-3.22-2.609-4.199-4.614c-0.98-2.005-1.468-4.33-1.468-6.977c0-4.114,1.055-7.328,3.166-9.638
					s5.086-3.465,8.928-3.465c3.672,0,6.578,1.183,8.72,3.547s3.213,5.549,3.213,9.557
					C110.704,132.2,109.641,135.436,107.514,137.761L107.514,137.761z M98.679,119.357c-2.265,0-3.905,0.749-4.922,2.248
					c-1.019,1.501-1.526,3.649-1.526,6.449c0,5.86,2.165,8.791,6.495,8.791c4.284,0,6.425-2.931,6.425-8.791
					C105.151,122.256,102.994,119.357,98.679,119.357L98.679,119.357z M132.323,140.791v-21.159h-7
					c-0.428,5.447-1.005,9.702-1.731,12.76c-0.727,3.06-1.677,5.295-2.846,6.701c-1.171,1.409-2.69,2.111-4.556,2.111
					c-1.179,0-2.165-0.168-2.96-0.504v-4.224c0.565,0.216,1.131,0.322,1.698,0.322c1.559,0,2.788-1.756,3.684-5.268
					c0.893-3.51,1.594-8.884,2.099-16.121h17.051v25.381h-5.439V140.791z M149.511,129.318c0.077,2.462,0.743,4.357,1.997,5.679
					c1.254,1.324,3.022,1.986,5.3,1.986c1.499,0,2.896-0.141,4.189-0.425s2.682-0.753,4.166-1.411v4.382
					c-1.316,0.627-2.647,1.071-3.994,1.331s-2.883,0.39-4.612,0.39c-3.948,0-7.035-1.15-9.26-3.454
					c-2.227-2.302-3.34-5.472-3.34-9.513c0-4.145,1.032-7.404,3.099-9.775c2.065-2.371,4.903-3.558,8.513-3.558
					c3.352,0,5.997,1.019,7.94,3.053c1.943,2.036,2.916,4.835,2.916,8.399v2.916H149.511L149.511,129.318z M159.61,120.654
					c-0.98-1.079-2.327-1.619-4.041-1.619c-1.713,0-3.085,0.544-4.12,1.63c-1.032,1.086-1.648,2.669-1.847,4.751h11.519
					C161.094,123.319,160.589,121.733,159.61,120.654L159.61,120.654z M176.592,129.318c0.075,2.462,0.741,4.357,1.995,5.679
					c1.256,1.324,3.022,1.986,5.302,1.986c1.499,0,2.894-0.141,4.187-0.425s2.682-0.753,4.166-1.411v4.382
					c-1.316,0.627-2.647,1.071-3.992,1.331c-1.347,0.26-2.885,0.39-4.614,0.39c-3.948,0-7.033-1.15-9.26-3.454
					c-2.227-2.302-3.338-5.472-3.338-9.513c0-4.145,1.032-7.404,3.097-9.775c2.067-2.371,4.903-3.558,8.515-3.558
					c3.35,0,5.997,1.019,7.94,3.053c1.943,2.036,2.914,4.835,2.914,8.399v2.916H176.592L176.592,129.318z M186.69,120.654
					c-0.98-1.079-2.325-1.619-4.039-1.619s-3.087,0.544-4.12,1.63c-1.032,1.086-1.65,2.669-1.848,4.751h11.521
					C188.173,123.319,187.668,121.733,186.69,120.654L186.69,120.654z M75.067,170.149v0.16c6.541,0.822,9.812,3.915,9.812,9.277
					c0,3.645-1.443,6.514-4.328,8.604c-2.887,2.092-6.896,3.137-12.025,3.137c-2.109,0-4.062-0.152-5.858-0.455
					c-1.796-0.303-3.739-0.859-5.831-1.663v-8.793c1.717,0.876,3.464,1.524,5.243,1.945c1.777,0.419,3.417,0.629,4.918,0.629
					c2.323,0,4.017-0.326,5.081-0.978c1.063-0.652,1.596-1.675,1.596-3.07c0-1.073-0.278-1.899-0.832-2.479
					c-0.554-0.581-1.447-1.019-2.68-1.314s-2.842-0.442-4.826-0.442h-2.414v-7.963h2.468c5.378,0,8.069-1.376,8.069-4.127
					c0-1.036-0.399-1.806-1.194-2.306s-1.862-0.751-3.203-0.751c-2.503,0-5.094,0.839-7.774,2.52l-4.397-7.078
					c2.074-1.43,4.197-2.449,6.368-3.056c2.171-0.608,4.66-0.913,7.465-0.913c4.058,0,7.24,0.805,9.545,2.414
					c2.306,1.607,3.458,3.824,3.458,6.649c0,2.429-0.741,4.517-2.225,6.259C80.018,168.098,77.873,169.362,75.067,170.149
					L75.067,170.149z M117.212,182.052v8.739H88.767v-6.969l9.571-9.679c2.734-2.86,4.523-4.812,5.362-5.858
					s1.426-1.943,1.756-2.694c0.33-0.751,0.496-1.538,0.496-2.36c0-1.019-0.33-1.823-0.992-2.412
					c-0.662-0.59-1.59-0.886-2.788-0.886c-1.233,0-2.48,0.353-3.74,1.059c-1.26,0.706-2.686,1.748-4.276,3.124l-5.818-6.809
					c2.018-1.806,3.716-3.097,5.094-3.874c1.376-0.778,2.873-1.372,4.49-1.783c1.617-0.411,3.437-0.617,5.455-0.617
					c2.539,0,4.805,0.448,6.796,1.341c1.993,0.893,3.539,2.167,4.639,3.821c1.1,1.654,1.65,3.508,1.65,5.563
					c0,1.538-0.193,2.958-0.577,4.262s-0.978,2.588-1.783,3.848c-0.805,1.26-1.872,2.587-3.203,3.981
					c-1.333,1.395-4.17,4.04-8.513,7.936v0.268h14.826V182.052z M160.32,186.488c-2.323,3.226-5.879,4.839-10.67,4.839
					c-4.681,0-8.212-1.684-10.589-5.054c-2.377-3.369-3.566-8.378-3.566-15.027c0-6.969,1.162-12.081,3.487-15.334
					c2.323-3.253,5.879-4.88,10.668-4.88c4.666,0,8.191,1.694,10.578,5.08c2.385,3.388,3.577,8.432,3.577,15.133
					C163.805,178.182,162.644,183.262,160.32,186.488L160.32,186.488z M152.438,162.12c-0.554-1.744-1.484-2.615-2.788-2.615
					s-2.234,0.839-2.788,2.52s-0.83,4.754-0.83,9.221c0,4.434,0.276,7.481,0.83,9.142c0.554,1.663,1.484,2.493,2.788,2.493
					c1.324,0,2.258-0.857,2.802-2.572c0.546-1.717,0.818-4.737,0.818-9.063C153.27,166.905,152.992,163.862,152.438,162.12
					L152.438,162.12z M192.492,186.488c-2.323,3.226-5.881,4.839-10.67,4.839c-4.683,0-8.212-1.684-10.589-5.054
					c-2.377-3.369-3.566-8.378-3.566-15.027c0-6.969,1.162-12.081,3.485-15.334s5.881-4.88,10.67-4.88
					c4.666,0,8.191,1.694,10.576,5.08c2.387,3.388,3.579,8.432,3.579,15.133C195.976,178.182,194.815,183.262,192.492,186.488
					L192.492,186.488z M184.609,162.12c-0.554-1.744-1.484-2.615-2.788-2.615s-2.234,0.839-2.788,2.52s-0.83,4.754-0.83,9.221
					c0,4.434,0.276,7.481,0.83,9.142c0.554,1.663,1.484,2.493,2.788,2.493c1.324,0,2.258-0.857,2.802-2.572
					c0.546-1.717,0.818-4.737,0.818-9.063C185.441,166.905,185.163,163.862,184.609,162.12L184.609,162.12z M224.663,186.488
					c-2.323,3.226-5.881,4.839-10.67,4.839c-4.683,0-8.212-1.684-10.589-5.054c-2.377-3.369-3.566-8.378-3.566-15.027
					c0-6.969,1.162-12.081,3.485-15.334s5.881-4.88,10.67-4.88c4.666,0,8.191,1.694,10.576,5.08
					c2.387,3.388,3.579,8.432,3.579,15.133C228.148,178.182,226.986,183.262,224.663,186.488L224.663,186.488z M216.781,162.12
					c-0.554-1.744-1.484-2.615-2.788-2.615s-2.234,0.839-2.788,2.52s-0.832,4.754-0.832,9.221c0,4.434,0.278,7.481,0.832,9.142
					c0.554,1.663,1.484,2.493,2.788,2.493c1.322,0,2.256-0.857,2.802-2.572c0.544-1.717,0.818-4.737,0.818-9.063
					C217.612,166.905,217.335,163.862,216.781,162.12L216.781,162.12z"/>
			</defs>
			<use xlink:href="#SVGID_4_"  overflow="visible" fill="#FFFFFF"/>
			<clipPath id="SVGID_5_">
				<use xlink:href="#SVGID_4_"  overflow="visible"/>
			</clipPath>
			<g clip-path="url(#SVGID_5_)">
			</g>
		</g>
	</g>
	<g display="inline">
		<path fill="#FFFFFF" d="M61.315,220.268c-1.425,0-2.526-0.46-3.308-1.381c-0.78-0.921-1.171-2.225-1.171-3.91
			c0-1.729,0.396-3.065,1.189-4.008c0.792-0.943,1.922-1.415,3.388-1.415c0.473,0,0.945,0.054,1.418,0.161
			c0.473,0.106,0.844,0.232,1.112,0.377l-0.457,1.33c-0.329-0.138-0.688-0.253-1.077-0.344s-0.733-0.137-1.032-0.137
			c-1.998,0-2.997,1.339-2.997,4.018c0,1.27,0.243,2.245,0.731,2.924c0.487,0.679,1.21,1.019,2.167,1.019
			c0.819,0,1.66-0.185,2.521-0.556v1.387C63.143,220.089,62.315,220.268,61.315,220.268z"/>
		<path fill="#FFFFFF" d="M74.624,214.902c0,1.685-0.403,3.001-1.211,3.947c-0.809,0.947-1.924,1.419-3.348,1.419
			c-0.88,0-1.66-0.216-2.343-0.651c-0.682-0.433-1.209-1.056-1.579-1.868c-0.371-0.811-0.557-1.76-0.557-2.848
			c0-1.685,0.4-2.997,1.202-3.938c0.802-0.939,1.915-1.41,3.339-1.41c1.376,0,2.47,0.482,3.28,1.444S74.624,213.26,74.624,214.902z
			 M67.131,214.902c0,1.321,0.251,2.327,0.754,3.019c0.502,0.692,1.241,1.037,2.216,1.037c0.976,0,1.716-0.345,2.222-1.033
			c0.506-0.689,0.759-1.696,0.759-3.023c0-1.314-0.253-2.312-0.759-2.994c-0.506-0.682-1.252-1.023-2.239-1.023
			c-0.976,0-1.711,0.336-2.208,1.009C67.379,212.566,67.131,213.569,67.131,214.902z"/>
		<path fill="#FFFFFF" d="M83.868,211.082h-3.195v8.997h-1.489v-8.997h-3.159v-1.339h7.844V211.082z"/>
		<path fill="#FFFFFF" d="M90.393,220.268c-0.64,0-1.225-0.124-1.754-0.372c-0.529-0.249-0.974-0.631-1.333-1.146h-0.107
			c0.071,0.604,0.107,1.176,0.107,1.717v4.254h-1.49v-14.977h1.212l0.206,1.415h0.072c0.383-0.566,0.829-0.975,1.337-1.227
			c0.509-0.251,1.092-0.377,1.75-0.377c1.305,0,2.312,0.469,3.021,1.405c0.709,0.938,1.063,2.252,1.063,3.942
			c0,1.698-0.36,3.017-1.082,3.957C92.674,219.798,91.673,220.268,90.393,220.268z M90.178,210.884
			c-1.005,0-1.732,0.293-2.181,0.877c-0.449,0.585-0.68,1.515-0.691,2.792v0.349c0,1.453,0.23,2.492,0.691,3.117
			c0.46,0.625,1.199,0.939,2.217,0.939c0.849,0,1.515-0.362,1.996-1.085c0.481-0.723,0.723-1.72,0.723-2.99
			c0-1.289-0.241-2.278-0.723-2.967C91.729,211.229,91.051,210.884,90.178,210.884z"/>
		<path fill="#FFFFFF" d="M95.518,209.743h1.598l2.154,5.895c0.473,1.345,0.766,2.317,0.879,2.914h0.072
			c0.078-0.321,0.241-0.87,0.489-1.646c0.248-0.776,1.061-3.164,2.437-7.163h1.598l-4.228,11.77
			c-0.419,1.163-0.908,1.989-1.467,2.476c-0.56,0.486-1.246,0.731-2.06,0.731c-0.455,0-0.904-0.054-1.347-0.16v-1.254
			c0.329,0.075,0.697,0.113,1.104,0.113c1.023,0,1.754-0.603,2.19-1.811l0.547-1.471L95.518,209.743z"/>
		<path fill="#FFFFFF" d="M114.885,223.654h-1.444v-3.574h-6.875v3.574h-1.436v-4.923h0.771c0.802-1.144,1.43-2.487,1.885-4.027
			s0.691-3.194,0.709-4.961h4.981v8.988h1.408V223.654z M112.04,218.731v-7.752h-2.208c-0.077,1.395-0.333,2.809-0.767,4.239
			c-0.435,1.431-0.974,2.602-1.62,3.514H112.04z"/>
		<path fill="#FFFFFF" d="M118.34,209.743v4.329h5.511v-4.329h1.489v10.337h-1.489v-4.659h-5.511v4.659h-1.49v-10.337H118.34z"/>
		<path fill="#FFFFFF" d="M129.899,209.743v6.555l-0.063,1.717l-0.027,0.538l5.322-8.809h1.857v10.337h-1.391v-6.319l0.026-1.245
			l0.045-1.226l-5.313,8.79h-1.858v-10.337H129.899z"/>
		<path fill="#FFFFFF" d="M145.884,209.743h1.634l-4.245,4.989l4.595,5.348h-1.741l-4.487-5.234v5.234h-1.49v-10.337h1.49v5.027
			L145.884,209.743z"/>
		<path fill="#FFFFFF" d="M158.179,214.902c0,1.685-0.403,3.001-1.211,3.947c-0.809,0.947-1.924,1.419-3.348,1.419
			c-0.88,0-1.66-0.216-2.343-0.651c-0.682-0.433-1.209-1.056-1.579-1.868c-0.371-0.811-0.557-1.76-0.557-2.848
			c0-1.685,0.4-2.997,1.202-3.938c0.802-0.939,1.915-1.41,3.339-1.41c1.376,0,2.47,0.482,3.28,1.444S158.179,213.26,158.179,214.902
			z M150.686,214.902c0,1.321,0.251,2.327,0.754,3.019c0.502,0.692,1.241,1.037,2.216,1.037c0.976,0,1.716-0.345,2.222-1.033
			c0.506-0.689,0.759-1.696,0.759-3.023c0-1.314-0.253-2.312-0.759-2.994c-0.506-0.682-1.252-1.023-2.239-1.023
			c-0.976,0-1.711,0.336-2.208,1.009C150.934,212.566,150.686,213.569,150.686,214.902z"/>
		<path fill="#FFFFFF" d="M168.769,212.337c0,0.673-0.184,1.184-0.552,1.532c-0.368,0.349-0.884,0.583-1.548,0.703v0.085
			c0.838,0.119,1.449,0.377,1.835,0.774s0.579,0.943,0.579,1.641c0,0.962-0.337,1.704-1.01,2.226
			c-0.673,0.522-1.655,0.783-2.948,0.783h-4.335v-10.337h4.317C167.549,209.743,168.769,210.608,168.769,212.337z M167.315,212.488
			c0-0.503-0.185-0.86-0.553-1.071c-0.367-0.211-0.926-0.316-1.674-0.316h-2.809v2.914h2.521c0.922,0,1.571-0.119,1.948-0.358
			C167.127,213.418,167.315,213.028,167.315,212.488z M167.594,216.968c0-0.56-0.202-0.967-0.606-1.222
			c-0.403-0.254-1.072-0.382-2.006-0.382h-2.701v3.405h2.737C166.734,218.768,167.594,218.168,167.594,216.968z"/>
		<path fill="#FFFFFF" d="M65.362,235.515c0,0.673-0.184,1.184-0.552,1.532c-0.368,0.35-0.884,0.583-1.548,0.703v0.085
			c0.838,0.119,1.449,0.377,1.835,0.774c0.386,0.396,0.579,0.943,0.579,1.641c0,0.962-0.337,1.704-1.01,2.226
			c-0.673,0.522-1.655,0.783-2.948,0.783h-4.335v-10.337h4.317C64.143,232.922,65.362,233.786,65.362,235.515z M63.909,235.666
			c0-0.503-0.185-0.86-0.553-1.071c-0.367-0.211-0.926-0.316-1.674-0.316h-2.809v2.914h2.521c0.922,0,1.571-0.119,1.948-0.358
			C63.721,236.596,63.909,236.207,63.909,235.666z M64.188,240.146c0-0.56-0.202-0.967-0.606-1.222
			c-0.403-0.254-1.072-0.382-2.006-0.382h-2.701v3.405h2.737C63.328,241.947,64.188,241.347,64.188,240.146z"/>
		<path fill="#FFFFFF" d="M79.947,241.91h4.361v-8.988h1.508v10.337H72.614v-10.337h1.49v8.988h4.353v-8.988h1.49V241.91z"/>
		<path fill="#FFFFFF" d="M95.607,234.261h-3.195v8.997h-1.489v-8.997h-3.159v-1.339h7.844V234.261z"/>
		<path fill="#FFFFFF" d="M103.605,243.258l-0.297-1.472h-0.071c-0.491,0.648-0.98,1.087-1.468,1.316
			c-0.487,0.229-1.097,0.344-1.826,0.344c-0.976,0-1.739-0.264-2.293-0.792c-0.554-0.527-0.83-1.279-0.83-2.254
			c0-2.088,1.589-3.182,4.766-3.282l1.669-0.057v-0.641c0-0.811-0.166-1.41-0.498-1.797c-0.332-0.386-0.863-0.58-1.593-0.58
			c-0.82,0-1.747,0.264-2.782,0.792l-0.458-1.198c0.485-0.277,1.016-0.494,1.593-0.651c0.578-0.158,1.156-0.236,1.737-0.236
			c1.173,0,2.042,0.273,2.606,0.82c0.565,0.547,0.849,1.424,0.849,2.632v7.054H103.605z M100.238,242.155
			c0.928,0,1.656-0.267,2.186-0.801c0.529-0.535,0.794-1.282,0.794-2.245v-0.933l-1.489,0.065c-1.185,0.045-2.039,0.238-2.563,0.581
			c-0.523,0.342-0.785,0.875-0.785,1.598c0,0.566,0.163,0.996,0.489,1.292C99.196,242.007,99.652,242.155,100.238,242.155z"/>
		<path fill="#FFFFFF" d="M114.409,234.261h-3.195v8.997h-1.489v-8.997h-3.159v-1.339h7.844V234.261z"/>
		<path fill="#FFFFFF" d="M120.512,243.446c-1.453,0-2.601-0.465-3.441-1.395c-0.841-0.931-1.261-2.223-1.261-3.876
			c0-1.666,0.391-2.99,1.171-3.971c0.781-0.98,1.829-1.472,3.146-1.472c1.232,0,2.208,0.427,2.926,1.279
			c0.718,0.852,1.077,1.976,1.077,3.371v0.991h-6.775c0.029,1.213,0.321,2.135,0.875,2.763c0.553,0.629,1.332,0.943,2.338,0.943
			c1.059,0,2.105-0.232,3.141-0.698v1.396c-0.526,0.239-1.024,0.41-1.494,0.514C121.743,243.395,121.177,243.446,120.512,243.446z
			 M120.108,234.044c-0.79,0-1.42,0.27-1.89,0.811c-0.47,0.541-0.746,1.289-0.83,2.245h5.143c0-0.987-0.209-1.744-0.628-2.268
			S120.886,234.044,120.108,234.044z"/>
	</g>
</g>
</svg>
