<?xml version="1.0" encoding="utf-8"?>
<!-- Generator: Adobe Illustrator 21.1.0, SVG Export Plug-In . SVG Version: 6.00 Build 0)  -->
<svg version="1.1" id="Capa_1" xmlns="http://www.w3.org/2000/svg" xmlns:xlink="http://www.w3.org/1999/xlink" x="0px" y="0px"
	 viewBox="27.547 10.667 237.098 272.961" enable-background="new 27.547 10.667 237.098 272.961" xml:space="preserve">


	<path fill="#fff" id="SVGID_2_" d="M35.986,229.304v-4.342h-5.398v4.342H29.13v-9.634h1.457v4.035h5.398v-4.035h1.457v9.634H35.986
				L35.986,229.304z M46.462,229.304l-0.291-1.371h-0.07c-0.479,0.603-0.958,1.012-1.437,1.225
				c-0.477,0.214-1.072,0.321-1.788,0.321c-0.954,0-1.704-0.245-2.245-0.738c-0.543-0.491-0.814-1.193-0.814-2.101
				c0-1.944,1.556-2.965,4.667-3.059l1.636-0.052v-0.597c0-0.756-0.162-1.315-0.487-1.674c-0.327-0.361-0.846-0.541-1.562-0.541
				c-0.802,0-1.71,0.247-2.724,0.738l-0.447-1.117c0.473-0.257,0.994-0.459,1.56-0.605c0.565-0.146,1.133-0.221,1.7-0.221
				c1.149,0,2.001,0.255,2.554,0.766c0.553,0.509,0.83,1.327,0.83,2.452v6.575H46.462L46.462,229.304z M46.083,224.565l-1.457,0.062
				c-1.161,0.042-1.997,0.221-2.51,0.541c-0.513,0.319-0.77,0.816-0.77,1.489c0,0.527,0.16,0.928,0.479,1.205
				c0.319,0.275,0.766,0.413,1.341,0.413c0.908,0,1.622-0.251,2.139-0.748c0.519-0.497,0.778-1.195,0.778-2.093V224.565
				L46.083,224.565z"/>
	<path fill="#fff" d="M62.646,228.165c-0.706,0.876-1.686,1.313-2.939,1.313c-0.627,0-1.201-0.114-1.72-0.347
				c-0.517-0.23-0.952-0.587-1.305-1.068h-0.104c0.07,0.563,0.104,1.096,0.104,1.6v3.965h-1.459V219.67h1.187l0.202,1.319h0.07
				c0.375-0.527,0.812-0.908,1.311-1.143c0.497-0.235,1.068-0.351,1.714-0.351c1.277,0,2.263,0.435,2.957,1.309
				c0.694,0.872,1.042,2.097,1.042,3.674C63.707,226.061,63.352,227.289,62.646,228.165L62.646,228.165z M61.486,221.697
				c-0.471-0.641-1.135-0.962-1.991-0.962c-0.984,0-1.696,0.273-2.135,0.818c-0.439,0.543-0.666,1.411-0.678,2.6v0.327
				c0,1.353,0.227,2.321,0.678,2.905c0.451,0.583,1.175,0.874,2.171,0.874c0.832,0,1.483-0.337,1.954-1.01
				c0.473-0.674,0.708-1.604,0.708-2.786C62.193,223.26,61.959,222.338,61.486,221.697L61.486,221.697z M75.562,229.304v-9.634
				h1.459v9.634H75.562L75.562,229.304z M70.254,229.304h-3.999v-9.634h1.459v3.981h2.628c1.225,0,2.131,0.229,2.72,0.682
				c0.589,0.455,0.884,1.133,0.884,2.035c0,0.968-0.313,1.698-0.936,2.193C72.384,229.055,71.466,229.304,70.254,229.304
				L70.254,229.304z M71.967,225.279c-0.357-0.247-0.966-0.371-1.828-0.371h-2.426v3.173h2.47c1.548,0,2.319-0.541,2.319-1.626
				C72.503,225.916,72.324,225.523,71.967,225.279L71.967,225.279z M86.969,229.304v-4.342h-5.396v4.342h-1.459v-9.634h1.459v4.035
				h5.396v-4.035h1.459v9.634H86.969L86.969,229.304z M99.081,229.304h-1.704l-4.394-4.879v4.879h-1.459v-9.634h1.459v4.685
				l4.155-4.685h1.6l-4.157,4.651L99.081,229.304L99.081,229.304z M101.841,224.75c0.03,1.133,0.315,1.99,0.858,2.576
				c0.541,0.585,1.305,0.88,2.289,0.88c1.036,0,2.063-0.217,3.075-0.651v1.301c-0.515,0.223-1.002,0.383-1.463,0.479
				c-0.459,0.096-1.014,0.144-1.664,0.144c-1.425,0-2.548-0.433-3.372-1.301c-0.824-0.866-1.235-2.071-1.235-3.612
				c0-1.552,0.383-2.786,1.147-3.698c0.766-0.914,1.792-1.371,3.081-1.371c1.207,0,2.163,0.397,2.864,1.191
				c0.704,0.794,1.054,1.84,1.054,3.141v0.922H101.841L101.841,224.75z M106.297,221.45c-0.411-0.489-0.996-0.734-1.758-0.734
				c-0.774,0-1.389,0.253-1.85,0.756c-0.459,0.503-0.73,1.201-0.812,2.093h5.035C106.913,222.645,106.708,221.939,106.297,221.45
				L106.297,221.45z"/>

	<path fill="#fff" id="SVGID_6_" d="M34.162,253.17c-0.848,0.872-2.039,1.309-3.574,1.309c-0.978,0-1.812-0.166-2.504-0.501v-1.291
				c0.351,0.134,0.732,0.255,1.143,0.359c0.409,0.106,0.882,0.158,1.415,0.158c1.018,0,1.806-0.273,2.359-0.816
				c0.553-0.545,0.86-1.361,0.918-2.444h-4.877v-1.241h4.859c-0.092-1.006-0.387-1.746-0.882-2.215
				c-0.495-0.467-1.215-0.702-2.159-0.702c-0.603,0-1.347,0.158-2.231,0.473l-0.413-1.229c0.321-0.152,0.724-0.281,1.203-0.383
				c0.481-0.102,0.956-0.154,1.425-0.154c1.499,0,2.638,0.429,3.418,1.289c0.78,0.858,1.169,2.095,1.169,3.712
				C35.431,251.071,35.008,252.296,34.162,253.17L34.162,253.17z M43.693,254.303v-8.385h-2.893
				c-0.158,2.087-0.377,3.742-0.66,4.967c-0.281,1.225-0.645,2.121-1.092,2.688c-0.449,0.569-1.018,0.854-1.71,0.854
				c-0.317,0-0.569-0.036-0.756-0.106v-1.08c0.128,0.034,0.275,0.052,0.439,0.052c0.674,0,1.211-0.712,1.608-2.135
				c0.399-1.425,0.702-3.586,0.906-6.487h5.633v9.632H43.693L43.693,254.303z M49.24,249.75c0.028,1.131,0.315,1.99,0.856,2.576
				c0.541,0.585,1.305,0.878,2.289,0.878c1.038,0,2.063-0.216,3.077-0.649v1.301c-0.515,0.222-1.004,0.381-1.463,0.479
				c-0.461,0.096-1.016,0.144-1.666,0.144c-1.423,0-2.548-0.433-3.372-1.301c-0.822-0.866-1.235-2.071-1.235-3.612
				c0-1.554,0.383-2.786,1.149-3.7c0.764-0.914,1.79-1.371,3.079-1.371c1.207,0,2.163,0.397,2.867,1.191
				c0.702,0.794,1.054,1.842,1.054,3.143v0.922H49.24L49.24,249.75z M53.694,246.451c-0.409-0.489-0.994-0.734-1.756-0.734
				c-0.774,0-1.391,0.251-1.85,0.756c-0.461,0.503-0.732,1.201-0.814,2.091h5.035C54.309,247.644,54.105,246.94,53.694,246.451
				L53.694,246.451z M65.92,254.303h-1.704l-4.394-4.877v4.877h-1.459v-9.632h1.459v4.685l4.155-4.685h1.6l-4.155,4.649
				L65.92,254.303L65.92,254.303z M71.071,245.918v8.385h-1.459v-8.385h-3.093v-1.247H74.2v1.247H71.071L71.071,245.918z
				 M83.53,253.166c-0.706,0.876-1.686,1.313-2.941,1.313c-0.627,0-1.199-0.116-1.718-0.347c-0.519-0.233-0.954-0.587-1.305-1.068
				H77.46c0.07,0.563,0.106,1.096,0.106,1.6v3.965h-1.459v-13.958h1.187l0.202,1.319h0.07c0.375-0.529,0.812-0.91,1.309-1.143
				c0.499-0.235,1.07-0.353,1.714-0.353c1.277,0,2.263,0.437,2.959,1.309c0.694,0.874,1.04,2.099,1.04,3.674
				C84.588,251.059,84.235,252.29,83.53,253.166L83.53,253.166z M82.369,246.697c-0.471-0.643-1.135-0.964-1.991-0.964
				c-0.984,0-1.696,0.273-2.135,0.818c-0.441,0.545-0.666,1.413-0.678,2.602v0.325c0,1.353,0.225,2.321,0.678,2.905
				c0.451,0.583,1.175,0.876,2.171,0.876c0.832,0,1.483-0.337,1.954-1.012c0.471-0.674,0.708-1.602,0.708-2.786
				C83.077,248.259,82.84,247.339,82.369,246.697L82.369,246.697z M94.266,253.156c-0.792,0.882-1.884,1.323-3.279,1.323
				c-0.86,0-1.626-0.202-2.293-0.607c-0.668-0.403-1.185-0.984-1.548-1.74c-0.363-0.756-0.545-1.64-0.545-2.654
				c0-1.57,0.393-2.792,1.179-3.668c0.786-0.876,1.874-1.315,3.269-1.315c1.347,0,2.417,0.449,3.211,1.345
				c0.796,0.896,1.193,2.109,1.193,3.638C95.453,251.049,95.056,252.274,94.266,253.156L94.266,253.156z M93.198,246.687
				c-0.495-0.635-1.227-0.954-2.193-0.954c-0.956,0-1.676,0.315-2.163,0.942c-0.485,0.625-0.73,1.562-0.73,2.802
				c0,1.231,0.247,2.169,0.74,2.812c0.491,0.645,1.215,0.968,2.171,0.968c0.954,0,1.68-0.321,2.175-0.964
				c0.495-0.641,0.742-1.58,0.742-2.816C93.939,248.253,93.693,247.323,93.198,246.687L93.198,246.687z M101.376,245.918v8.385
				h-1.459v-8.385h-3.093v-1.247h7.681v1.247H101.376L101.376,245.918z M107.388,249.75c0.028,1.131,0.315,1.99,0.856,2.576
				c0.543,0.585,1.305,0.878,2.289,0.878c1.038,0,2.063-0.216,3.077-0.649v1.301c-0.515,0.222-1.004,0.381-1.463,0.479
				c-0.459,0.096-1.014,0.144-1.666,0.144c-1.423,0-2.548-0.433-3.37-1.301c-0.824-0.866-1.235-2.071-1.235-3.612
				c0-1.554,0.381-2.786,1.147-3.7c0.764-0.914,1.792-1.371,3.081-1.371c1.207,0,2.161,0.397,2.864,1.191
				c0.704,0.794,1.054,1.842,1.054,3.143v0.922H107.388L107.388,249.75z M111.844,246.451c-0.411-0.489-0.996-0.734-1.758-0.734
				c-0.774,0-1.391,0.251-1.85,0.756c-0.461,0.503-0.732,1.201-0.814,2.091h5.037C112.459,247.644,112.253,246.94,111.844,246.451
				L111.844,246.451z M124.034,254.303h-1.652l-2.698-3.901l-2.724,3.901h-1.654l3.526-4.929l-3.35-4.703h1.662l2.54,3.69
				l2.532-3.69h1.642l-3.348,4.703L124.034,254.303L124.034,254.303z M132.797,254.303v-4.342h-5.398v4.342h-1.457v-9.632h1.457
				v4.033h5.398v-4.033h1.457v9.632H132.797L132.797,254.303z M144.301,254.303v-5.887l0.026-1.161l0.044-1.143l-5.204,8.191h-1.818
				v-9.632h1.371v6.108l-0.062,1.6l-0.026,0.501l5.212-8.209h1.82v9.632H144.301L144.301,254.303z M155.148,254.303v-4.358
				c-0.615,0.421-1.187,0.718-1.71,0.892c-0.525,0.172-1.119,0.259-1.78,0.259c-0.962,0-1.714-0.253-2.259-0.756
				c-0.545-0.503-0.818-1.187-0.818-2.049v-3.62h1.459v3.516c0,1.125,0.641,1.688,1.924,1.688c0.533,0,1.044-0.082,1.529-0.247
				c0.487-0.164,1.038-0.443,1.654-0.836v-4.121h1.457v9.632H155.148L155.148,254.303z M160.675,249.75
				c0.03,1.131,0.317,1.99,0.858,2.576s1.305,0.878,2.289,0.878c1.036,0,2.063-0.216,3.077-0.649v1.301
				c-0.517,0.222-1.004,0.381-1.463,0.479c-0.461,0.096-1.016,0.144-1.666,0.144c-1.423,0-2.548-0.433-3.372-1.301
				c-0.822-0.866-1.235-2.071-1.235-3.612c0-1.554,0.383-2.786,1.147-3.7c0.766-0.914,1.792-1.371,3.081-1.371
				c1.207,0,2.163,0.397,2.867,1.191c0.702,0.794,1.054,1.842,1.054,3.143v0.922H160.675L160.675,249.75z M165.131,246.451
				c-0.409-0.489-0.996-0.734-1.758-0.734c-0.772,0-1.389,0.251-1.848,0.756c-0.461,0.503-0.732,1.201-0.814,2.091h5.035
				C165.746,247.644,165.542,246.94,165.131,246.451L165.131,246.451z M175.775,246.234c-0.323-0.128-0.674-0.235-1.054-0.321
				c-0.381-0.084-0.718-0.126-1.01-0.126c-1.959,0-2.937,1.247-2.937,3.744c0,1.183,0.239,2.091,0.718,2.724
				c0.477,0.631,1.185,0.948,2.123,0.948c0.802,0,1.626-0.172,2.47-0.517v1.291c-0.645,0.335-1.457,0.501-2.435,0.501
				c-1.395,0-2.474-0.429-3.239-1.287c-0.764-0.858-1.147-2.073-1.147-3.644c0-1.612,0.389-2.856,1.165-3.734
				c0.776-0.88,1.882-1.319,3.317-1.319c0.463,0,0.926,0.05,1.389,0.15c0.463,0.098,0.826,0.216,1.091,0.351L175.775,246.234
				L175.775,246.234z M185.926,254.303h-1.704l-4.396-4.877v4.877h-1.457v-9.632h1.457v4.685l4.157-4.685h1.6l-4.157,4.649
				L185.926,254.303L185.926,254.303z M194.838,253.156c-0.79,0.882-1.884,1.323-3.277,1.323c-0.862,0-1.626-0.202-2.295-0.607
				c-0.668-0.403-1.183-0.984-1.546-1.74c-0.365-0.756-0.545-1.64-0.545-2.654c0-1.57,0.393-2.792,1.177-3.668
				c0.786-0.876,1.876-1.315,3.269-1.315c1.349,0,2.419,0.449,3.213,1.345c0.794,0.896,1.191,2.109,1.191,3.638
				C196.025,251.049,195.63,252.274,194.838,253.156L194.838,253.156z M193.772,246.687c-0.497-0.635-1.227-0.954-2.193-0.954
				c-0.956,0-1.676,0.315-2.163,0.942c-0.487,0.625-0.73,1.562-0.73,2.802c0,1.231,0.247,2.169,0.738,2.812
				c0.493,0.645,1.217,0.968,2.171,0.968c0.956,0,1.68-0.321,2.177-0.964c0.493-0.641,0.742-1.58,0.742-2.816
				C194.513,248.253,194.265,247.323,193.772,246.687L193.772,246.687z M205.534,254.303v-5.887l0.026-1.161l0.044-1.143
				l-5.202,8.191h-1.82v-9.632h1.371v6.108l-0.062,1.6l-0.026,0.501l5.212-8.209h1.82v9.632H205.534L205.534,254.303z
				 M202.704,243.396c-1.082,0-1.874-0.208-2.371-0.627c-0.499-0.419-0.778-1.111-0.836-2.071h1.371
				c0.052,0.609,0.212,1.034,0.479,1.275c0.267,0.241,0.732,0.361,1.393,0.361c0.603,0,1.05-0.13,1.341-0.387
				c0.289-0.259,0.467-0.673,0.531-1.249h1.379c-0.07,0.926-0.365,1.608-0.888,2.043
				C204.582,243.177,203.782,243.396,202.704,243.396L202.704,243.396z"/>

	<path fill="#fff" id="SVGID_8_" d="M35.739,279.303v-8.367h-5.152v8.367H29.13v-9.632h8.084v9.632H35.739L35.739,279.303z M47.732,278.165
				c-0.708,0.876-1.688,1.315-2.941,1.315c-0.627,0-1.201-0.116-1.718-0.347c-0.519-0.233-0.954-0.589-1.305-1.068h-0.106
				c0.07,0.561,0.106,1.094,0.106,1.6v3.963H40.31v-13.956h1.187l0.202,1.317h0.07c0.375-0.527,0.81-0.908,1.309-1.143
				c0.497-0.235,1.068-0.351,1.714-0.351c1.277,0,2.263,0.437,2.957,1.309c0.696,0.874,1.042,2.099,1.042,3.674
				C48.791,276.06,48.438,277.289,47.732,278.165L47.732,278.165z M46.572,271.696c-0.473-0.641-1.137-0.962-1.991-0.962
				c-0.984,0-1.698,0.273-2.137,0.818c-0.439,0.545-0.666,1.411-0.676,2.602v0.325c0,1.353,0.224,2.321,0.676,2.905
				c0.451,0.583,1.175,0.874,2.171,0.874c0.832,0,1.483-0.337,1.956-1.01c0.471-0.674,0.708-1.602,0.708-2.786
				C47.279,273.26,47.043,272.338,46.572,271.696L46.572,271.696z M58.467,278.157c-0.79,0.882-1.882,1.323-3.277,1.323
				c-0.862,0-1.626-0.202-2.295-0.607c-0.667-0.405-1.183-0.984-1.545-1.74c-0.363-0.756-0.545-1.64-0.545-2.654
				c0-1.57,0.393-2.794,1.179-3.67c0.784-0.876,1.874-1.313,3.269-1.313c1.347,0,2.417,0.447,3.211,1.345
				c0.794,0.896,1.191,2.109,1.191,3.638C59.653,276.048,59.259,277.275,58.467,278.157L58.467,278.157z M57.4,271.688
				c-0.495-0.635-1.227-0.954-2.193-0.954c-0.956,0-1.676,0.313-2.163,0.94c-0.487,0.627-0.73,1.561-0.73,2.804
				c0,1.231,0.247,2.167,0.738,2.812c0.493,0.645,1.217,0.966,2.171,0.966c0.956,0,1.682-0.321,2.177-0.962
				c0.495-0.641,0.742-1.58,0.742-2.816C58.142,273.254,57.896,272.324,57.4,271.688L57.4,271.688z M69.163,282.635v-3.332h-6.731
				v3.332h-1.407v-4.588h0.756c0.786-1.066,1.401-2.317,1.846-3.753c0.445-1.435,0.678-2.977,0.694-4.622h4.879v8.375h1.379v4.588
				H69.163L69.163,282.635z M67.792,270.822h-2.161c-0.076,1.301-0.327,2.618-0.752,3.951c-0.425,1.333-0.954,2.423-1.588,3.273h4.5
				V270.822L67.792,270.822z M75.87,280.638c-0.411,1.085-0.89,1.854-1.437,2.307c-0.547,0.455-1.221,0.682-2.017,0.682
				c-0.447,0-0.886-0.05-1.319-0.148v-1.169c0.323,0.07,0.682,0.104,1.08,0.104c1.002,0,1.718-0.561,2.145-1.688l0.537-1.371
				l-3.885-9.684h1.564l2.109,5.492c0.463,1.253,0.75,2.159,0.862,2.716h0.07c0.076-0.299,0.237-0.81,0.479-1.534
				c0.242-0.724,1.038-2.949,2.385-6.675h1.566L75.87,280.638L75.87,280.638z M89.132,279.303h-1.706l-4.394-4.877v4.877h-1.459
				v-9.632h1.459v4.683l4.157-4.683h1.6l-4.157,4.649L89.132,279.303L89.132,279.303z M98.852,282.635v-3.332h-7.936v-9.632h1.459
				v8.375h5.116v-8.375h1.459v8.375h1.361v4.588H98.852L98.852,282.635z M109.136,279.303v-5.889l0.026-1.159l0.044-1.143
				l-5.202,8.191h-1.82v-9.632h1.371v6.108l-0.062,1.6l-0.026,0.501l5.212-8.209h1.82v9.632H109.136L109.136,279.303z
				 M120.546,279.303v-5.889l0.026-1.159l0.044-1.143l-5.204,8.191h-1.82v-9.632h1.371v6.108l-0.06,1.6l-0.028,0.501l5.214-8.209
				h1.818v9.632H120.546L120.546,279.303z"/>
<path fill="#fff" id="SVGID_10_" d="M45.808,164.489v0.16c6.553,0.824,9.828,3.921,9.828,9.293c0,3.652-1.445,6.525-4.336,8.62
				c-2.893,2.095-6.908,3.143-12.045,3.143c-2.113,0-4.069-0.152-5.867-0.457c-1.8-0.305-3.747-0.86-5.841-1.666v-8.808
				c1.718,0.878,3.468,1.527,5.25,1.946c1.782,0.421,3.424,0.631,4.927,0.631c2.327,0,4.025-0.327,5.09-0.98
				c1.066-0.653,1.598-1.678,1.598-3.075c0-1.074-0.277-1.902-0.832-2.484c-0.555-0.581-1.449-1.02-2.686-1.317
				c-1.235-0.295-2.846-0.443-4.833-0.443h-2.417v-7.976h2.472c5.388,0,8.082-1.377,8.082-4.135c0-1.038-0.399-1.808-1.195-2.309
				c-0.796-0.501-1.866-0.752-3.209-0.752c-2.506,0-5.102,0.842-7.788,2.524l-4.404-7.09c2.077-1.431,4.202-2.452,6.378-3.061
				c2.175-0.607,4.667-0.912,7.479-0.912c4.063,0,7.25,0.806,9.56,2.416c2.309,1.612,3.464,3.833,3.464,6.661
				c0,2.436-0.742,4.524-2.229,6.27C50.767,162.434,48.619,163.701,45.808,164.489L45.808,164.489z M78.035,164.489v0.16
				c6.553,0.824,9.828,3.921,9.828,9.293c0,3.652-1.445,6.525-4.336,8.62c-2.893,2.095-6.908,3.143-12.045,3.143
				c-2.113,0-4.069-0.152-5.867-0.457c-1.8-0.305-3.746-0.86-5.841-1.666v-8.808c1.718,0.878,3.468,1.527,5.25,1.946
				c1.78,0.421,3.424,0.631,4.927,0.631c2.327,0,4.025-0.327,5.09-0.98c1.064-0.653,1.598-1.678,1.598-3.075
				c0-1.074-0.277-1.902-0.832-2.484c-0.555-0.581-1.451-1.02-2.686-1.317c-1.235-0.295-2.846-0.443-4.833-0.443H65.87v-7.976h2.47
				c5.39,0,8.084-1.377,8.084-4.135c0-1.038-0.399-1.808-1.195-2.309c-0.798-0.501-1.866-0.752-3.209-0.752
				c-2.508,0-5.104,0.842-7.788,2.524l-4.406-7.09c2.077-1.431,4.204-2.452,6.378-3.061c2.175-0.607,4.669-0.912,7.479-0.912
				c4.065,0,7.252,0.806,9.562,2.416c2.309,1.612,3.464,3.833,3.464,6.661c0,2.436-0.744,4.524-2.229,6.27
				C82.994,162.434,80.846,163.701,78.035,164.489L78.035,164.489z M118.533,162.554v22.613h-10.5v-30.427h22.611v7.814H118.533
				L118.533,162.554z M160.628,181.527c-2.676,2.784-6.423,4.177-11.24,4.177c-4.618,0-8.293-1.423-11.023-4.27
				c-2.73-2.848-4.095-6.697-4.095-11.548c0-4.959,1.337-8.814,4.015-11.562c2.676-2.748,6.431-4.121,11.266-4.121
				c2.989,0,5.631,0.635,7.922,1.906c2.291,1.271,4.059,3.093,5.304,5.464c1.245,2.373,1.866,5.144,1.866,8.313
				C164.644,174.864,163.305,178.745,160.628,181.527L160.628,181.527z M152.935,164.006c-0.682-1.325-1.844-1.989-3.492-1.989
				c-1.612,0-2.766,0.66-3.464,1.974c-0.698,1.315-1.048,3.281-1.048,5.895s0.351,4.604,1.048,5.976
				c0.698,1.369,1.87,2.053,3.518,2.053c1.63,0,2.78-0.684,3.452-2.053c0.67-1.371,1.006-3.362,1.006-5.976
				C153.955,167.291,153.615,165.331,152.935,164.006L152.935,164.006z M196.977,196.339v-11.171h-20.114v11.171h-9.185v-18.987
				h2.686c1.558-2.65,2.869-5.957,3.933-9.922c1.066-3.965,1.804-8.195,2.217-12.689h25.137v22.611h4.51v18.987H196.977
				L196.977,196.339z M191.15,162.554h-5.988c-0.323,2.417-0.762,4.773-1.317,7.064c-0.555,2.291-1.361,4.869-2.417,7.734h9.722
				V162.554L191.15,162.554z M230.304,185.168l-2.013-4.029h-0.216c-1.413,1.756-2.854,2.955-4.324,3.598
				c-1.467,0.645-3.366,0.968-5.693,0.968c-2.864,0-5.12-0.86-6.767-2.578c-1.648-1.72-2.47-4.137-2.47-7.252
				c0-3.239,1.127-5.653,3.384-7.236c2.255-1.586,5.523-2.476,9.802-2.672l5.076-0.162v-0.429c0-2.506-1.237-3.761-3.706-3.761
				c-2.221,0-5.039,0.752-8.459,2.257l-3.035-6.93c3.544-1.826,8.02-2.738,13.428-2.738c3.903,0,6.924,0.966,9.063,2.901
				c2.139,1.932,3.209,4.637,3.209,8.11v19.953H230.304L230.304,185.168z M227.137,171.579l-2.417,0.106
				c-3.456,0.126-5.184,1.397-5.184,3.815c0,1.862,0.994,2.792,2.981,2.792c1.271,0,2.359-0.403,3.263-1.209
				c0.904-0.806,1.357-1.852,1.357-3.141V171.579L227.137,171.579z"/>

</svg>
