<?xml version="1.0" encoding="utf-8"?>
<!-- Generator: Adobe Illustrator 21.1.0, SVG Export Plug-In . SVG Version: 6.00 Build 0)  -->
<svg version="1.1" id="Слой_1" xmlns="http://www.w3.org/2000/svg" xmlns:xlink="http://www.w3.org/1999/xlink" x="0px" y="0px"
	 viewBox="0 0 213.375 205.014" enable-background="new 0 0 213.375 205.014" xml:space="preserve">
<g id="_x33_80-2." display="none">
	<path display="inline" fill="#131F39" d="M84.51,120.309c21.617,0,39.206-17.641,39.206-39.323
		c0-21.681-17.588-39.318-39.206-39.318c-21.621,0-39.211,17.639-39.211,39.318C45.299,102.669,62.889,120.309,84.51,120.309z
		 M84.51,57.396c12.97,0,23.521,10.582,23.521,23.59c0,13.011-10.551,23.596-23.521,23.596c-12.972,0-23.525-10.584-23.525-23.596
		C60.985,67.979,71.538,57.396,84.51,57.396z"/>
	<path display="inline" fill="#131F39" d="M84.51,10.724L104.751,0.8c1.109-0.542,2.283-0.8,3.438-0.8H60.825
		c1.157,0,2.332,0.258,3.438,0.8L84.51,10.724z"/>
	<path display="inline" fill="#131F39" d="M17.878,59.273L14.722,36.9c-0.595-4.201,2.242-8.114,6.411-8.847l22.195-3.904
		L53.892,4.181C55.298,1.524,58.011,0,60.825,0H0v80.987c0-1.972,0.735-3.944,2.204-5.468L17.878,59.273z"/>
	<path display="inline" fill="#131F39" d="M108.189,0c2.816,0,5.527,1.524,6.933,4.179l10.566,19.972l22.199,3.902
		c4.166,0.733,7.002,4.648,6.409,8.849l-3.16,22.373l15.676,16.244c2.938,3.049,2.938,7.888-0.002,10.938l-15.674,16.24l3.158,22.39
		c0.595,4.199-2.244,8.114-6.409,8.847l-17.207,3.023l-4.992,0.877l-2.848,5.383l-7.72,14.584c-0.037,0.073-0.08,0.142-0.122,0.215
		c-1.438,2.52-4.074,3.964-6.807,3.964c-1.159,0-2.333-0.258-3.44-0.802l-20.241-9.928l-20.245,9.928
		c-1.107,0.544-2.281,0.802-3.438,0.802c-2.737,0-5.373-1.445-6.809-3.968c-0.041-0.071-0.084-0.14-0.123-0.213l-7.716-14.589
		l-2.846-5.375l-4.998-0.879l-17.199-3.021c-4.168-0.733-7.006-4.648-6.411-8.847l3.156-22.39L2.206,86.455
		C0.736,84.93,0,82.958,0,80.987v124.027h213.375V0H108.189z M127.055,197.118c-0.002,2.738-1.296,5.279-3.423,6.716
		c-2.13,1.438-4.788,1.569-7.028,0.346l-32.075-17.527L52.445,204.18c-1.021,0.557-2.126,0.834-3.229,0.834
		c-1.32,0-2.638-0.396-3.799-1.18c-2.13-1.438-3.425-3.981-3.425-6.716v-51.97c0,0,4.813,17.358,14.361,22.176
		c7.325,2.388,28.173-9.797,28.173-9.797s20.555,9.812,23.755,9.797c10.897-0.054,18.774-22.171,18.774-22.171V197.118z"/>
</g>
<g id="_x33_80.">
	<g>
		<defs>
			<path id="SVGID_1_" d="M123.632,203.834c-2.13,1.438-4.788,1.569-7.028,0.346l-32.075-17.527L52.445,204.18
				c-1.021,0.557-2.126,0.834-3.229,0.834c-1.32,0-2.638-0.396-3.799-1.18c-2.13-1.438-3.425-3.981-3.425-6.716v-51.97
				c0,0,4.813,17.358,14.361,22.176c7.325,2.388,28.173-9.797,28.173-9.797s20.555,9.812,23.755,9.797
				c10.897-0.054,18.774-22.171,18.774-22.171v51.965C127.053,199.856,125.759,202.397,123.632,203.834L123.632,203.834z
				 M166.81,86.457l-15.674,16.24l3.158,22.39c0.595,4.199-2.244,8.114-6.409,8.847l-17.207,3.023l-4.992,0.877l-2.848,5.383
				l-7.72,14.584c-0.037,0.073-0.08,0.142-0.122,0.215c-1.438,2.52-4.074,3.964-6.807,3.964c-1.159,0-2.333-0.258-3.44-0.802
				l-20.241-9.928l-20.245,9.928c-1.107,0.544-2.281,0.802-3.438,0.802c-2.737,0-5.373-1.445-6.809-3.968
				c-0.041-0.071-0.084-0.14-0.123-0.213l-7.716-14.589l-2.846-5.375l-4.998-0.879l-17.199-3.021
				c-4.168-0.733-7.006-4.648-6.411-8.847l3.156-22.39L2.206,86.455c-2.941-3.049-2.941-7.888-0.002-10.936l15.674-16.246
				L14.722,36.9c-0.595-4.201,2.242-8.114,6.411-8.847l22.195-3.904L53.892,4.181C55.298,1.524,58.011,0,60.825,0
				c1.157,0,2.332,0.258,3.438,0.8l20.247,9.924L104.751,0.8c1.109-0.542,2.283-0.8,3.438-0.8c2.816,0,5.527,1.524,6.933,4.179
				l10.566,19.972l22.199,3.902c4.166,0.733,7.002,4.648,6.409,8.849l-3.16,22.373l15.676,16.244
				C169.75,78.568,169.75,83.407,166.81,86.457L166.81,86.457z M84.51,41.668c-21.621,0-39.211,17.639-39.211,39.318
				c0,21.683,17.59,39.323,39.211,39.323c21.617,0,39.206-17.641,39.206-39.323C123.716,59.305,106.128,41.668,84.51,41.668
				L84.51,41.668z M84.51,104.582c-12.972,0-23.525-10.584-23.525-23.596c0-13.007,10.553-23.59,23.525-23.59
				c12.97,0,23.521,10.582,23.521,23.59C108.031,93.997,97.48,104.582,84.51,104.582L84.51,104.582z"/>
		</defs>
		<linearGradient id="SVGID_2_" gradientUnits="userSpaceOnUse" x1="-7.298296e-06" y1="102.507" x2="169.0152" y2="102.507">
			<stop  offset="0" style="stop-color:#ED3338"/>
			<stop  offset="1" style="stop-color:#131F38"/>
		</linearGradient>
		<use xlink:href="#SVGID_1_"  overflow="visible" fill="url(#SVGID_2_)"/>
		<clipPath id="SVGID_3_">
			<use xlink:href="#SVGID_1_"  overflow="visible"/>
		</clipPath>
		<g clip-path="url(#SVGID_3_)">
		</g>
	</g>
</g>
<g id="_x33_80-3." display="none">
	<g display="inline">
		<g>
			<defs>
				<path id="SVGID_4_" d="M106.908,113.022v0.226c9.176,1.154,13.765,5.491,13.765,13.011c0,5.115-2.025,9.139-6.075,12.071
					c-4.048,2.934-9.67,4.401-16.865,4.401c-2.96,0-5.697-0.213-8.217-0.639c-2.518-0.426-5.246-1.204-8.178-2.332v-12.334
					c2.406,1.228,4.856,2.137,7.352,2.726c2.494,0.589,4.794,0.883,6.899,0.883c3.259,0,5.635-0.456,7.127-1.372
					c1.49-0.914,2.236-2.35,2.236-4.306c0-1.503-0.389-2.662-1.165-3.478c-0.778-0.815-2.03-1.428-3.76-1.844
					c-1.729-0.413-3.986-0.619-6.77-0.619h-3.384v-11.17h3.461c7.544,0,11.319-1.93,11.319-5.79c0-1.455-0.559-2.532-1.673-3.235
					c-1.116-0.701-2.614-1.053-4.495-1.053c-3.509,0-7.144,1.178-10.906,3.534l-6.166-9.926c2.907-2.006,5.884-3.435,8.932-4.287
					c3.046-0.853,6.536-1.279,10.472-1.279c5.691,0,10.154,1.127,13.387,3.384c3.235,2.257,4.852,5.366,4.852,9.326
					c0,3.41-1.041,6.336-3.122,8.78C113.852,110.147,110.843,111.921,106.908,113.022L106.908,113.022z M155.419,113.022
					c4.061,2.307,6.925,4.607,8.593,6.901c1.666,2.294,2.5,4.77,2.5,7.426c0,4.889-1.767,8.675-5.302,11.358
					c-3.534,2.681-8.473,4.024-14.815,4.024c-6.469,0-11.42-1.311-14.855-3.93s-5.151-6.387-5.151-11.3
					c0-3.184,0.765-5.897,2.294-8.143c1.528-2.242,4.098-4.28,7.709-6.11c-2.909-1.956-5.033-4.055-6.374-6.299
					c-1.342-2.244-2.012-4.706-2.012-7.389c0-4.212,1.642-7.49,4.925-9.835c3.285-2.343,7.823-3.515,13.613-3.515
					c5.792,0,10.298,1.165,13.52,3.496c3.221,2.332,4.831,5.641,4.831,9.928c0,2.909-0.757,5.459-2.274,7.653
					C161.103,109.483,158.702,111.394,155.419,113.022L155.419,113.022z M149.628,98.018c-0.879-0.725-1.931-1.09-3.16-1.09
					c-1.279,0-2.356,0.37-3.235,1.109c-0.877,0.74-1.316,1.7-1.316,2.877c0,2.156,1.468,4.061,4.401,5.716
					c1.78-1.027,2.995-1.967,3.648-2.82c0.651-0.853,0.978-1.817,0.978-2.896C150.945,99.71,150.505,98.745,149.628,98.018
					L149.628,98.018z M151.414,123.571c-0.965-1.191-2.689-2.526-5.172-4.005c-2.231,1.178-3.829,2.363-4.794,3.554
					c-0.965,1.191-1.447,2.451-1.447,3.779c0,1.556,0.55,2.801,1.655,3.741c1.103,0.94,2.633,1.412,4.586,1.412
					c4.412,0,6.619-1.617,6.619-4.852C152.861,125.972,152.379,124.762,151.414,123.571L151.414,123.571z M206.486,135.943
					c-3.259,4.527-8.247,6.789-14.967,6.789c-6.568,0-11.519-2.363-14.853-7.09c-3.336-4.725-5.001-11.751-5.001-21.077
					c0-9.777,1.629-16.947,4.887-21.511c3.259-4.562,8.249-6.843,14.967-6.843c6.544,0,11.489,2.375,14.836,7.125
					c3.347,4.751,5.02,11.828,5.02,21.229C211.375,124.293,209.745,131.418,206.486,135.943L206.486,135.943z M195.43,101.761
					c-0.778-2.446-2.081-3.666-3.911-3.666s-3.134,1.178-3.91,3.534c-0.778,2.358-1.167,6.669-1.167,12.936
					c0,6.219,0.389,10.493,1.167,12.824c0.776,2.331,2.079,3.496,3.91,3.496c1.855,0,3.165-1.204,3.93-3.61s1.148-6.643,1.148-12.71
					C196.597,108.473,196.208,104.205,195.43,101.761L195.43,101.761z"/>
			</defs>
			<use xlink:href="#SVGID_4_"  overflow="visible" fill="#FFFFFF"/>
			<clipPath id="SVGID_5_">
				<use xlink:href="#SVGID_4_"  overflow="visible"/>
			</clipPath>
			<g clip-path="url(#SVGID_5_)">
			</g>
		</g>
	</g>
	<g display="inline">
		<g>
			<defs>
				<path id="SVGID_6_" d="M88.452,170.77c-0.322-0.129-0.673-0.236-1.055-0.322c-0.381-0.084-0.718-0.127-1.01-0.127
					c-1.958,0-2.935,1.249-2.935,3.745c0,1.184,0.237,2.09,0.716,2.724c0.477,0.632,1.184,0.95,2.122,0.95
					c0.802,0,1.627-0.174,2.47-0.52v1.292c-0.645,0.335-1.456,0.501-2.434,0.501c-1.395,0-2.476-0.428-3.24-1.286
					c-0.765-0.86-1.146-2.074-1.146-3.644c0-1.612,0.389-2.857,1.165-3.736s1.883-1.318,3.317-1.318c0.464,0,0.927,0.05,1.389,0.15
					c0.464,0.099,0.826,0.217,1.09,0.352L88.452,170.77L88.452,170.77z M92.021,174.285c0.028,1.131,0.314,1.989,0.856,2.576
					c0.542,0.585,1.305,0.879,2.29,0.879c1.036,0,2.062-0.217,3.076-0.651v1.299c-0.516,0.224-1.004,0.383-1.464,0.481
					c-0.46,0.095-1.015,0.144-1.666,0.144c-1.423,0-2.547-0.434-3.369-1.301c-0.825-0.866-1.236-2.07-1.236-3.612
					c0-1.552,0.383-2.786,1.148-3.7c0.765-0.912,1.791-1.37,3.079-1.37c1.208,0,2.163,0.396,2.866,1.191
					c0.703,0.795,1.054,1.842,1.054,3.143v0.922h-6.634V174.285z M96.477,170.985c-0.409-0.49-0.997-0.733-1.758-0.733
					c-0.774,0-1.391,0.251-1.851,0.755c-0.46,0.503-0.731,1.2-0.811,2.092h5.035C97.092,172.18,96.886,171.475,96.477,170.985
					L96.477,170.985z M108.566,177.699c-0.707,0.877-1.686,1.314-2.939,1.314c-0.628,0-1.2-0.116-1.718-0.346
					c-0.52-0.232-0.954-0.589-1.305-1.069h-0.107c0.071,0.563,0.107,1.096,0.107,1.6v3.964h-1.46v-13.957h1.187l0.202,1.318h0.071
					c0.374-0.527,0.811-0.907,1.309-1.142c0.497-0.234,1.069-0.352,1.715-0.352c1.277,0,2.262,0.438,2.956,1.311
					c0.696,0.873,1.041,2.096,1.041,3.672C109.624,175.595,109.273,176.824,108.566,177.699L108.566,177.699z M107.407,171.232
					c-0.473-0.643-1.137-0.963-1.991-0.963c-0.985,0-1.696,0.273-2.135,0.817c-0.441,0.546-0.666,1.412-0.677,2.603v0.323
					c0,1.354,0.224,2.322,0.677,2.905c0.451,0.583,1.174,0.875,2.171,0.875c0.832,0,1.483-0.337,1.956-1.012
					c0.471-0.673,0.707-1.602,0.707-2.786C108.114,172.795,107.878,171.873,107.407,171.232L107.407,171.232z M115.54,170.454v8.384
					h-1.458v-8.384h-3.094v-1.249h7.683v1.249H115.54L115.54,170.454z M127.529,178.838v-5.888l0.026-1.161l0.045-1.142
					l-5.203,8.191h-1.819v-9.633h1.37v6.108l-0.062,1.6l-0.026,0.501l5.213-8.21h1.819v9.633L127.529,178.838L127.529,178.838z
					 M141.06,177.497c-0.83,0.866-1.988,1.359-3.476,1.481v4.184h-1.442v-4.184c-1.453-0.11-2.603-0.609-3.446-1.494
					c-0.843-0.884-1.266-2.042-1.266-3.472c0-1.458,0.421-2.618,1.262-3.48c0.839-0.862,2.008-1.35,3.502-1.468v-3.902h1.389v3.902
					c1.47,0.135,2.625,0.641,3.463,1.52s1.256,2.021,1.256,3.427C142.303,175.472,141.888,176.633,141.06,177.497L141.06,177.497z
					 M136.195,170.286c-1.084,0.101-1.894,0.452-2.431,1.06c-0.537,0.606-0.804,1.496-0.804,2.666c0,1.126,0.258,2.008,0.774,2.646
					c0.514,0.639,1.335,1.012,2.46,1.116L136.195,170.286L136.195,170.286z M137.584,170.304v7.469
					c1.112-0.11,1.926-0.486,2.438-1.124c0.512-0.639,0.77-1.518,0.77-2.638C140.792,171.768,139.723,170.532,137.584,170.304
					L137.584,170.304z M151.805,178.838v-5.888l0.026-1.161l0.043-1.142l-5.203,8.191h-1.819v-9.633h1.372v6.108l-0.062,1.6
					l-0.026,0.501l5.211-8.21h1.819v9.633L151.805,178.838L151.805,178.838z M163.819,178.838h-1.705l-4.396-4.878v4.878h-1.458
					v-9.633h1.458v4.685l4.158-4.685h1.599l-4.156,4.65L163.819,178.838L163.819,178.838z M171.526,178.838l-0.29-1.37h-0.071
					c-0.48,0.604-0.959,1.012-1.436,1.227c-0.479,0.213-1.073,0.32-1.789,0.32c-0.955,0-1.703-0.245-2.246-0.739
					c-0.542-0.492-0.813-1.191-0.813-2.1c0-1.946,1.556-2.965,4.669-3.059l1.634-0.052v-0.598c0-0.755-0.163-1.314-0.488-1.673
					c-0.325-0.361-0.845-0.54-1.559-0.54c-0.804,0-1.713,0.245-2.726,0.737l-0.447-1.116c0.473-0.256,0.995-0.46,1.559-0.606
					c0.565-0.146,1.133-0.221,1.701-0.221c1.148,0,1.999,0.256,2.552,0.765c0.553,0.51,0.83,1.327,0.83,2.453v6.574h-1.08V178.838z
					 M171.149,174.1l-1.458,0.062c-1.161,0.041-1.997,0.223-2.509,0.54c-0.514,0.32-0.77,0.817-0.77,1.49
					c0,0.527,0.161,0.929,0.48,1.204c0.318,0.277,0.765,0.413,1.339,0.413c0.909,0,1.623-0.249,2.141-0.746
					c0.518-0.499,0.778-1.197,0.778-2.092V174.1H171.149z M178.979,170.454v8.384h-1.458v-8.384h-3.094v-1.249h7.683v1.249H178.979
					L178.979,170.454z M191.143,177.691c-0.791,0.881-1.883,1.322-3.278,1.322c-0.862,0-1.627-0.202-2.294-0.606
					s-1.184-0.985-1.546-1.741c-0.365-0.755-0.546-1.64-0.546-2.655c0-1.569,0.393-2.793,1.178-3.668
					c0.785-0.877,1.875-1.314,3.27-1.314c1.348,0,2.418,0.449,3.212,1.344c0.795,0.897,1.191,2.111,1.191,3.638
					C192.33,175.582,191.934,176.809,191.143,177.691L191.143,177.691z M190.076,171.222c-0.495-0.636-1.227-0.954-2.193-0.954
					c-0.954,0-1.675,0.314-2.161,0.94s-0.729,1.561-0.729,2.803c0,1.232,0.245,2.169,0.739,2.814
					c0.492,0.643,1.215,0.967,2.171,0.967s1.679-0.322,2.174-0.963c0.495-0.641,0.742-1.58,0.742-2.818
					C190.818,172.787,190.571,171.858,190.076,171.222L190.076,171.222z M200.645,173.705v0.079
					c0.821,0.112,1.419,0.352,1.797,0.722c0.378,0.368,0.566,0.879,0.566,1.529c0,0.896-0.329,1.587-0.987,2.074
					c-0.66,0.486-1.623,0.729-2.889,0.729h-4.244v-9.633h4.227c2.391,0,3.586,0.806,3.586,2.417c0,0.626-0.179,1.103-0.54,1.428
					C201.801,173.376,201.296,173.593,200.645,173.705L200.645,173.705z M196.347,177.617h2.681c1.681,0,2.522-0.559,2.522-1.679
					c0-0.522-0.198-0.901-0.593-1.139c-0.396-0.237-1.051-0.355-1.965-0.355h-2.646L196.347,177.617L196.347,177.617z
					 M200.737,170.766c-0.359-0.196-0.907-0.295-1.638-0.295h-2.752v2.717h2.47c0.903,0,1.539-0.112,1.907-0.335
					c0.37-0.222,0.553-0.585,0.553-1.09C201.277,171.293,201.098,170.962,200.737,170.766L200.737,170.766z M90.034,203.837h-1.705
					l-4.394-4.878v4.878h-1.458v-9.633h1.458v4.685l4.158-4.685h1.599l-4.156,4.65L90.034,203.837L90.034,203.837z M97.743,203.837
					l-0.29-1.37h-0.071c-0.48,0.604-0.959,1.012-1.436,1.227c-0.479,0.213-1.075,0.32-1.789,0.32c-0.955,0-1.703-0.245-2.246-0.738
					c-0.542-0.492-0.813-1.191-0.813-2.1c0-1.944,1.556-2.965,4.667-3.059l1.636-0.052v-0.598c0-0.755-0.163-1.314-0.488-1.673
					c-0.325-0.361-0.845-0.54-1.561-0.54c-0.802,0-1.711,0.245-2.724,0.739l-0.449-1.116c0.475-0.258,0.995-0.46,1.561-0.608
					c0.565-0.146,1.131-0.219,1.7-0.219c1.15,0,2.001,0.254,2.554,0.765c0.553,0.509,0.83,1.326,0.83,2.451v6.574h-1.081V203.837z
					 M97.365,199.101l-1.458,0.062c-1.161,0.039-1.997,0.221-2.511,0.54c-0.512,0.318-0.768,0.815-0.768,1.488
					c0,0.527,0.159,0.929,0.479,1.204c0.32,0.277,0.767,0.413,1.341,0.413c0.909,0,1.623-0.249,2.141-0.746
					c0.518-0.499,0.778-1.197,0.778-2.092v-0.869H97.365z M108.218,203.837v-4.358c-0.615,0.421-1.185,0.718-1.709,0.892
					c-0.523,0.172-1.118,0.26-1.78,0.26c-0.961,0-1.715-0.252-2.259-0.757c-0.544-0.503-0.817-1.185-0.817-2.047v-3.622h1.458v3.517
					c0,1.124,0.641,1.686,1.926,1.686c0.533,0,1.041-0.082,1.529-0.245c0.486-0.165,1.036-0.443,1.651-0.836v-4.123h1.46v9.633
					H108.218L108.218,203.837z M113.747,199.285c0.03,1.131,0.316,1.989,0.856,2.576c0.542,0.585,1.307,0.879,2.29,0.879
					c1.038,0,2.062-0.217,3.076-0.651v1.301c-0.514,0.223-1.002,0.381-1.462,0.479c-0.46,0.095-1.015,0.144-1.666,0.144
					c-1.425,0-2.548-0.434-3.371-1.299c-0.823-0.868-1.234-2.072-1.234-3.612c0-1.554,0.381-2.788,1.146-3.7
					c0.765-0.914,1.791-1.372,3.081-1.372c1.206,0,2.161,0.398,2.864,1.191c0.703,0.795,1.054,1.842,1.054,3.143v0.922h-6.634
					V199.285z M118.203,195.985c-0.409-0.488-0.995-0.733-1.757-0.733c-0.772,0-1.389,0.251-1.849,0.755
					c-0.46,0.503-0.731,1.2-0.813,2.092h5.037C118.82,197.179,118.614,196.474,118.203,195.985L118.203,195.985z M128.847,195.769
					c-0.322-0.129-0.673-0.236-1.055-0.322c-0.381-0.084-0.718-0.127-1.012-0.127c-1.956,0-2.935,1.249-2.935,3.745
					c0,1.184,0.239,2.092,0.716,2.724c0.479,0.634,1.185,0.95,2.124,0.95c0.802,0,1.625-0.174,2.47-0.52v1.292
					c-0.645,0.335-1.457,0.501-2.434,0.501c-1.395,0-2.475-0.428-3.24-1.286s-1.146-2.073-1.146-3.644
					c0-1.612,0.387-2.857,1.165-3.736c0.776-0.879,1.881-1.318,3.317-1.318c0.464,0,0.925,0.05,1.389,0.15
					c0.462,0.099,0.826,0.217,1.09,0.351L128.847,195.769L128.847,195.769z M134.805,195.454v8.384h-1.458v-8.384h-3.094v-1.249
					h7.683v1.249H134.805L134.805,195.454z M145.599,198.705v0.078c0.821,0.112,1.419,0.351,1.797,0.722
					c0.378,0.368,0.566,0.879,0.566,1.529c0,0.896-0.329,1.587-0.987,2.073c-0.66,0.486-1.623,0.729-2.889,0.729h-4.244v-9.633
					h4.227c2.391,0,3.586,0.806,3.586,2.418c0,0.626-0.181,1.103-0.54,1.428C146.755,198.376,146.25,198.595,145.599,198.705
					L145.599,198.705z M141.301,202.616h2.681c1.681,0,2.522-0.559,2.522-1.679c0-0.522-0.198-0.901-0.593-1.139
					c-0.396-0.237-1.051-0.355-1.965-0.355H141.3L141.301,202.616L141.301,202.616z M145.691,195.766
					c-0.361-0.196-0.907-0.295-1.64-0.295h-2.75v2.717h2.47c0.903,0,1.539-0.112,1.907-0.335c0.37-0.223,0.553-0.585,0.553-1.09
					C146.231,196.295,146.052,195.962,145.691,195.766L145.691,195.766z M156.006,203.837l-0.292-1.37h-0.069
					c-0.48,0.604-0.959,1.012-1.438,1.227c-0.477,0.213-1.073,0.32-1.787,0.32c-0.955,0-1.705-0.245-2.246-0.738
					c-0.542-0.492-0.813-1.191-0.813-2.1c0-1.944,1.556-2.965,4.667-3.059l1.634-0.052v-0.598c0-0.755-0.163-1.314-0.488-1.673
					c-0.325-0.361-0.845-0.54-1.559-0.54c-0.802,0-1.711,0.245-2.724,0.739l-0.449-1.116c0.475-0.258,0.995-0.46,1.559-0.608
					c0.567-0.146,1.133-0.219,1.701-0.219c1.148,0,1.999,0.254,2.554,0.765c0.553,0.509,0.83,1.326,0.83,2.451v6.574h-1.08V203.837z
					 M155.626,199.101l-1.458,0.062c-1.159,0.039-1.997,0.221-2.509,0.54c-0.512,0.318-0.768,0.815-0.768,1.488
					c0,0.527,0.159,0.929,0.479,1.204c0.32,0.277,0.767,0.413,1.341,0.413c0.909,0,1.621-0.249,2.139-0.746
					c0.52-0.499,0.778-1.197,0.778-2.092v-0.869H155.626z"/>
			</defs>
			<use xlink:href="#SVGID_6_"  overflow="visible" fill="#FFFFFF"/>
			<clipPath id="SVGID_7_">
				<use xlink:href="#SVGID_6_"  overflow="visible"/>
			</clipPath>
			<g clip-path="url(#SVGID_7_)">
			</g>
		</g>
	</g>
</g>
</svg>
