<svg xmlns="http://www.w3.org/2000/svg" width="211" height="280" viewBox="0 0 211 280">
  <defs>
    <style>
      .cls-1 {
        fill: #fff;
        fill-rule: evenodd;
      }
    </style>
  </defs>
  <g id="Artboard_1" data-name="Artboard 1">
    <path id="_47000" data-name="47000" class="cls-1" d="M40.014,183.9h-5.66V152.821H21.522L0.146,184.075v10.2h20.5v9.95H34.354v-9.95h5.66V183.9Zm-27.844,0,5.7-8.472a37.124,37.124,0,0,0,2.707-5.063h0.387a29.355,29.355,0,0,0-.193,3.006q-0.124,2.867-.123,4.553V183.9H12.17ZM62.83,204.22l18.105-43.137v-8.192H43.846v11.5H66.1L48.451,204.22H62.83Zm55.424-45.475q-4.694-6.661-13.869-6.662-9.423,0-13.992,6.4t-4.57,20.11q0,13.077,4.676,19.7t13.887,6.627q9.421,0,13.992-6.346t4.57-19.986Q122.947,165.407,118.254,158.745ZM100.729,166.5q1.089-3.3,3.656-3.305t3.656,3.428q1.089,3.428,1.09,11.971,0,8.508-1.072,11.883t-3.674,3.375q-2.567,0-3.656-3.27t-1.09-11.988Q99.639,169.8,100.729,166.5Zm59.712-7.752q-4.693-6.661-13.869-6.662-9.422,0-13.992,6.4t-4.57,20.11q0,13.077,4.676,19.7t13.886,6.627q9.422,0,13.992-6.346t4.571-19.986Q165.135,165.407,160.441,158.745ZM142.916,166.5q1.089-3.3,3.656-3.305t3.657,3.428q1.089,3.428,1.089,11.971,0,8.508-1.072,11.883t-3.674,3.375q-2.567,0-3.656-3.27t-1.09-11.988Q141.826,169.8,142.916,166.5Zm59.713-7.752q-4.693-6.661-13.869-6.662-9.423,0-13.992,6.4t-4.571,20.11q0,13.077,4.676,19.7t13.887,6.627q9.422,0,13.992-6.346t4.57-19.986Q207.322,165.407,202.629,158.745ZM185.1,166.5q1.089-3.3,3.656-3.305t3.656,3.428q1.089,3.428,1.09,11.971,0,8.508-1.072,11.883t-3.674,3.375q-2.566,0-3.656-3.27t-1.09-11.988Q184.014,169.8,185.1,166.5Z"/>
    <path id="Более" class="cls-1" d="M12.234,118.419a4.3,4.3,0,0,0-2.185-1.605,11.3,11.3,0,0,0-3.833-.544H3.445V110.5h8.447v-1.843H1.37V126.5H6.594a7.513,7.513,0,0,0,4.767-1.27,4.738,4.738,0,0,0,1.581-3.93A5.133,5.133,0,0,0,12.234,118.419ZM3.445,118.1H5.972a7,7,0,0,1,3.748.733,2.766,2.766,0,0,1,1.074,2.466,3.058,3.058,0,0,1-1.056,2.612,5.672,5.672,0,0,1-3.375.793H3.445v-6.6Zm22.833-3.357a5.66,5.66,0,0,0-4.462-1.867,5.784,5.784,0,0,0-4.541,1.825,7.366,7.366,0,0,0-1.636,5.1,8.424,8.424,0,0,0,.757,3.687,5.56,5.56,0,0,0,2.148,2.417,6.036,6.036,0,0,0,3.186.842,5.8,5.8,0,0,0,4.553-1.837A8.645,8.645,0,0,0,26.278,114.744Zm-7.526,1.16a3.566,3.566,0,0,1,3-1.306,3.627,3.627,0,0,1,3.046,1.324,6.219,6.219,0,0,1,1.032,3.876,6.322,6.322,0,0,1-1.032,3.913,3.583,3.583,0,0,1-3.021,1.336,3.557,3.557,0,0,1-3.015-1.343,6.35,6.35,0,0,1-1.025-3.906A6.286,6.286,0,0,1,18.752,115.9Zm22.705-2.783H33.633a48.975,48.975,0,0,1-1.257,9.009q-0.83,2.966-2.234,2.966a2.317,2.317,0,0,1-.61-0.073v1.5a3.056,3.056,0,0,0,1.05.147,2.9,2.9,0,0,0,2.374-1.184,9.631,9.631,0,0,0,1.52-3.736,48.621,48.621,0,0,0,.916-6.9h4.016V126.5h2.051V113.121ZM53.72,126.543a10.731,10.731,0,0,0,2.033-.666v-1.806a10.78,10.78,0,0,1-4.273.9,4.116,4.116,0,0,1-3.18-1.221,5.3,5.3,0,0,1-1.19-3.576h9.216V118.9a6.339,6.339,0,0,0-1.465-4.364,5.044,5.044,0,0,0-3.979-1.654,5.293,5.293,0,0,0-4.279,1.9,7.758,7.758,0,0,0-1.593,5.139,6.991,6.991,0,0,0,1.715,5.017,6.145,6.145,0,0,0,4.681,1.807A11.446,11.446,0,0,0,53.72,126.543ZM53.3,115.593a4.455,4.455,0,0,1,.855,2.936H47.158a4.84,4.84,0,0,1,1.129-2.906,3.311,3.311,0,0,1,2.57-1.049A3.006,3.006,0,0,1,53.3,115.593Zm14.447,10.95a10.73,10.73,0,0,0,2.032-.666v-1.806a10.78,10.78,0,0,1-4.272.9,4.116,4.116,0,0,1-3.18-1.221,5.3,5.3,0,0,1-1.19-3.576h9.216V118.9a6.339,6.339,0,0,0-1.465-4.364,5.044,5.044,0,0,0-3.98-1.654,5.293,5.293,0,0,0-4.279,1.9,7.758,7.758,0,0,0-1.593,5.139,6.992,6.992,0,0,0,1.715,5.017,6.145,6.145,0,0,0,4.681,1.807A11.447,11.447,0,0,0,67.745,126.543Zm-0.421-10.95a4.455,4.455,0,0,1,.855,2.936H61.184a4.841,4.841,0,0,1,1.129-2.906,3.312,3.312,0,0,1,2.57-1.049A3.006,3.006,0,0,1,67.324,115.593Z"/>
    <path id="изделий_различного_назаначения" data-name="изделий различного  назаначения" class="cls-1" d="M0.463,242.547v9.633H2.282l5.2-8.192-0.044,1.143-0.026,1.16v5.889H8.777v-9.633H6.958l-5.212,8.209,0.026-.5,0.062-1.6v-6.108H0.463Zm12.2,4v1.239H14q2.733,0,2.733,1.679a1.42,1.42,0,0,1-.646,1.253,3.437,3.437,0,0,1-1.912.435,7.577,7.577,0,0,1-3.252-.756v1.336a6.765,6.765,0,0,0,3.217.624,5.179,5.179,0,0,0,2.975-.743,2.383,2.383,0,0,0,1.077-2.079,2.252,2.252,0,0,0-.51-1.507,3.272,3.272,0,0,0-1.617-.927v-0.07a2.1,2.1,0,0,0,1.8-2.119,2.163,2.163,0,0,0-.958-1.859,4.448,4.448,0,0,0-2.619-.681,7.9,7.9,0,0,0-3.261.668l0.519,1.187a9.4,9.4,0,0,1,1.45-.492,5.684,5.684,0,0,1,1.23-.123q2.215,0,2.215,1.423,0,1.512-2.733,1.512H12.662Zm16.269,4.377h-1.38v-8.376H22.673a16.11,16.11,0,0,1-.694,4.623,12.528,12.528,0,0,1-1.846,3.753H19.377v4.588h1.406V252.18h6.732v3.331h1.415v-4.588Zm-7.286,0a11.1,11.1,0,0,0,1.587-3.274,16.086,16.086,0,0,0,.751-3.951h2.162v7.225h-4.5Zm14.946,1.288a7.8,7.8,0,0,0,1.463-.479v-1.3a7.752,7.752,0,0,1-3.076.65,2.964,2.964,0,0,1-2.289-.879,3.815,3.815,0,0,1-.857-2.575h6.636V246.7a4.566,4.566,0,0,0-1.055-3.142,3.633,3.633,0,0,0-2.865-1.191,3.81,3.81,0,0,0-3.081,1.371,5.587,5.587,0,0,0-1.147,3.7,5.034,5.034,0,0,0,1.235,3.612,4.426,4.426,0,0,0,3.371,1.3A8.273,8.273,0,0,0,36.59,252.211Zm-0.3-7.884a3.208,3.208,0,0,1,.615,2.114H31.866a3.483,3.483,0,0,1,.813-2.092,2.382,2.382,0,0,1,1.85-.756A2.166,2.166,0,0,1,36.287,244.327Zm11.848-1.78H42.5a35.245,35.245,0,0,1-.905,6.486q-0.6,2.136-1.608,2.136a1.637,1.637,0,0,1-.439-0.053V252.2a2.188,2.188,0,0,0,.756.106,2.085,2.085,0,0,0,1.709-.853,6.923,6.923,0,0,0,1.094-2.689,35.034,35.034,0,0,0,.659-4.966h2.892v8.385h1.477v-9.633Zm3.094,0v9.633h1.819l5.2-8.192-0.044,1.143-0.026,1.16v5.889h1.362v-9.633H57.724l-5.212,8.209,0.026-.5,0.062-1.6v-6.108H51.229Zm11.408,0v9.633h1.819l5.2-8.192-0.044,1.143-0.026,1.16v5.889h1.362v-9.633H69.132l-5.212,8.209,0.026-.5,0.062-1.6v-6.108H62.637Zm6.521-1.929a2.814,2.814,0,0,0,.888-2.044h-1.38a1.887,1.887,0,0,1-.532,1.248,1.973,1.973,0,0,1-1.34.387,2.089,2.089,0,0,1-1.393-.36,1.894,1.894,0,0,1-.479-1.275H63.551a2.8,2.8,0,0,0,.835,2.07A4.756,4.756,0,0,0,69.158,240.618Zm16.985,10.424a6.974,6.974,0,0,0,.017-7.361,3.561,3.561,0,0,0-2.957-1.31,3.986,3.986,0,0,0-1.714.352,3.385,3.385,0,0,0-1.31,1.142h-0.07l-0.2-1.318H78.721V256.5H80.18V252.54a12.906,12.906,0,0,0-.105-1.6H80.18a3.239,3.239,0,0,0,1.305,1.068,4.175,4.175,0,0,0,1.718.347A3.567,3.567,0,0,0,86.143,251.042Zm-1.16-6.469a4.614,4.614,0,0,1,.707,2.764,4.79,4.79,0,0,1-.707,2.786,2.257,2.257,0,0,1-1.956,1.011,2.571,2.571,0,0,1-2.171-.875,4.817,4.817,0,0,1-.677-2.9V247.03a4.207,4.207,0,0,1,.677-2.6,2.585,2.585,0,0,1,2.136-.817A2.326,2.326,0,0,1,84.983,244.573Zm11.773,7.607v-6.574a3.19,3.19,0,0,0-.831-2.452,3.668,3.668,0,0,0-2.553-.765,6.733,6.733,0,0,0-1.7.22,6.823,6.823,0,0,0-1.56.606l0.448,1.116a6.358,6.358,0,0,1,2.725-.738,2,2,0,0,1,1.56.541,2.44,2.44,0,0,1,.488,1.674v0.6l-1.635.053q-4.667.141-4.667,3.059a2.691,2.691,0,0,0,.813,2.1,3.213,3.213,0,0,0,2.246.739,4.378,4.378,0,0,0,1.788-.321,4.062,4.062,0,0,0,1.437-1.226h0.07l0.29,1.371h1.081Zm-5.717-1.442a1.5,1.5,0,0,1-.479-1.2,1.629,1.629,0,0,1,.769-1.489,5.3,5.3,0,0,1,2.509-.541l1.459-.061v0.87a2.765,2.765,0,0,1-.778,2.092,2.961,2.961,0,0,1-2.14.747A1.985,1.985,0,0,1,91.039,250.738Zm9.514-4.192v1.239h1.336q2.733,0,2.733,1.679a1.42,1.42,0,0,1-.646,1.253,3.438,3.438,0,0,1-1.912.435,7.578,7.578,0,0,1-3.251-.756v1.336a6.766,6.766,0,0,0,3.216.624,5.176,5.176,0,0,0,2.975-.743,2.383,2.383,0,0,0,1.077-2.079,2.251,2.251,0,0,0-.51-1.507,3.273,3.273,0,0,0-1.617-.927v-0.07a2.1,2.1,0,0,0,1.8-2.119,2.164,2.164,0,0,0-.958-1.859,4.449,4.449,0,0,0-2.619-.681,7.9,7.9,0,0,0-3.261.668l0.518,1.187a9.4,9.4,0,0,1,1.451-.492,5.681,5.681,0,0,1,1.23-.123q2.215,0,2.215,1.423,0,1.512-2.733,1.512h-1.046Zm15.082-4H110a35.268,35.268,0,0,1-.905,6.486q-0.6,2.136-1.609,2.136a1.635,1.635,0,0,1-.439-0.053V252.2a2.185,2.185,0,0,0,.756.106,2.084,2.084,0,0,0,1.709-.853,6.923,6.923,0,0,0,1.094-2.689,35.031,35.031,0,0,0,.66-4.966h2.891v8.385h1.477v-9.633Zm3.094,0v9.633h1.819l5.2-8.192-0.044,1.143-0.026,1.16v5.889h1.362v-9.633h-1.819l-5.212,8.209,0.026-.5,0.062-1.6v-6.108h-1.371Zm11.232,0v3.621a2.652,2.652,0,0,0,.817,2.048,3.2,3.2,0,0,0,2.259.756,5.673,5.673,0,0,0,1.78-.259,6.963,6.963,0,0,0,1.709-.892v4.359h1.459v-9.633h-1.459v4.122a7.779,7.779,0,0,1-1.652.835,4.751,4.751,0,0,1-1.529.246q-1.924,0-1.925-1.687v-3.516h-1.459Zm11.118,0v9.633h1.459v-4.342h5.4v4.342h1.459v-9.633h-1.459v4.034h-5.4v-4.034h-1.459Zm18.532,1.169a4.078,4.078,0,0,0-3.213-1.345,4.164,4.164,0,0,0-3.269,1.314,5.307,5.307,0,0,0-1.178,3.67,6.07,6.07,0,0,0,.545,2.654,4,4,0,0,0,1.547,1.74,4.337,4.337,0,0,0,2.294.607,4.178,4.178,0,0,0,3.278-1.323A6.223,6.223,0,0,0,159.611,243.716Zm-5.419.835a2.568,2.568,0,0,1,2.162-.94,2.608,2.608,0,0,1,2.193.953,4.478,4.478,0,0,1,.743,2.791,4.551,4.551,0,0,1-.743,2.817,2.93,2.93,0,0,1-4.346,0A5.742,5.742,0,0,1,154.192,244.551Zm14.968-2h-5.8v9.633h1.459V243.8h4.342v-1.248Zm9.031,1.169a4.077,4.077,0,0,0-3.212-1.345,4.165,4.165,0,0,0-3.27,1.314,5.307,5.307,0,0,0-1.178,3.67,6.07,6.07,0,0,0,.545,2.654,4,4,0,0,0,1.547,1.74,4.337,4.337,0,0,0,2.294.607,4.178,4.178,0,0,0,3.278-1.323A6.223,6.223,0,0,0,178.191,243.716Zm-5.419.835a2.569,2.569,0,0,1,2.163-.94,2.608,2.608,0,0,1,2.192.953,4.471,4.471,0,0,1,.743,2.791,4.545,4.545,0,0,1-.743,2.817,2.93,2.93,0,0,1-4.346,0A5.742,5.742,0,0,1,172.772,244.551Zm-172.309,22v9.633H1.922v-4.342h5.4v4.342H8.777v-9.633H7.318v4.034h-5.4v-4.034H0.463Zm18.413,9.633v-6.574a3.19,3.19,0,0,0-.831-2.452,3.668,3.668,0,0,0-2.553-.765,6.733,6.733,0,0,0-1.7.22,6.825,6.825,0,0,0-1.56.606l0.448,1.116a6.358,6.358,0,0,1,2.725-.738,2,2,0,0,1,1.56.541,2.44,2.44,0,0,1,.488,1.674v0.6l-1.635.053q-4.667.141-4.667,3.059a2.691,2.691,0,0,0,.813,2.1,3.214,3.214,0,0,0,2.246.739A4.379,4.379,0,0,0,16,276.035a4.06,4.06,0,0,0,1.437-1.226H17.5l0.29,1.371h1.081Zm-5.717-1.442a1.5,1.5,0,0,1-.479-1.2,1.629,1.629,0,0,1,.769-1.489,5.3,5.3,0,0,1,2.509-.541l1.459-.061v0.87a2.765,2.765,0,0,1-.778,2.092,2.962,2.962,0,0,1-2.14.747A1.985,1.985,0,0,1,13.159,274.738Zm9.514-4.192v1.239h1.336q2.733,0,2.733,1.679a1.42,1.42,0,0,1-.646,1.253,3.437,3.437,0,0,1-1.912.435,7.578,7.578,0,0,1-3.252-.756v1.336a6.765,6.765,0,0,0,3.217.624,5.179,5.179,0,0,0,2.975-.743,2.383,2.383,0,0,0,1.077-2.079,2.252,2.252,0,0,0-.51-1.507,3.272,3.272,0,0,0-1.617-.927v-0.07a2.1,2.1,0,0,0,1.8-2.119,2.163,2.163,0,0,0-.958-1.859,4.448,4.448,0,0,0-2.619-.681,7.9,7.9,0,0,0-3.261.668l0.518,1.187a9.4,9.4,0,0,1,1.45-.492,5.685,5.685,0,0,1,1.231-.123q2.215,0,2.215,1.423,0,1.512-2.733,1.512H22.673Zm14.906,5.634v-6.574a3.19,3.19,0,0,0-.831-2.452,3.668,3.668,0,0,0-2.553-.765,6.733,6.733,0,0,0-1.7.22,6.822,6.822,0,0,0-1.56.606l0.448,1.116a6.358,6.358,0,0,1,2.725-.738,2,2,0,0,1,1.56.541,2.44,2.44,0,0,1,.488,1.674v0.6l-1.635.053q-4.667.141-4.667,3.059a2.691,2.691,0,0,0,.813,2.1,3.214,3.214,0,0,0,2.246.739,4.378,4.378,0,0,0,1.789-.321,4.06,4.06,0,0,0,1.437-1.226h0.07l0.29,1.371h1.081Zm-5.717-1.442a1.5,1.5,0,0,1-.479-1.2,1.629,1.629,0,0,1,.769-1.489,5.3,5.3,0,0,1,2.509-.541l1.459-.061v0.87a2.765,2.765,0,0,1-.778,2.092,2.962,2.962,0,0,1-2.14.747A1.985,1.985,0,0,1,31.862,274.738Zm8.723-8.191v9.633h1.459v-4.342h5.4v4.342H48.9v-9.633H47.44v4.034h-5.4v-4.034H40.585ZM59,276.18v-6.574a3.19,3.19,0,0,0-.831-2.452,3.668,3.668,0,0,0-2.553-.765,6.733,6.733,0,0,0-1.7.22,6.823,6.823,0,0,0-1.56.606l0.448,1.116a6.358,6.358,0,0,1,2.725-.738,2,2,0,0,1,1.56.541,2.44,2.44,0,0,1,.488,1.674v0.6l-1.635.053q-4.667.141-4.667,3.059a2.691,2.691,0,0,0,.813,2.1,3.214,3.214,0,0,0,2.246.739,4.378,4.378,0,0,0,1.788-.321,4.06,4.06,0,0,0,1.437-1.226h0.07l0.29,1.371H59Zm-5.717-1.442a1.5,1.5,0,0,1-.479-1.2,1.629,1.629,0,0,1,.769-1.489,5.3,5.3,0,0,1,2.509-.541l1.459-.061v0.87a2.765,2.765,0,0,1-.778,2.092,2.961,2.961,0,0,1-2.14.747A1.985,1.985,0,0,1,53.281,274.738Zm8.547-8.191v3.621a2.653,2.653,0,0,0,.817,2.048,3.2,3.2,0,0,0,2.259.756,5.669,5.669,0,0,0,1.78-.259,6.965,6.965,0,0,0,1.71-.892v4.359h1.459v-9.633H68.394v4.122a7.781,7.781,0,0,1-1.652.835,4.754,4.754,0,0,1-1.529.246q-1.925,0-1.925-1.687v-3.516H61.828Zm16.853,9.664a7.791,7.791,0,0,0,1.463-.479v-1.3a7.751,7.751,0,0,1-3.076.65,2.964,2.964,0,0,1-2.29-.879,3.815,3.815,0,0,1-.857-2.575h6.636V270.7a4.565,4.565,0,0,0-1.055-3.142,3.633,3.633,0,0,0-2.865-1.191,3.81,3.81,0,0,0-3.081,1.371,5.587,5.587,0,0,0-1.147,3.7,5.034,5.034,0,0,0,1.235,3.612,4.427,4.427,0,0,0,3.371,1.3A8.275,8.275,0,0,0,78.681,276.211Zm-0.3-7.884a3.208,3.208,0,0,1,.615,2.114H73.957a3.484,3.484,0,0,1,.813-2.092,2.382,2.382,0,0,1,1.85-.756A2.166,2.166,0,0,1,78.378,268.327Zm4.667-1.78v9.633H84.5v-4.342h5.4v4.342h1.459v-9.633H89.9v4.034H84.5v-4.034H83.045Zm11.408,0v9.633h1.819l5.2-8.192-0.044,1.143-0.027,1.16v5.889h1.363v-9.633h-1.82l-5.212,8.209,0.026-.5,0.062-1.6v-6.108H94.453Zm14.414,5.783H111.3v3.85h1.459v-9.633h-4.289a3.708,3.708,0,0,0-2.479.756,2.579,2.579,0,0,0-.888,2.074,2.674,2.674,0,0,0,.594,1.78,2.981,2.981,0,0,0,1.709.954l-2.768,4.069h1.7Zm-0.211-4.517H111.3v3.252h-2.347q-2.426,0-2.426-1.67,0-1.582,2.127-1.582h0Z"/>
  </g>
</svg>
