<?xml version="1.0" encoding="utf-8"?>
<!-- Generator: Adobe Illustrator 21.1.0, SVG Export Plug-In . SVG Version: 6.00 Build 0)  -->
<svg version="1.1" xmlns="http://www.w3.org/2000/svg" xmlns:xlink="http://www.w3.org/1999/xlink" x="0px" y="0px"
	 viewBox="0 0 210.844 278.357" enable-background="new 0 0 210.844 278.357" xml:space="preserve">
<g id="Слой_2" display="none">
</g>
<g id="Слой_1">
	<g display="none">
	</g>
	<path id="_x34_00" fill="#131F39" d="M129.496,0c7.264,0,13.124,5.878,13.125,13.111c0,2.088-0.49,4.066-1.363,5.82l-28.12,67.278
		l55.801,32.227c3.574,2.067,5.991,5.709,6.478,9.818c0.461,4.097-1.015,8.194-4.038,11.038l-98.695,93.122
		c-2.525,2.369-5.791,3.586-9.056,3.586c-2.588,0-5.209-0.769-7.485-2.305c-5.111-3.508-7.07-10.126-4.663-15.837l28.472-68.053
		l-55.834-32.254c-3.574-2.081-5.985-5.73-6.462-9.833c-0.469-4.103,1.017-8.194,4.028-11.036l98.7-93.091
		c0.231-0.236,0.489-0.442,0.927-0.786C123.484,1.088,126.22,0.052,129.496,0H0v278.357h210.844V0H129.496z"/>
	<g id="_x34_000." display="none">
		<g display="inline">
			<defs>
				<path id="SVGID_1_" d="M168.933,118.437L113.132,86.21l28.12-67.278c0.873-1.754,1.363-3.732,1.363-5.82
					c-0.001-7.233-5.861-13.111-13.125-13.111c-3.276,0.052-6.012,1.088-8.185,2.805c-0.438,0.344-0.696,0.55-0.927,0.786
					l-98.7,93.091c-3.011,2.842-4.497,6.933-4.028,11.036c0.477,4.103,2.888,7.752,6.462,9.833l55.834,32.254l-28.472,68.053
					c-2.407,5.711-0.448,12.329,4.663,15.837c2.276,1.536,4.897,2.305,7.485,2.305c3.265,0,6.531-1.217,9.056-3.586l98.695-93.122
					c3.023-2.844,4.499-6.941,4.038-11.038C174.924,124.146,172.507,120.504,168.933,118.437L168.933,118.437z"/>
			</defs>
			<linearGradient id="SVGID_2_" gradientUnits="userSpaceOnUse" x1="17.5646" y1="118.0014" x2="175.4937" y2="118.0014">
				<stop  offset="0" style="stop-color:#ED3338"/>
				<stop  offset="1" style="stop-color:#131F38"/>
			</linearGradient>
			<use xlink:href="#SVGID_1_"  overflow="visible" fill="url(#SVGID_2_)"/>
			<clipPath id="SVGID_3_">
				<use xlink:href="#SVGID_1_"  overflow="visible"/>
			</clipPath>
			<g clip-path="url(#SVGID_3_)">
			</g>
		</g>
	</g>
	<g id="_x34_000-3." display="none">
		<g display="inline">
			<g>
				<defs>
					<path id="SVGID_4_" d="M43.734,201.707v12.713h-17.52v-12.713H0.025v-13.026l27.312-39.937h16.397v39.712h7.233v13.251
						L43.734,201.707L43.734,201.707z M26.126,171.161c-1.019,2.305-2.173,4.463-3.459,6.468l-7.278,10.827h10.825v-7.637
						c0-1.438,0.052-3.376,0.158-5.818c0.104-2.44,0.187-3.72,0.248-3.84L26.126,171.161L26.126,171.161z M97.192,207.21
						c-3.894,5.407-9.854,8.108-17.879,8.108c-7.847,0-13.761-2.823-17.745-8.468c-3.982-5.645-5.974-14.038-5.974-25.178
						c0-11.681,1.946-20.244,5.839-25.695c3.894-5.451,9.854-8.175,17.879-8.175c7.816,0,13.724,2.838,17.722,8.512
						c3.997,5.676,5.997,14.128,5.997,25.359C103.031,193.292,101.084,201.805,97.192,207.21L97.192,207.21z M83.985,166.377
						c-0.929-2.921-2.486-4.38-4.672-4.38s-3.744,1.407-4.672,4.222c-0.929,2.815-1.392,7.966-1.392,15.453
						c0,7.428,0.463,12.532,1.392,15.318c0.929,2.784,2.486,4.178,4.672,4.178c2.217,0,3.78-1.438,4.695-4.313
						c0.913-2.874,1.369-7.937,1.369-15.184C85.377,174.395,84.913,169.296,83.985,166.377L83.985,166.377z M151.098,207.21
						c-3.894,5.407-9.852,8.108-17.879,8.108c-7.845,0-13.761-2.823-17.743-8.468c-3.984-5.645-5.976-14.038-5.976-25.178
						c0-11.681,1.948-20.244,5.841-25.695c3.892-5.451,9.852-8.175,17.878-8.175c7.818,0,13.724,2.838,17.722,8.512
						c3.999,5.676,5.997,14.128,5.997,25.359C156.937,193.292,154.991,201.805,151.098,207.21L151.098,207.21z M137.89,166.377
						c-0.929-2.921-2.486-4.38-4.672-4.38c-2.186,0-3.744,1.407-4.67,4.222c-0.929,2.815-1.394,7.966-1.394,15.453
						c0,7.428,0.465,12.532,1.394,15.318c0.927,2.784,2.484,4.178,4.67,4.178c2.217,0,3.782-1.438,4.695-4.313
						c0.913-2.874,1.371-7.937,1.371-15.184C139.284,174.395,138.819,169.296,137.89,166.377L137.89,166.377z M205.005,207.21
						c-3.894,5.407-9.854,8.108-17.879,8.108c-7.847,0-13.761-2.823-17.745-8.468s-5.974-14.038-5.974-25.178
						c0-11.681,1.946-20.244,5.839-25.695s9.852-8.175,17.879-8.175c7.816,0,13.723,2.838,17.722,8.512
						c3.997,5.676,5.997,14.128,5.997,25.359C210.844,193.292,208.897,201.805,205.005,207.21L205.005,207.21z M191.798,166.377
						c-0.929-2.921-2.486-4.38-4.672-4.38s-3.744,1.407-4.672,4.222c-0.929,2.815-1.392,7.966-1.392,15.453
						c0,7.428,0.463,12.532,1.392,15.318c0.929,2.784,2.486,4.178,4.672,4.178c2.215,0,3.78-1.438,4.693-4.313
						c0.913-2.874,1.371-7.937,1.371-15.184C193.19,174.395,192.725,169.296,191.798,166.377L191.798,166.377z"/>
				</defs>
				<use xlink:href="#SVGID_4_"  overflow="visible" fill="#FFFFFF"/>
				<clipPath id="SVGID_5_">
					<use xlink:href="#SVGID_4_"  overflow="visible"/>
				</clipPath>
				<g clip-path="url(#SVGID_5_)">
				</g>
			</g>
		</g>
		<g display="inline">
			<g>
				<defs>
					<path id="SVGID_6_" d="M5.753,116.271c1.571,0,2.85,0.181,3.834,0.544c0.984,0.361,1.713,0.896,2.184,1.605
						c0.473,0.708,0.708,1.667,0.708,2.88c0,1.775-0.527,3.084-1.58,3.93c-1.054,0.846-2.642,1.269-4.766,1.269H0.908v-17.847
						h10.521v1.844H2.982v5.774L5.753,116.271L5.753,116.271z M2.982,124.706h2.917c1.546,0,2.673-0.263,3.376-0.794
						c0.704-0.529,1.056-1.398,1.056-2.611c0-1.156-0.358-1.978-1.075-2.467c-0.715-0.488-1.965-0.733-3.747-0.733H2.982V124.706
						L2.982,124.706z M25.822,124.908c-1.1,1.225-2.617,1.836-4.553,1.836c-1.198,0-2.259-0.281-3.188-0.842
						c-0.927-0.561-1.644-1.367-2.148-2.417c-0.504-1.05-0.757-2.278-0.757-3.686c0-2.18,0.546-3.88,1.636-5.097
						c1.09-1.215,2.605-1.825,4.541-1.825c1.871,0,3.359,0.623,4.461,1.869c1.104,1.244,1.655,2.928,1.655,5.053
						C27.47,121.98,26.92,123.683,25.822,124.908L25.822,124.908z M24.338,115.923c-0.686-0.883-1.702-1.325-3.046-1.325
						c-1.327,0-2.326,0.436-3.003,1.307c-0.675,0.871-1.013,2.169-1.013,3.894c0,1.709,0.342,3.011,1.027,3.907
						c0.683,0.894,1.688,1.342,3.015,1.342s2.334-0.446,3.021-1.336c0.688-0.892,1.033-2.196,1.033-3.913
						C25.37,118.098,25.026,116.806,24.338,115.923L24.338,115.923z M38.945,126.5v-11.644h-4.017
						c-0.219,2.898-0.525,5.195-0.915,6.897c-0.39,1.7-0.898,2.946-1.521,3.734c-0.623,0.79-1.413,1.184-2.375,1.184
						c-0.438,0-0.788-0.048-1.05-0.146v-1.502c0.179,0.05,0.383,0.073,0.611,0.073c0.936,0,1.681-0.988,2.234-2.965
						c0.552-1.978,0.971-4.982,1.257-9.01h7.824V126.5H38.945L38.945,126.5z M46.647,120.178c0.04,1.571,0.436,2.763,1.19,3.576
						c0.752,0.813,1.813,1.221,3.18,1.221c1.44,0,2.863-0.302,4.272-0.904v1.807c-0.717,0.31-1.394,0.531-2.032,0.665
						c-0.64,0.133-1.411,0.2-2.315,0.2c-1.977,0-3.538-0.602-4.68-1.805c-1.144-1.206-1.715-2.876-1.715-5.018
						c0-2.155,0.531-3.869,1.592-5.137c1.063-1.271,2.488-1.905,4.278-1.905c1.677,0,3.003,0.552,3.98,1.654
						c0.977,1.104,1.465,2.559,1.465,4.365v1.282L46.647,120.178L46.647,120.178z M52.837,115.594
						c-0.571-0.681-1.384-1.019-2.442-1.019c-1.075,0-1.93,0.35-2.571,1.05c-0.638,0.7-1.015,1.667-1.129,2.905h6.995
						C53.69,117.252,53.406,116.273,52.837,115.594L52.837,115.594z M60.672,120.178c0.042,1.571,0.438,2.763,1.192,3.576
						c0.752,0.813,1.811,1.221,3.178,1.221c1.442,0,2.865-0.302,4.272-0.904v1.807c-0.715,0.31-1.392,0.531-2.032,0.665
						c-0.638,0.133-1.409,0.2-2.313,0.2c-1.977,0-3.538-0.602-4.68-1.805c-1.144-1.206-1.717-2.876-1.717-5.018
						c0-2.155,0.533-3.869,1.594-5.137c1.061-1.271,2.488-1.905,4.278-1.905c1.677,0,3.003,0.552,3.98,1.654
						c0.977,1.104,1.465,2.559,1.465,4.365v1.282L60.672,120.178L60.672,120.178z M66.861,115.594
						c-0.569-0.681-1.382-1.019-2.44-1.019c-1.075,0-1.932,0.35-2.571,1.05c-0.638,0.7-1.015,1.667-1.129,2.905h6.995
						C67.717,117.252,67.432,116.273,66.861,115.594L66.861,115.594z"/>
				</defs>
				<use xlink:href="#SVGID_6_"  overflow="visible" fill="#FFFFFF"/>
				<clipPath id="SVGID_7_">
					<use xlink:href="#SVGID_6_"  overflow="visible"/>
				</clipPath>
				<g clip-path="url(#SVGID_7_)">
				</g>
			</g>
		</g>
		<g display="inline">
			<g>
				<defs>
					<path id="SVGID_8_" d="M6.953,253.181v-5.889l0.027-1.159l0.042-1.142l-5.203,8.191H0v-9.633h1.371v6.108l-0.062,1.6
						l-0.025,0.502l5.211-8.21h1.819v9.633L6.953,253.181L6.953,253.181z M15.601,248.03v0.071c0.738,0.217,1.277,0.525,1.617,0.927
						c0.34,0.402,0.509,0.904,0.509,1.507c0,0.89-0.36,1.584-1.077,2.078c-0.717,0.496-1.709,0.742-2.974,0.742
						c-1.388,0-2.461-0.208-3.217-0.623v-1.336c1.071,0.504,2.155,0.756,3.251,0.756c0.844,0,1.48-0.144,1.911-0.435
						c0.431-0.29,0.646-0.708,0.646-1.252c0-1.119-0.911-1.68-2.732-1.68H12.2v-1.238h1.046c1.823,0,2.732-0.504,2.732-1.511
						c0-0.95-0.738-1.425-2.213-1.425c-0.452,0-0.861,0.042-1.231,0.123c-0.369,0.083-0.854,0.246-1.452,0.492l-0.517-1.186
						c0.996-0.446,2.082-0.667,3.261-0.667c1.107,0,1.98,0.227,2.619,0.681c0.638,0.454,0.958,1.073,0.958,1.859
						C17.403,246.99,16.803,247.697,15.601,248.03L15.601,248.03z M27.053,256.513v-3.332h-6.731v3.332h-1.407v-4.59h0.756
						c0.786-1.065,1.402-2.317,1.846-3.753c0.446-1.434,0.677-2.976,0.694-4.622h4.878v8.375h1.381v4.59H27.053L27.053,256.513z
						 M25.682,244.7h-2.161c-0.077,1.3-0.327,2.617-0.752,3.951c-0.425,1.332-0.954,2.425-1.586,3.272h4.499V244.7L25.682,244.7z
						 M31.369,248.628c0.029,1.131,0.313,1.99,0.856,2.576c0.542,0.585,1.306,0.879,2.29,0.879c1.036,0,2.063-0.217,3.076-0.652
						v1.302c-0.515,0.223-1.004,0.383-1.463,0.479c-0.46,0.096-1.015,0.144-1.665,0.144c-1.425,0-2.548-0.433-3.371-1.3
						c-0.825-0.867-1.236-2.071-1.236-3.613c0-1.552,0.383-2.786,1.148-3.699c0.765-0.915,1.792-1.371,3.08-1.371
						c1.207,0,2.163,0.396,2.865,1.19c0.704,0.794,1.056,1.842,1.056,3.142v0.923H31.369L31.369,248.628z M35.824,245.328
						c-0.41-0.49-0.996-0.734-1.757-0.734c-0.773,0-1.39,0.252-1.85,0.756c-0.461,0.504-0.733,1.202-0.813,2.092h5.036
						C36.44,246.522,36.234,245.817,35.824,245.328L35.824,245.328z M46.195,253.181v-8.385h-2.892
						c-0.158,2.086-0.377,3.742-0.659,4.966c-0.281,1.225-0.646,2.121-1.094,2.69c-0.448,0.567-1.017,0.852-1.709,0.852
						c-0.315,0-0.569-0.035-0.756-0.106v-1.081c0.129,0.035,0.275,0.052,0.44,0.052c0.673,0,1.209-0.711,1.607-2.134
						c0.398-1.425,0.7-3.586,0.906-6.487h5.634v9.633L46.195,253.181L46.195,253.181z M57.718,253.181v-5.889l0.027-1.159
						l0.042-1.142l-5.203,8.191h-1.819v-9.633h1.371v6.108l-0.061,1.6l-0.027,0.502l5.212-8.21h1.819v9.633L57.718,253.181
						L57.718,253.181z M69.126,253.181v-5.889l0.027-1.159l0.044-1.142l-5.203,8.191h-1.821v-9.633h1.371v6.108l-0.062,1.6
						l-0.025,0.502l5.211-8.21h1.821v9.633L69.126,253.181L69.126,253.181z M66.296,242.273c-1.084,0-1.875-0.21-2.373-0.629
						c-0.498-0.417-0.777-1.107-0.835-2.069h1.371c0.052,0.61,0.212,1.034,0.479,1.275c0.267,0.24,0.731,0.36,1.394,0.36
						c0.602,0,1.05-0.129,1.34-0.387c0.288-0.258,0.467-0.673,0.531-1.248h1.38c-0.071,0.925-0.367,1.607-0.888,2.044
						C68.174,242.056,67.374,242.273,66.296,242.273L66.296,242.273z M85.681,252.042c-0.706,0.877-1.686,1.313-2.94,1.313
						c-0.627,0-1.2-0.115-1.719-0.346c-0.517-0.231-0.954-0.588-1.306-1.067h-0.104c0.069,0.561,0.104,1.094,0.104,1.598v3.965
						h-1.457v-13.957h1.186l0.202,1.319h0.069c0.375-0.529,0.811-0.91,1.311-1.144c0.496-0.233,1.069-0.35,1.713-0.35
						c1.277,0,2.263,0.436,2.957,1.309s1.042,2.098,1.042,3.672C86.74,249.937,86.386,251.168,85.681,252.042L85.681,252.042z
						 M84.521,245.574c-0.473-0.642-1.136-0.963-1.992-0.963c-0.984,0-1.696,0.273-2.136,0.817
						c-0.438,0.546-0.665,1.413-0.677,2.601v0.325c0,1.354,0.227,2.323,0.677,2.905c0.452,0.585,1.175,0.875,2.171,0.875
						c0.833,0,1.484-0.336,1.957-1.011c0.471-0.673,0.708-1.602,0.708-2.786C85.229,247.138,84.992,246.215,84.521,245.574
						L84.521,245.574z M95.212,253.181l-0.29-1.371h-0.069c-0.481,0.604-0.959,1.011-1.436,1.227
						c-0.479,0.213-1.075,0.319-1.79,0.319c-0.954,0-1.704-0.246-2.246-0.738c-0.542-0.49-0.811-1.192-0.811-2.1
						c0-1.946,1.555-2.965,4.666-3.059l1.634-0.052v-0.598c0-0.756-0.163-1.313-0.488-1.675c-0.325-0.36-0.844-0.54-1.559-0.54
						c-0.804,0-1.711,0.246-2.724,0.738l-0.448-1.117c0.475-0.258,0.994-0.46,1.559-0.606c0.565-0.146,1.133-0.219,1.702-0.219
						c1.148,0,2,0.254,2.553,0.763c0.554,0.511,0.831,1.329,0.831,2.453v6.574h-1.084V253.181z M94.835,248.443l-1.459,0.062
						c-1.159,0.042-1.996,0.221-2.509,0.54s-0.769,0.817-0.769,1.49c0,0.527,0.16,0.929,0.479,1.204
						c0.319,0.277,0.765,0.413,1.34,0.413c0.908,0,1.623-0.248,2.14-0.746c0.519-0.498,0.779-1.196,0.779-2.092L94.835,248.443
						L94.835,248.443z M103.491,248.03v0.071c0.738,0.217,1.279,0.525,1.617,0.927c0.34,0.402,0.511,0.904,0.511,1.507
						c0,0.89-0.36,1.584-1.077,2.078c-0.719,0.496-1.709,0.742-2.976,0.742c-1.388,0-2.461-0.208-3.217-0.623v-1.336
						c1.073,0.504,2.157,0.756,3.253,0.756c0.842,0,1.48-0.144,1.911-0.435c0.431-0.29,0.646-0.708,0.646-1.252
						c0-1.119-0.911-1.68-2.734-1.68h-1.336v-1.238h1.046c1.823,0,2.734-0.504,2.734-1.511c0-0.95-0.738-1.425-2.215-1.425
						c-0.452,0-0.861,0.042-1.231,0.123c-0.369,0.083-0.852,0.246-1.45,0.492l-0.519-1.186c0.996-0.446,2.082-0.667,3.261-0.667
						c1.108,0,1.98,0.227,2.619,0.681c0.638,0.454,0.958,1.073,0.958,1.859C105.292,246.99,104.692,247.697,103.491,248.03
						L103.491,248.03z M113.695,253.181v-8.385h-2.89c-0.16,2.086-0.379,3.742-0.659,4.966c-0.283,1.225-0.646,2.121-1.094,2.69
						c-0.45,0.567-1.019,0.852-1.709,0.852c-0.317,0-0.569-0.035-0.758-0.106v-1.081c0.129,0.035,0.277,0.052,0.44,0.052
						c0.673,0,1.209-0.711,1.607-2.134c0.4-1.425,0.702-3.586,0.906-6.487h5.634v9.633L113.695,253.181L113.695,253.181z
						 M125.218,253.181v-5.889l0.027-1.159l0.044-1.142l-5.203,8.191h-1.821v-9.633h1.373v6.108l-0.061,1.6l-0.027,0.502l5.213-8.21
						h1.819v9.633L125.218,253.181L125.218,253.181z M136.064,253.181v-4.359c-0.615,0.421-1.184,0.719-1.709,0.892
						s-1.117,0.26-1.78,0.26c-0.961,0-1.713-0.252-2.259-0.758c-0.544-0.504-0.817-1.186-0.817-2.048v-3.62h1.459v3.517
						c0,1.125,0.642,1.686,1.925,1.686c0.535,0,1.044-0.081,1.531-0.246c0.486-0.163,1.036-0.442,1.652-0.835v-4.122h1.459v9.633
						H136.064L136.064,253.181z M147.471,253.181v-4.342h-5.395v4.342h-1.459v-9.633h1.459v4.034h5.395v-4.034h1.459v9.633H147.471
						L147.471,253.181z M159.152,252.035c-0.79,0.881-1.882,1.321-3.278,1.321c-0.861,0-1.625-0.202-2.294-0.606
						c-0.667-0.404-1.183-0.984-1.546-1.74c-0.363-0.756-0.546-1.64-0.546-2.655c0-1.569,0.392-2.792,1.179-3.669
						c0.784-0.877,1.875-1.313,3.269-1.313c1.348,0,2.419,0.448,3.213,1.344c0.794,0.896,1.192,2.109,1.192,3.638
						C160.34,249.926,159.944,251.152,159.152,252.035L159.152,252.035z M158.085,245.565c-0.496-0.634-1.227-0.954-2.192-0.954
						c-0.956,0-1.677,0.313-2.163,0.94s-0.729,1.561-0.729,2.803c0,1.23,0.246,2.169,0.738,2.813
						c0.492,0.646,1.215,0.967,2.171,0.967c0.954,0,1.678-0.321,2.175-0.961c0.494-0.642,0.742-1.58,0.742-2.819
						C158.827,247.132,158.579,246.201,158.085,245.565L158.085,245.565z M164.357,244.796v8.385h-1.459v-9.633h5.801v1.248H164.357
						L164.357,244.796z M177.733,252.035c-0.792,0.881-1.884,1.321-3.278,1.321c-0.861,0-1.627-0.202-2.294-0.606
						c-0.669-0.404-1.184-0.984-1.548-1.74c-0.363-0.756-0.544-1.64-0.544-2.655c0-1.569,0.392-2.792,1.177-3.669
						c0.786-0.877,1.875-1.313,3.271-1.313c1.348,0,2.419,0.448,3.213,1.344c0.792,0.896,1.19,2.109,1.19,3.638
						C178.919,249.926,178.523,251.152,177.733,252.035L177.733,252.035z M176.664,245.565c-0.494-0.634-1.225-0.954-2.192-0.954
						c-0.956,0-1.677,0.313-2.163,0.94s-0.729,1.561-0.729,2.803c0,1.23,0.246,2.169,0.738,2.813
						c0.492,0.646,1.215,0.967,2.171,0.967s1.68-0.321,2.175-0.961c0.496-0.642,0.744-1.58,0.744-2.819
						C177.408,247.132,177.16,246.201,176.664,245.565L176.664,245.565z M6.856,277.18v-4.342H1.459v4.342H0v-9.633h1.459v4.034
						h5.397v-4.034h1.457v9.633H6.856L6.856,277.18z M17.331,277.18l-0.288-1.371h-0.071c-0.481,0.604-0.959,1.013-1.436,1.227
						c-0.479,0.213-1.075,0.321-1.79,0.321c-0.954,0-1.704-0.246-2.246-0.738c-0.54-0.492-0.811-1.192-0.811-2.102
						c0-1.944,1.555-2.965,4.666-3.059l1.634-0.052v-0.598c0-0.756-0.161-1.313-0.488-1.675c-0.325-0.36-0.844-0.54-1.559-0.54
						c-0.802,0-1.711,0.246-2.724,0.738l-0.448-1.115c0.475-0.258,0.994-0.46,1.559-0.608c0.565-0.146,1.132-0.219,1.702-0.219
						c1.148,0,2,0.256,2.553,0.765c0.554,0.51,0.831,1.327,0.831,2.452v6.574L17.331,277.18L17.331,277.18z M16.955,272.443
						l-1.459,0.061c-1.159,0.042-1.996,0.223-2.509,0.542s-0.769,0.815-0.769,1.488c0,0.529,0.16,0.929,0.479,1.206
						c0.319,0.275,0.767,0.411,1.34,0.411c0.909,0,1.623-0.248,2.14-0.746c0.519-0.498,0.779-1.196,0.779-2.092L16.955,272.443
						L16.955,272.443z M25.611,272.031v0.069c0.738,0.217,1.279,0.527,1.619,0.927c0.338,0.402,0.509,0.906,0.509,1.507
						c0,0.892-0.36,1.584-1.077,2.078c-0.719,0.496-1.709,0.744-2.976,0.744c-1.388,0-2.461-0.208-3.217-0.625v-1.336
						c1.073,0.504,2.157,0.756,3.253,0.756c0.842,0,1.48-0.144,1.911-0.435c0.431-0.29,0.646-0.708,0.646-1.252
						c0-1.119-0.911-1.679-2.734-1.679h-1.336v-1.24h1.046c1.823,0,2.734-0.504,2.734-1.511c0-0.95-0.738-1.425-2.215-1.425
						c-0.452,0-0.861,0.042-1.231,0.123c-0.369,0.083-0.852,0.246-1.45,0.492l-0.519-1.186c0.996-0.444,2.084-0.667,3.261-0.667
						c1.108,0,1.98,0.227,2.619,0.681c0.638,0.454,0.959,1.075,0.959,1.859C27.414,270.991,26.812,271.697,25.611,272.031
						L25.611,272.031z M36.036,277.18l-0.29-1.371h-0.071c-0.481,0.604-0.959,1.013-1.436,1.227s-1.073,0.321-1.788,0.321
						c-0.956,0-1.704-0.246-2.246-0.738s-0.813-1.192-0.813-2.102c0-1.944,1.555-2.965,4.666-3.059l1.636-0.052v-0.598
						c0-0.756-0.163-1.313-0.488-1.675c-0.325-0.36-0.846-0.54-1.561-0.54c-0.802,0-1.709,0.246-2.724,0.738l-0.448-1.115
						c0.475-0.258,0.996-0.46,1.561-0.608c0.565-0.146,1.132-0.219,1.7-0.219c1.148,0,2,0.256,2.553,0.765
						c0.554,0.51,0.831,1.327,0.831,2.452v6.574L36.036,277.18L36.036,277.18z M35.657,272.443l-1.459,0.061
						c-1.159,0.042-1.996,0.223-2.509,0.542c-0.511,0.319-0.769,0.815-0.769,1.488c0,0.529,0.16,0.929,0.481,1.206
						c0.319,0.275,0.765,0.411,1.34,0.411c0.908,0,1.621-0.248,2.14-0.746c0.517-0.498,0.777-1.196,0.777-2.092L35.657,272.443
						L35.657,272.443z M46.978,277.18v-4.342h-5.397v4.342h-1.459v-9.633h1.459v4.034h5.397v-4.034h1.459v9.633H46.978
						L46.978,277.18z M57.455,277.18l-0.29-1.371h-0.071c-0.481,0.604-0.959,1.013-1.436,1.227
						c-0.479,0.213-1.075,0.321-1.788,0.321c-0.956,0-1.704-0.246-2.246-0.738s-0.813-1.192-0.813-2.102
						c0-1.944,1.555-2.965,4.666-3.059l1.634-0.052v-0.598c0-0.756-0.162-1.313-0.486-1.675c-0.325-0.36-0.846-0.54-1.561-0.54
						c-0.802,0-1.711,0.246-2.724,0.738l-0.448-1.115c0.475-0.258,0.994-0.46,1.561-0.608c0.565-0.146,1.131-0.219,1.7-0.219
						c1.148,0,2,0.256,2.553,0.765c0.554,0.51,0.831,1.327,0.831,2.452v6.574L57.455,277.18L57.455,277.18z M57.076,272.443
						l-1.459,0.061c-1.159,0.042-1.996,0.223-2.509,0.542c-0.511,0.319-0.769,0.815-0.769,1.488c0,0.529,0.16,0.929,0.479,1.206
						c0.319,0.275,0.767,0.411,1.342,0.411c0.908,0,1.621-0.248,2.14-0.746c0.517-0.498,0.777-1.196,0.777-2.092L57.076,272.443
						L57.076,272.443z M67.93,277.18v-4.359c-0.613,0.421-1.184,0.719-1.709,0.892c-0.523,0.173-1.117,0.26-1.779,0.26
						c-0.961,0-1.715-0.252-2.259-0.756s-0.817-1.186-0.817-2.048v-3.622h1.459v3.517c0,1.125,0.64,1.686,1.925,1.686
						c0.533,0,1.042-0.081,1.529-0.246c0.486-0.163,1.038-0.442,1.652-0.834v-4.122h1.459v9.633L67.93,277.18L67.93,277.18z
						 M73.46,272.627c0.029,1.132,0.315,1.99,0.856,2.576c0.542,0.586,1.306,0.879,2.29,0.879c1.038,0,2.063-0.217,3.076-0.65v1.3
						c-0.515,0.223-1.004,0.383-1.463,0.479c-0.46,0.098-1.015,0.146-1.665,0.146c-1.425,0-2.548-0.435-3.371-1.302
						c-0.823-0.867-1.234-2.071-1.234-3.613c0-1.552,0.381-2.786,1.146-3.699c0.765-0.913,1.792-1.371,3.08-1.371
						c1.208,0,2.163,0.396,2.865,1.19c0.704,0.794,1.056,1.842,1.056,3.142v0.923L73.46,272.627L73.46,272.627z M77.915,269.328
						c-0.409-0.488-0.996-0.734-1.757-0.734c-0.773,0-1.39,0.252-1.85,0.756c-0.46,0.506-0.731,1.202-0.813,2.092h5.036
						C78.53,270.522,78.326,269.816,77.915,269.328L77.915,269.328z M89.438,277.18v-4.342h-5.397v4.342h-1.457v-9.633h1.457v4.034
						h5.397v-4.034h1.459v9.633H89.438L89.438,277.18z M100.943,277.18v-5.887l0.025-1.161l0.044-1.142l-5.203,8.191H93.99v-9.633
						h1.371v6.108l-0.062,1.6l-0.027,0.502l5.213-8.21h1.819v9.633h-1.361V277.18z M110.839,277.18v-3.849h-2.434l-2.523,3.849
						h-1.705l2.769-4.068c-0.744-0.163-1.315-0.483-1.709-0.954c-0.396-0.471-0.594-1.065-0.594-1.78
						c0-0.879,0.296-1.569,0.888-2.075c0.592-0.504,1.417-0.756,2.478-0.756h4.29v9.633L110.839,277.18L110.839,277.18z
						 M110.839,268.814h-2.646c-1.419,0-2.127,0.527-2.127,1.58c0,1.113,0.808,1.671,2.425,1.671h2.348V268.814L110.839,268.814z"/>
				</defs>
				<use xlink:href="#SVGID_8_"  overflow="visible" fill="#FFFFFF"/>
				<clipPath id="SVGID_9_">
					<use xlink:href="#SVGID_8_"  overflow="visible"/>
				</clipPath>
				<g clip-path="url(#SVGID_9_)">
				</g>
			</g>
		</g>
	</g>
</g>
</svg>
