<svg width="213px" height="208px" viewBox="0 0 213 208" version="1.1" xmlns="http://www.w3.org/2000/svg" xmlns:xlink="http://www.w3.org/1999/xlink">
    <defs>
        <linearGradient x1="-1.11022302e-14%" y1="50%" x2="100%" y2="50%" id="linearGradient-1">
            <stop stop-color="#972B38" offset="0%"></stop>
            <stop stop-color="#131F39" offset="100%"></stop>
        </linearGradient>
    </defs>
    <g id="Page-1" stroke="none" stroke-width="1" fill="none" fill-rule="evenodd">
        <g id="Group">
            <path d="M209.886,12.422 C209.084,12.102 189.906,4.537 167.182,4.537 C153.622,4.537 141.635,7.25 131.55,12.6 C122.614,17.342 110.492,19.743 95.519,19.743 C74.56,19.743 53.893,14.957 46.529,13.058 L46.529,3.949 C46.528,1.765 44.763,0 42.579,0 C40.395,0 38.63,1.765 38.63,3.949 L38.63,15.795 C38.63,15.85 38.658,15.898 38.662,15.953 C38.662,16 38.63,16.04 38.63,16.087 L38.63,130.304 L38.63,134.545 L38.63,203.968 C38.63,206.152 40.395,207.917 42.579,207.917 C44.763,207.917 46.528,206.152 46.528,203.968 L46.528,139.674 C55.503,141.901 75.128,146.098 95.518,146.098 C111.794,146.098 125.16,143.381 135.249,138.035 C144.185,133.293 154.925,130.888 167.181,130.888 C188.334,130.888 206.774,138.138 206.955,138.209 C208.175,138.699 209.549,138.549 210.635,137.806 C211.717,137.079 212.368,135.855 212.368,134.544 L212.368,16.087 C212.369,14.472 211.386,13.022 209.886,12.422 L209.886,12.422 Z" id="50" fill="url(#linearGradient-1)"></path>
            <path d="M0,0 L212.368001,0 L212.368001,207.917 L0,207.917 L0,0 Z M209.886,12.422 C209.084,12.102 189.906,4.537 167.182,4.537 C153.622,4.537 141.635,7.25 131.55,12.6 C122.614,17.342 110.492,19.743 95.519,19.743 C74.56,19.743 53.893,14.957 46.529,13.058 L46.529,3.949 C46.528,1.765 44.763,0 42.579,0 C40.395,0 38.63,1.765 38.63,3.949 L38.63,15.795 C38.63,15.85 38.658,15.898 38.662,15.953 C38.662,16 38.63,16.04 38.63,16.087 L38.63,130.304 L38.63,134.545 L38.63,203.968 C38.63,206.152 40.395,207.917 42.579,207.917 C44.763,207.917 46.528,206.152 46.528,203.968 L46.528,139.674 C55.503,141.901 75.128,146.098 95.518,146.098 C111.794,146.098 125.16,143.381 135.249,138.035 C144.185,133.293 154.925,130.888 167.181,130.888 C188.334,130.888 206.774,138.138 206.955,138.209 C208.175,138.699 209.549,138.549 210.635,137.806 C211.717,137.079 212.368,135.855 212.368,134.544 L212.368,16.087 C212.369,14.472 211.386,13.022 209.886,12.422 L209.886,12.422 Z" id="50-2" fill="#131F39"></path>
            <g id="50-3" transform="translate(0.000000, 64.000000)" fill="#FFFFFF">
                <path d="M41.748,39.319 C47.9,39.319 53.454,40.747 58.41,43.604 C63.366,46.461 67.223,50.501 69.982,55.726 C72.741,60.952 74.121,66.981 74.121,73.817 C74.121,85.781 70.519,94.96 63.318,101.356 C56.115,107.753 45.214,110.95 30.615,110.95 C18.115,110.95 7.91,109.022 -3.55271368e-15,105.164 L-3.55271368e-15,81.434 C4.248,83.388 9.045,84.999 14.393,86.268 C19.739,87.539 24.341,88.172 28.199,88.172 C33.57,88.172 37.695,87.037 40.577,84.766 C43.458,82.495 44.898,79.139 44.898,74.695 C44.898,70.593 43.433,67.396 40.503,65.1 C37.573,62.806 33.13,61.658 27.173,61.658 C22.632,61.658 17.725,62.513 12.451,64.221 L1.831,58.948 L5.859,2.405 L66.943,2.405 L66.943,26.502 L30.468,26.502 L29.15,40.638 C32.959,39.906 35.669,39.503 37.28,39.43 C38.891,39.357 40.381,39.319 41.748,39.319 L41.748,39.319 Z" id="Shape"></path>
                <path d="M163.623,56.091 C163.623,75.037 160.448,88.916 154.102,97.729 C147.754,106.543 138.037,110.949 124.952,110.949 C112.159,110.949 102.514,106.347 96.021,97.143 C89.527,87.94 86.28,74.255 86.28,56.091 C86.28,37.048 89.454,23.084 95.801,14.196 C102.148,5.31 111.865,0.866 124.951,0.866 C137.695,0.866 147.326,5.493 153.846,14.745 C160.363,24 163.623,37.781 163.623,56.091 L163.623,56.091 Z M115.063,56.091 C115.063,68.201 115.82,76.526 117.334,81.067 C118.847,85.608 121.387,87.879 124.951,87.879 C128.564,87.879 131.115,85.535 132.605,80.848 C134.093,76.16 134.838,67.91 134.838,56.092 C134.838,44.227 134.08,35.914 132.567,31.153 C131.053,26.392 128.513,24.012 124.95,24.012 C121.386,24.012 118.846,26.308 117.333,30.897 C115.82,35.486 115.063,43.885 115.063,56.091 L115.063,56.091 Z" id="Shape"></path>
            </g>
        </g>
    </g>
</svg>