<svg width="213px" height="208px" viewBox="0 0 213 208" version="1.1" xmlns="http://www.w3.org/2000/svg" xmlns:xlink="http://www.w3.org/1999/xlink">
    <defs>
        <linearGradient x1="-1.11022302e-14%" y1="50%" x2="100%" y2="50%" id="linearGradient-1">
            <stop stop-color="#972B38" offset="0%"></stop>
            <stop stop-color="#131F39" offset="100%"></stop>
        </linearGradient>
    </defs>
    <g id="Page-1" stroke="none" stroke-width="1" fill="none" fill-rule="evenodd">
        <g id="Group">
            <path d="M209.886,12.422 C209.084,12.102 189.906,4.537 167.182,4.537 C153.622,4.537 141.635,7.25 131.55,12.6 C122.614,17.342 110.492,19.743 95.519,19.743 C74.56,19.743 53.893,14.957 46.529,13.058 L46.529,3.949 C46.528,1.765 44.763,0 42.579,0 C40.395,0 38.63,1.765 38.63,3.949 L38.63,15.795 C38.63,15.85 38.658,15.898 38.662,15.953 C38.662,16 38.63,16.04 38.63,16.087 L38.63,130.304 L38.63,134.545 L38.63,203.968 C38.63,206.152 40.395,207.917 42.579,207.917 C44.763,207.917 46.528,206.152 46.528,203.968 L46.528,139.674 C55.503,141.901 75.128,146.098 95.518,146.098 C111.794,146.098 125.16,143.381 135.249,138.035 C144.185,133.293 154.925,130.888 167.181,130.888 C188.334,130.888 206.774,138.138 206.955,138.209 C208.175,138.699 209.549,138.549 210.635,137.806 C211.717,137.079 212.368,135.855 212.368,134.544 L212.368,16.087 C212.369,14.472 211.386,13.022 209.886,12.422 L209.886,12.422 Z" id="50" fill="url(#linearGradient-1)"></path>
        </g>
    </g>
</svg>