<svg id="Слой_1" data-name="Слой 1" xmlns="http://www.w3.org/2000/svg" viewBox="0 0 317 156"><defs><style>.cls-1{fill:#131f38;}</style></defs><title>ch 2.</title><path class="cls-1" d="M0,109v47H47A47,47,0,0,1,0,109Z" transform="translate(0)"/><path class="cls-1" d="M313,155H280a4,4,0,0,1-4-4V97H205v54a4,4,0,0,1-4,4H168a4,4,0,0,1-4-4V4a4,4,0,0,1,4-4H0V48A47,47,0,0,1,47,1h60a47,47,0,0,1,47,47v8H120V45a9,9,0,0,0-9-9H50a9,9,0,0,0-9,9v67a9,9,0,0,0,9,9h61a9,9,0,0,0,9-9V99h34v10a47,47,0,0,1-47,47H317v-5A4,4,0,0,1,313,155Z" transform="translate(0)"/><path class="cls-1" d="M313,48H280a4,4,0,0,1-4-4V4a4,4,0,0,1,4-4H201a4,4,0,0,1,4,4V56H312a4,4,0,0,1,3.28,1.72A4,4,0,0,1,317,61V44A4,4,0,0,1,313,48Z" transform="translate(0)"/><path class="cls-1" d="M313,0a4,4,0,0,1,4,4V0Z" transform="translate(0)"/></svg>