<svg id="Слой_1" data-name="Слой 1" xmlns="http://www.w3.org/2000/svg" xmlns:xlink="http://www.w3.org/1999/xlink" viewBox="0 0 317 156"><defs><style>.cls-1{fill:url(#linear-gradient);}.cls-2{clip-path:url(#clip-path);}</style><linearGradient id="linear-gradient" y1="78" x2="317" y2="78" gradientUnits="userSpaceOnUse"><stop offset="0" stop-color="#ed3539"/><stop offset="1" stop-color="#141f38"/></linearGradient><clipPath id="clip-path"><path class="cls-1" d="M313,155H280a4,4,0,0,1-4-4V97H205v54a4,4,0,0,1-4,4H168a4,4,0,0,1-4-4V4a4,4,0,0,1,4-4h33a4,4,0,0,1,4,4V56H312a4,4,0,0,1,3.28,1.72A4,4,0,0,1,317,61v90a4,4,0,0,1-4,4Zm0-107H280a4,4,0,0,1-4-4V4a4,4,0,0,1,4-4h33a4,4,0,0,1,4,4V44a4,4,0,0,1-4,4ZM107,156H47A47,47,0,0,1,0,109V48A47,47,0,0,1,47,1h60a47,47,0,0,1,47,47v8H120V45a9,9,0,0,0-9-9H50a9,9,0,0,0-9,9v67a9,9,0,0,0,9,9h61a9,9,0,0,0,9-9V99h34v10a47,47,0,0,1-47,47Z"/></clipPath></defs><title>ch 1.</title><path class="cls-1" d="M313,155H280a4,4,0,0,1-4-4V97H205v54a4,4,0,0,1-4,4H168a4,4,0,0,1-4-4V4a4,4,0,0,1,4-4h33a4,4,0,0,1,4,4V56H312a4,4,0,0,1,3.28,1.72A4,4,0,0,1,317,61v90a4,4,0,0,1-4,4Zm0-107H280a4,4,0,0,1-4-4V4a4,4,0,0,1,4-4h33a4,4,0,0,1,4,4V44a4,4,0,0,1-4,4ZM107,156H47A47,47,0,0,1,0,109V48A47,47,0,0,1,47,1h60a47,47,0,0,1,47,47v8H120V45a9,9,0,0,0-9-9H50a9,9,0,0,0-9,9v67a9,9,0,0,0,9,9h61a9,9,0,0,0,9-9V99h34v10a47,47,0,0,1-47,47Z"/></svg>