<svg id="Слой_1" data-name="Слой 1" xmlns="http://www.w3.org/2000/svg" xmlns:xlink="http://www.w3.org/1999/xlink" viewBox="0 0 235.03 169.02"><defs><style>.cls-1{fill:url(#linear-gradient);}.cls-2{clip-path:url(#clip-path);}</style><linearGradient id="linear-gradient" y1="84.51" x2="235.03" y2="84.51" gradientUnits="userSpaceOnUse"><stop offset="0" stop-color="#ed3338"/><stop offset="1" stop-color="#131f38"/></linearGradient><clipPath id="clip-path" transform="translate(0 0)"><path class="cls-1" d="M235,35.6c0,15-.25,37.62,0,49a8,8,0,0,1-6.5,8.35c-4.53.93-10.1,1.9-11.86,2.12-3.13.39-13,3.55-20.07-3.26-11-10.47-50-49.07-50-49.07s-6.73-6.57-17.53-.89c-9.92,5.2-24.61,12.82-30.75,15.79-11.61,6.14-21.22-3.61-21.22-11,0-5.76,3.61-9.67,8.78-12.55,14-8.44,43.5-24.92,55.79-31.42,7.47-4,12.85-4.29,23.11,4.3,12.63,10.57,23.87,20.2,23.87,20.2A11.73,11.73,0,0,0,198.15,29C206,27.33,209.3,26.71,217,25c14.53-3.2,18-1.68,18,10.6ZM79.73,140.87c1.89-4.83,1.26-10.23-2.36-13.94-3.26-3.32-8-4.19-12.54-3.16,1.27-4.47.57-9.23-2.71-12.59s-8-4.2-12.54-3.15c1.26-4.47.56-9.22-2.72-12.57-5.13-5.23-14-5-19.82.52s-9.51,15.55-4.33,21.45,11.1,2.3,15.62,1.27c-1.26,4.47-5,8.62-.39,14.46s11.1,2.3,15.63,1.28c-1.26,4.45-4.87,9-.4,14.43s11.89,2.54,16.76,1c-1.88,4.81-5.91,10-.73,15.81s17.1,3.15,22.93-2.39,6.37-14.3,1.26-19.55c-3.53-3.6-8.8-4.44-13.65-2.93ZM186.1,104.05c-42.14-41.93-22.32-22.2-45-44.81,0,0-6.82-6.75-15.8-2.83-6.31,2.75-14.43,6.5-20.53,9.36-6.71,3.5-11.54,4.58-13.81,4.57A23.29,23.29,0,0,1,78.58,27.2C87.94,20.75,109.5,9.34,109.5,9.34s-6.57-8.28-21-8.28S44.12,20.65,44.12,20.65s-8.52,5.43-20.67.54c0,0-2.95-1-9.42-3.18C3.2,14.43.06,18.49,0,24.64-.07,40.57.13,69,0,84.06c-.06,7,2.17,10,5.49,11.72,2.05,1,4.76,1.64,7.23,2.64a26.62,26.62,0,0,1,6.58-10.34c10-9.45,26.49-9.54,35.56-.25a22.3,22.3,0,0,1,5.61,9.92,22.74,22.74,0,0,1,9.62,5.83,22.24,22.24,0,0,1,5.62,9.9,22.83,22.83,0,0,1,15.57,16.69,23.07,23.07,0,0,1,10,6,23.49,23.49,0,0,1,6.21,20.41,0,0,0,0,1,0,0c.09.11,3.38,3.76,5.43,5.82a10.39,10.39,0,0,0,14.61,0,10.28,10.28,0,0,0,0-14.53c-.14-.14-14.49-15.08-13.34-16.24s19.43,17.78,19.77,18.13a10.4,10.4,0,0,0,14.6,0,10.26,10.26,0,0,0,0-14.53c-.2-.19-1-1-1.33-1.28,0,0-18.13-16.07-16.75-17.44s23.91,19.53,24,19.53a10.34,10.34,0,0,0,14.18-.28,10.16,10.16,0,0,0,.51-13.75c-.07-.21-17.16-18-15.83-19.32s18.26,16,18.3,16a10.4,10.4,0,0,0,14.6,0,10.29,10.29,0,0,0,0-14.54l-.18-.11Z"/></clipPath></defs><title>ruki 1.</title><path class="cls-1" d="M235,35.6c0,15-.25,37.62,0,49a8,8,0,0,1-6.5,8.35c-4.53.93-10.1,1.9-11.86,2.12-3.13.39-13,3.55-20.07-3.26-11-10.47-50-49.07-50-49.07s-6.73-6.57-17.53-.89c-9.92,5.2-24.61,12.82-30.75,15.79-11.61,6.14-21.22-3.61-21.22-11,0-5.76,3.61-9.67,8.78-12.55,14-8.44,43.5-24.92,55.79-31.42,7.47-4,12.85-4.29,23.11,4.3,12.63,10.57,23.87,20.2,23.87,20.2A11.73,11.73,0,0,0,198.15,29C206,27.33,209.3,26.71,217,25c14.53-3.2,18-1.68,18,10.6ZM79.73,140.87c1.89-4.83,1.26-10.23-2.36-13.94-3.26-3.32-8-4.19-12.54-3.16,1.27-4.47.57-9.23-2.71-12.59s-8-4.2-12.54-3.15c1.26-4.47.56-9.22-2.72-12.57-5.13-5.23-14-5-19.82.52s-9.51,15.55-4.33,21.45,11.1,2.3,15.62,1.27c-1.26,4.47-5,8.62-.39,14.46s11.1,2.3,15.63,1.28c-1.26,4.45-4.87,9-.4,14.43s11.89,2.54,16.76,1c-1.88,4.81-5.91,10-.73,15.81s17.1,3.15,22.93-2.39,6.37-14.3,1.26-19.55c-3.53-3.6-8.8-4.44-13.65-2.93ZM186.1,104.05c-42.14-41.93-22.32-22.2-45-44.81,0,0-6.82-6.75-15.8-2.83-6.31,2.75-14.43,6.5-20.53,9.36-6.71,3.5-11.54,4.58-13.81,4.57A23.29,23.29,0,0,1,78.58,27.2C87.94,20.75,109.5,9.34,109.5,9.34s-6.57-8.28-21-8.28S44.12,20.65,44.12,20.65s-8.52,5.43-20.67.54c0,0-2.95-1-9.42-3.18C3.2,14.43.06,18.49,0,24.64-.07,40.57.13,69,0,84.06c-.06,7,2.17,10,5.49,11.72,2.05,1,4.76,1.64,7.23,2.64a26.62,26.62,0,0,1,6.58-10.34c10-9.45,26.49-9.54,35.56-.25a22.3,22.3,0,0,1,5.61,9.92,22.74,22.74,0,0,1,9.62,5.83,22.24,22.24,0,0,1,5.62,9.9,22.83,22.83,0,0,1,15.57,16.69,23.07,23.07,0,0,1,10,6,23.49,23.49,0,0,1,6.21,20.41,0,0,0,0,1,0,0c.09.11,3.38,3.76,5.43,5.82a10.39,10.39,0,0,0,14.61,0,10.28,10.28,0,0,0,0-14.53c-.14-.14-14.49-15.08-13.34-16.24s19.43,17.78,19.77,18.13a10.4,10.4,0,0,0,14.6,0,10.26,10.26,0,0,0,0-14.53c-.2-.19-1-1-1.33-1.28,0,0-18.13-16.07-16.75-17.44s23.91,19.53,24,19.53a10.34,10.34,0,0,0,14.18-.28,10.16,10.16,0,0,0,.51-13.75c-.07-.21-17.16-18-15.83-19.32s18.26,16,18.3,16a10.4,10.4,0,0,0,14.6,0,10.29,10.29,0,0,0,0-14.54l-.18-.11Z" transform="translate(0 0)"/></svg>