<svg id="Слой_1" data-name="Слой 1" xmlns="http://www.w3.org/2000/svg" viewBox="0 0 235.03 169.02"><defs><style>.cls-1{fill:#131f39;}</style></defs><title>ruki 2.</title><path class="cls-1" d="M0,0V34.24c0-3.5,0-6.75,0-9.6C.06,18.49,3.2,14.43,14,18c6.47,2.14,9.42,3.18,9.42,3.18,12.15,4.89,20.67-.54,20.67-.54s30-19.58,44.43-19.58,21,8.28,21,8.28S87.94,20.75,78.57,27.2A23.29,23.29,0,0,0,91,70.34c2.27,0,7.1-1.07,13.81-4.57,6.11-2.86,14.23-6.61,20.53-9.36,9-3.92,15.8,2.83,15.8,2.83,22.68,22.61,2.86,2.88,45,44.81l.18.11a10.29,10.29,0,0,1,0,14.54,10.4,10.4,0,0,1-14.6,0s-16.95-17.36-18.3-16S169.14,121.8,169.21,122a10.16,10.16,0,0,1-.51,13.75,10.34,10.34,0,0,1-14.18.28s-22.55-20.91-24-19.53S147.32,134,147.32,134c.31.31,1.13,1.09,1.33,1.28a10.26,10.26,0,0,1,0,14.53,10.4,10.4,0,0,1-14.6,0c-.34-.35-18.62-19.27-19.77-18.12s13.2,16.09,13.34,16.24a10.28,10.28,0,0,1,0,14.53,10.39,10.39,0,0,1-14.61,0c-2.05-2.06-5.34-5.7-5.43-5.82a0,0,0,0,0,0,0,23.49,23.49,0,0,0-6.21-20.41,23.08,23.08,0,0,0-10-6,22.83,22.83,0,0,0-15.57-16.69,22.24,22.24,0,0,0-5.62-9.9,22.74,22.74,0,0,0-9.62-5.83,22.3,22.3,0,0,0-5.61-9.92c-9.07-9.29-25.59-9.19-35.56.25a26.62,26.62,0,0,0-6.59,10.34c-2.47-1-5.18-1.6-7.23-2.64C2.17,94.09-.06,91,0,84.06c.1-11.56,0-31,0-46.62V169H235V0ZM92.12,163.34c-5.83,5.53-17.76,8.24-22.93,2.39s-1.15-11,.73-15.81c-4.87,1.51-12.25,4.4-16.76-1s-.86-10,.4-14.43c-4.53,1-11,4.56-15.62-1.28s-.87-10,.39-14.46c-4.52,1-10.46,4.6-15.62-1.27S21.25,101.52,27,96s14.69-5.75,19.82-.52c3.28,3.35,4,8.11,2.72,12.57,4.53-1,9.27-.15,12.54,3.15s4,8.12,2.7,12.59c4.53-1,9.28-.16,12.54,3.16,3.62,3.7,4.25,9.11,2.36,13.94,4.85-1.51,10.12-.68,13.65,2.92C98.49,149,97.93,157.81,92.12,163.34ZM235,84.63a8,8,0,0,1-6.5,8.35c-4.53.93-10.1,1.9-11.86,2.12-3.13.39-13,3.55-20.07-3.26-11-10.47-50-49.07-50-49.07s-6.73-6.57-17.53-.89c-9.92,5.2-24.61,12.82-30.75,15.79-11.61,6.14-21.22-3.61-21.22-11,0-5.76,3.61-9.67,8.78-12.54,14-8.44,43.5-24.92,55.79-31.42,7.47-4,12.85-4.29,23.11,4.3,12.63,10.57,23.87,20.2,23.87,20.2A11.73,11.73,0,0,0,198.15,29C206,27.34,209.3,26.71,217,25c14.53-3.2,18-1.68,18,10.6C235,50.59,234.77,73.23,235,84.63Z" transform="translate(0 0)"/></svg>