<svg id="Слой_1" data-name="Слой 1" xmlns="http://www.w3.org/2000/svg" viewBox="0 0 200 200"><defs><style>.cls-1{fill:#131f38;}</style></defs><title>Sh2.</title><path class="cls-1" d="M65,99a35,35,0,1,0,35-35A35,35,0,0,0,65,99Z" transform="translate(0)"/><path class="cls-1" d="M10.29,77.78h7.47a84.46,84.46,0,0,1,8.37-20.21l-5.28-5.28a10.31,10.31,0,0,1,0-14.57L37.72,20.86a10.55,10.55,0,0,1,14.57,0l5.28,5.28a84.58,84.58,0,0,1,20.21-8.37V10.29A10.31,10.31,0,0,1,88.07,0H0V88.07A10.31,10.31,0,0,1,10.29,77.78Z" transform="translate(0)"/><path class="cls-1" d="M111.93,0a10.31,10.31,0,0,1,10.3,10.29v7.47a84.71,84.71,0,0,1,20.21,8.37l5.28-5.28a10.56,10.56,0,0,1,14.57,0l16.86,16.86a10.31,10.31,0,0,1,0,14.57l-5.28,5.28a84.69,84.69,0,0,1,8.37,20.21h7.47A10.3,10.3,0,0,1,200,88.07v23.84a10.31,10.31,0,0,1-10.29,10.3h-7.47a84.81,84.81,0,0,1-8.37,20.21l5.28,5.28a10.31,10.31,0,0,1,0,14.57l-16.86,16.86a10.55,10.55,0,0,1-14.57,0l-5.28-5.28a84.67,84.67,0,0,1-20.21,8.37v7.47A10.31,10.31,0,0,1,111.92,200H200V0Z" transform="translate(0)"/><path class="cls-1" d="M77.78,189.71v-7.47a84.8,84.8,0,0,1-20.21-8.37l-5.28,5.28a10.54,10.54,0,0,1-14.57,0L20.86,162.28a10.31,10.31,0,0,1,0-14.57l5.28-5.28a84.56,84.56,0,0,1-8.37-20.21H10.29A10.31,10.31,0,0,1,0,111.92V200H88.07A10.31,10.31,0,0,1,77.78,189.71Z" transform="translate(0)"/></svg>