<svg xmlns="http://www.w3.org/2000/svg" width="118.624" height="118.624" viewBox="0 0 118.624 118.624"><path d="M45.192 24.437v15.297H29.896a2.804 2.804 0 0 0-2.802 2.802V65.17a2.799 2.799 0 0 0 2.802 2.802h15.296v15.294a2.81 2.81 0 0 0 2.802 2.802h22.638a2.816 2.816 0 0 0 2.802-2.802V67.972h15.288a2.797 2.797 0 0 0 2.802-2.802V42.535a2.802 2.802 0 0 0-2.802-2.802H73.434V24.437a2.81 2.81 0 0 0-2.802-2.801H47.994a2.803 2.803 0 0 0-2.802 2.801zm5.604 18.104V27.244H67.83v15.297a2.8 2.8 0 0 0 2.802 2.801H85.92V62.38H70.632a2.8 2.8 0 0 0-2.802 2.802V80.47H50.796V65.182a2.802 2.802 0 0 0-2.802-2.802H32.698V45.342h15.296a2.794 2.794 0 0 0 2.802-2.801zm66.383-27.253C100.021 5.829 80.017.83 59.312.83c-20.708 0-40.72 5.005-57.865 14.458a2.809 2.809 0 0 0-1.44 2.667c3.182 42.876 24.825 80.058 57.889 99.462.439.262.93.377 1.416.377.489 0 .98-.115 1.418-.377 33.064-19.404 54.717-56.597 57.886-99.467a2.783 2.783 0 0 0-1.437-2.662zm-57.867 96.438C29.094 93.309 9.199 58.992 5.74 19.329 21.705 10.876 40.178 6.422 59.312 6.422c19.122 0 37.602 4.454 53.574 12.906-3.452 39.664-23.343 73.973-53.574 92.398z"/></svg>