<svg xmlns="http://www.w3.org/2000/svg" viewBox="0 0 512 512"><path d="M343.071 434.93c-3.9-3.91-10.24-3.91-14.14 0-3.91 3.9-3.91 10.24 0 14.14 3.9 3.91 10.24 3.91 14.14 0 3.91-3.9 3.91-10.24 0-14.14z"/><path d="M496.372 302.273c-.197-.152-66.044-35.903-79.346-42.727a691041.176 691041.176 0 0 1-48.472-80.177c-6.611-10.915-18.048-18.002-30.76-19.161a9.22 9.22 0 0 0-2.572-.128L176.005 160c-.24-.02-.408.006-.611.019-.098.006-.195.02-.293.027-.069.006-.137.011-.206.019-12.945.95-24.674 8.13-31.453 19.312 0 0-36.769 60.826-48.467 80.169-18.609 9.545-71.565 38.745-77.553 41.62-.635.305-1.236.676-1.793 1.107-19.359 14.986-20.795 43.122-3.913 60.004 12.871 12.884 32.813 15.445 48.512 6.212 1.658-.978 34.737-22.019 55.063-33.284 15.309-8.491 29.188-19.447 41.261-32.577 5.124-5.589 6.767-7.363 9.449-10.285v83.445l-87.327 43.165c-11.933 5.891-21.046 16.574-25.002 29.307-3.962 12.739-2.512 26.709 3.981 38.332 8.9 15.91 25.183 25.408 43.558 25.408h309.58c18.035 0 34.165-9.229 43.147-24.688 6.759-11.638 8.405-25.713 4.521-38.605-3.877-12.924-13.026-23.763-25.106-29.741l-87.352-43.177v-83.451l9.757 10.62a162.726 162.726 0 0 0 40.955 32.25c20.409 11.312 53.352 32.275 55.08 33.293 15.626 9.188 35.574 6.708 48.489-6.219 16.936-16.938 15.389-45.07-3.91-60.009zM226.001 179.925l60 .03V210c0 16.542-13.458 30-30 30-16.569 0-30-13.429-30-30v-30.075zm-40-.02l20 .01V210c0 27.621 22.373 50 50 50 27.57 0 50-22.43 50-50v-30.035l20 .01V372h-140V179.905zM141.8 289.11c-.022.024-.041.051-.063.076-10.59 11.5-22.75 21.099-36.144 28.527-20.449 11.334-53.52 32.322-55.521 33.546-7.824 4.6-17.778 3.318-24.21-3.121-8.091-8.09-7.944-21.688 1.314-29.489 10.174-5.166 63.756-34.745 79.345-42.535a10 10 0 0 0 4.086-3.77c9.63-15.919 49.947-82.612 49.946-82.612a20.409 20.409 0 0 1 5.448-5.922v78.965c-.178.191-24.109 26.235-24.201 26.335zM226.001 492h-40c-11.028 0-20-8.972-20-20s8.972-20 20-20h40v40zm198.485-55.107c7.126 3.526 12.526 9.927 14.819 17.572 2.297 7.622 1.327 15.934-2.661 22.801C431.204 486.63 421.78 492 410.791 492h-164.79v-40h50c5.522 0 10-4.477 10-10s-4.478-10-10-10h-110c-22.056 0-40 17.944-40 40a39.741 39.741 0 0 0 5.381 20H101.21c-11.195 0-20.709-5.53-26.1-15.167-3.83-6.855-4.683-15.104-2.34-22.636 2.338-7.525 7.717-13.834 14.761-17.312L178.338 392h155.326l90.822 44.893zm61.65-88.749c-6.43 6.435-16.383 7.716-24.143 3.155-2.213-1.346-34.889-22.113-55.582-33.583a142.732 142.732 0 0 1-35.925-28.289c-7.594-8.268-16.957-18.453-24.485-26.644v-78.934a20.012 20.012 0 0 1 5.442 5.874s40.321 66.702 49.951 82.623a10.01 10.01 0 0 0 4.087 3.77c15.487 7.739 69.261 37.414 79.345 42.535 9.284 7.824 9.382 21.422 1.31 29.493zM256.001 0c-38.598 0-70 31.402-70 70s31.402 70 70 70c38.597 0 70-31.402 70-70s-31.402-70-70-70zm0 120c-27.57 0-50-22.43-50-50s22.43-50 50-50 50 22.43 50 50-22.43 50-50 50z"/></svg>