<svg xmlns="http://www.w3.org/2000/svg" viewBox="0 0 480 480"><path d="M480 343.976l-.551-161.723c-.068-32.307-16.312-59.489-38.282-67.67 19.139-18.307 19.813-48.662 1.506-67.801A47.956 47.956 0 0 0 408 31.976h-.102c-26.51.056-47.955 21.592-47.899 48.102a48.001 48.001 0 0 0 17.702 37.131 42.221 42.221 0 0 0-9.21 6.197l-94.02 74.125c-12.195 9.601-14.299 27.27-4.698 39.465a28.107 28.107 0 0 0 18.076 10.433c-1.255 33.488-10.816 56.403-19.318 62.737a31.591 31.591 0 0 0 3.467-14.189c0-17.673-14.327-32-32-32-17.673 0-32 14.327-32 32a31.6 31.6 0 0 0 3.467 14.189c-8.443-6.29-17.94-28.92-19.3-62.031 15.405 1.91 29.441-9.03 31.351-24.434a28.109 28.109 0 0 0-11.416-26.229l-98.32-71.25a51.103 51.103 0 0 0-17.399-10.917c19.521-17.905 20.831-48.245 2.926-67.766-17.905-19.521-48.245-20.831-67.766-2.926-19.521 17.905-20.831 48.245-2.926 67.766a47.873 47.873 0 0 0 4.76 4.524C13.689 127.531 0 154.539 0 187.07v276.934a8.002 8.002 0 0 0 8 8h.004l96-.027a8 8 0 0 0 7.996-8V192.105l64.015 48.648c.139 36.232 10.386 74.092 29.446 84.423A50.15 50.15 0 0 0 200 348.804v115.199a8 8 0 0 0 8 8h64a8 8 0 0 0 8-8V348.804a50.15 50.15 0 0 0-5.461-23.628c18.314-9.927 28.468-45.26 29.359-80.159a28.387 28.387 0 0 0 5.122-3.095l43.758-33.613L352 343.957a8.003 8.003 0 0 0 7.958 8.047H360v96c0 13.255 10.745 24 24 24s24-10.745 24-24v-96h16v96c0 13.255 10.745 24 24 24s24-10.745 24-24v-96a7.995 7.995 0 0 0 8-7.991v-.037zm-448-264c0-17.673 14.327-32 32-32s32 14.327 32 32-14.327 32-32 32c-17.665-.02-31.98-14.335-32-32zm76.84 89.633A7.998 7.998 0 0 0 96 175.976V455.98l-32 .008V296.004H48v159.988L16 456V187.07c0-32.016 16.523-59.066 36.078-59.066h26.246a35.109 35.109 0 0 1 24.707 10.078c.281.277.582.532.902.762l98.777 71.582c5.439 3.945 6.651 11.553 2.706 16.992-3.825 5.274-11.127 6.599-16.561 3.004l-80.015-60.813zM240 279.976c8.837 0 16 7.163 16 16s-7.163 16-16 16-16-7.163-16-16c.009-8.833 7.167-15.991 16-16zm24 176.027h-16v-64h-16v64h-16V348.804c0-13.512 5.68-20.801 8-20.801h32c2.32 0 8 7.289 8 20.801v107.199zM376 80.046c-.02-17.665 14.264-32.013 31.93-32.07h.07c17.673-.021 32.017 14.29 32.037 31.963.02 17.673-14.29 32.017-31.963 32.037h-.07c-17.647.002-31.964-14.283-32.004-31.93zm16 367.957a8 8 0 0 1-16 0v-96h16v96zm64 0a8 8 0 0 1-16 0v-96h16v96zm-87.953-112l.824-143.953a8 8 0 0 0-12.875-6.39l-56.723 43.574c-5.312 4.079-12.925 3.078-17.004-2.234-4.041-5.263-3.101-12.797 2.109-16.907l94.461-74.496a28.85 28.85 0 0 1 19.457-7.559l29.063-.035h.051c19.477 0 35.977 24.844 36.039 54.293l.523 153.707h-95.925z"/><path d="M287.141 17.367c-.113-.114-.226-.228-.34-.34-12.27-12.042-31.923-12.04-44.191.004L240 19.609l-2.613-2.582c-12.269-12.039-31.918-12.039-44.188 0-12.134 11.95-12.284 31.474-.334 43.608.11.112.222.223.334.334l41.176 40.699a8.007 8.007 0 0 0 11.25 0l41.172-40.699c12.135-11.946 12.289-31.467.344-43.602zm-11.59 32.219L240 84.726l-35.555-35.141c-5.847-5.734-5.938-15.121-.204-20.968l.208-.208c6.022-5.91 15.667-5.912 21.691-.004l8.234 8.141a7.993 7.993 0 0 0 11.25 0l8.23-8.137c6.024-5.91 15.671-5.91 21.695 0a14.78 14.78 0 0 1 4.449 10.59 14.775 14.775 0 0 1-4.447 10.587z"/></svg>