<svg xmlns="http://www.w3.org/2000/svg" viewBox="0 0 512.001 512.001"><path d="M437.001 0H114.743C87.315 0 65.001 22.314 65.001 49.742v370.182c0 .201.018.398.03.596.014.529.032 1.057.062 1.584.006.102.015.203.021.305.046.724.107 1.445.184 2.163l.038.325a50.25 50.25 0 0 0 .763 4.688v.002a49.592 49.592 0 0 0 11.971 23.241c.292.318.603.605.924.877 9.064 9.393 21.755 15.262 35.747 15.262h17.219V502a10 10 0 0 0 14.303 9.028l37.665-17.95 37.665 17.95a10 10 0 0 0 14.303-9.027v-33.034h201.105c5.523 0 10-4.477 10-10V10c0-5.523-4.477-10-10-10zM131.962 448.966h-17.219c-12.645 0-23.523-8.004-27.798-19.21h45.017v19.21zm83.934 10.001v27.19l-27.665-13.184a10 10 0 0 0-8.604 0l-27.665 13.184v-56.4h63.934v29.21zm211.105-10.001H235.896v-19.21h114.962c5.523 0 10-4.477 10-10s-4.477-10-10-10H86.813c4.177-11.396 15.149-19.574 27.93-19.574h312.258v58.784zm0-78.784H141.229V87.87c0-5.523-4.477-10-10-10s-10 4.477-10 10v282.313h-6.486c-.783 0-1.56.023-2.334.059-.246.012-.49.031-.735.046-.532.033-1.062.072-1.59.121a46.99 46.99 0 0 0-2.343.28c-.263.038-.526.073-.788.115a49.93 49.93 0 0 0-1.701.304c-.18.035-.362.065-.541.102a48.45 48.45 0 0 0-2.193.506c-.178.045-.353.098-.531.146-.549.147-1.095.3-1.637.465-.251.076-.499.158-.747.238a51.504 51.504 0 0 0-2.166.752c-.478.179-.951.367-1.422.56-.219.09-.44.176-.658.269a49.731 49.731 0 0 0-2.036.919c-.656.316-1.303.649-1.943.992-.208.112-.412.229-.619.344-.44.244-.878.493-1.31.75a46.84 46.84 0 0 0-1.912 1.2c-.217.143-.435.284-.649.43-.453.308-.899.626-1.341.949-.15.109-.303.215-.452.326l-.094.068V49.742c0-16.4 13.342-29.742 29.742-29.742h312.258v350.182z"/><path d="M402.241 417.8c-.13-.64-.32-1.27-.57-1.87-.25-.6-.56-1.18-.92-1.72a9.57 9.57 0 0 0-1.24-1.52 9.87 9.87 0 0 0-3.25-2.17c-.6-.25-1.23-.44-1.87-.57a9.898 9.898 0 0 0-3.91 0c-.63.13-1.26.32-1.87.57-.6.25-1.18.56-1.72.92-.55.37-1.06.78-1.52 1.25-.46.46-.88.97-1.25 1.52-.36.54-.67 1.12-.91 1.72-.25.6-.45 1.23-.58 1.87-.12.65-.19 1.3-.19 1.96 0 .65.07 1.31.19 1.95.13.64.33 1.27.58 1.87.25.6.55 1.18.91 1.73.37.54.79 1.06 1.25 1.52.46.46.97.88 1.52 1.24.54.36 1.12.67 1.72.92.61.25 1.24.44 1.87.57.65.13 1.31.2 1.96.2a10.098 10.098 0 0 0 3.82-.77 9.87 9.87 0 0 0 1.73-.92 9.57 9.57 0 0 0 1.52-1.24c.46-.46.88-.98 1.24-1.52a10.098 10.098 0 0 0 1.69-5.55c0-.66-.07-1.31-.2-1.96zM141.031 44.33c-.13-.63-.32-1.26-.57-1.87-.25-.6-.56-1.18-.92-1.72a9.57 9.57 0 0 0-1.24-1.52 9.87 9.87 0 0 0-3.25-2.17c-.6-.25-1.23-.44-1.87-.57a9.898 9.898 0 0 0-3.91 0c-.63.13-1.26.32-1.87.57-.6.25-1.18.56-1.72.92-.55.37-1.06.79-1.52 1.25-.46.46-.88.97-1.25 1.52-.36.54-.67 1.12-.92 1.72-.25.61-.44 1.24-.57 1.87-.13.65-.19 1.31-.19 1.96a9.84 9.84 0 0 0 .76 3.82 9.87 9.87 0 0 0 2.17 3.25c.46.46.97.88 1.52 1.24.54.36 1.12.67 1.72.92.61.25 1.24.44 1.87.57.65.13 1.31.2 1.96.2a10.098 10.098 0 0 0 3.82-.77 9.87 9.87 0 0 0 1.73-.92 9.57 9.57 0 0 0 1.52-1.24c.46-.46.88-.97 1.24-1.52.36-.54.67-1.12.92-1.73.25-.6.44-1.23.57-1.87s.2-1.3.2-1.95c-.001-.65-.071-1.31-.2-1.96zM335.1 117.923c-20.881 0-37.869 16.988-37.869 37.869 0 5.522 4.477 10 10 10s10-4.477 10-10c0-9.853 8.016-17.869 17.869-17.869 5.523 0 10-4.477 10-10s-4.476-10-10-10zm4.726 78.201c-20.881 0-37.869 16.988-37.869 37.869 0 5.523 4.477 10 10 10s10-4.477 10-10c0-9.853 8.016-17.869 17.869-17.869 5.523 0 10-4.477 10-10s-4.477-10-10-10z"/><path d="M413.798 192.96c0-16.229-8.121-31.049-21.368-40.105 4.448-11.175 4.456-23.839-.315-35.009a9.858 9.858 0 0 0-.142-.316c-8.229-17.556-24.299-27.968-42.993-28.343-8.256-15.057-23.339-24.162-41.611-24.748a8.59 8.59 0 0 0-.321-.005c-7.57 0-14.914 1.731-21.566 5.046-11.24-5.82-23.972-6.625-37.951-2.345-.164.05-.326.104-.486.163-10.085 3.663-18.539 10.564-24.018 19.421l-.277-.001c-16.562 0-32.046 7.929-41.416 21.203-9.632 13.618-11.348 31.158-5.143 46.253-12.147 9.125-19.367 23.215-19.367 38.709-.001 16.227 8.12 31.047 21.368 40.104-4.448 11.175-4.456 23.84.315 35.009.045.106.093.211.142.316 8.229 17.556 24.299 27.969 42.993 28.343 8.255 15.056 23.339 24.161 41.61 24.747.107.004.214.005.321.005 7.566 0 14.906-1.729 21.555-5.041 6.489 3.362 13.475 5.054 20.913 5.054 5.448 0 11.138-.904 17.049-2.713.163-.05.326-.105.487-.163 10.085-3.664 18.539-10.564 24.018-19.421 16.67.05 32.271-7.854 41.693-21.202 9.632-13.619 11.348-31.158 5.144-46.253 12.146-9.125 19.366-23.214 19.366-38.708zM275.311 298.89a28.342 28.342 0 0 1-11.58 2.515c-12.775-.463-22.169-7.046-26.461-18.551a10 10 0 0 0-10.551-6.435c-13.295 1.584-24.177-4.408-29.887-16.439-2.277-5.431-2.531-11.491-.912-17.104a27.67 27.67 0 0 0 8.377 1.309c6.884 0 13.721-2.586 18.908-7.773 3.905-3.905 3.905-10.237 0-14.143-3.905-3.905-10.237-3.905-14.143 0-2.674 2.677-7.378 2.492-10.27-.401-.085-.085-.177-.158-.265-.239-.107-.099-.213-.198-.324-.293a10.678 10.678 0 0 0-.55-.434c-.096-.07-.189-.143-.287-.211a9.921 9.921 0 0 0-.743-.46c-.055-.031-.107-.066-.162-.096a10.041 10.041 0 0 0-1.019-.48c-11.312-4.561-18.621-15.07-18.621-26.778.002-7.454 2.897-14.365 7.912-19.593 4.919 6.743 12.837 11.082 21.779 11.082 5.523 0 10-4.477 10-10s-4.477-10-10-10c-3.783 0-6.867-3.059-7.021-6.964-.002-.047-.01-.092-.013-.139-.008-.153-.026-.305-.041-.457-.02-.203-.041-.405-.073-.605-.022-.135-.05-.269-.078-.403a9.572 9.572 0 0 0-.149-.639c-.033-.12-.07-.238-.107-.357a10.152 10.152 0 0 0-.363-.98 10.108 10.108 0 0 0-.301-.63c-.055-.105-.108-.21-.167-.313a9.978 9.978 0 0 0-.378-.609c-.045-.068-.082-.141-.13-.209-6.866-9.813-6.877-22.911-.023-32.602 5.241-7.426 13.726-12.061 22.996-12.67 3.925 10.19 13.899 17.45 25.56 17.45 5.523 0 10-4.477 10-10s-4.477-10-10-10c-3.439 0-6.326-2.284-7.122-5.354 3.008-5.837 8.088-10.302 14.538-12.706 8.371-2.517 15.382-2.353 21.671.565V298.89zm110.577-86.331c-4.919-6.743-12.837-11.082-21.779-11.082-5.523 0-10 4.477-10 10s4.477 10 10 10c3.783 0 6.867 3.059 7.021 6.964.002.048.01.093.013.141.008.144.024.287.038.43.02.209.042.417.075.623.021.128.047.255.072.382a9.501 9.501 0 0 0 .487 1.666c.039.1.077.199.119.297.1.233.21.459.326.682.044.084.085.17.131.253.143.257.299.505.464.747.026.038.047.08.073.118 6.866 9.812 6.878 22.91.023 32.601-5.241 7.426-13.726 12.061-22.996 12.67-3.925-10.19-13.899-17.45-25.56-17.45-5.523 0-10 4.477-10 10s4.477 10 10 10c3.439 0 6.325 2.284 7.122 5.354-3.007 5.837-8.088 10.302-14.538 12.707-8.373 2.517-15.382 2.353-21.671-.566V86.95a28.33 28.33 0 0 1 11.581-2.515c12.776.463 22.17 7.046 26.462 18.55a9.998 9.998 0 0 0 10.55 6.435c13.301-1.583 24.178 4.409 29.888 16.439 2.275 5.431 2.529 11.49.912 17.102-9.384-2.984-19.972-.848-27.286 6.466-3.905 3.905-3.905 10.237 0 14.143 3.905 3.905 10.237 3.905 14.143 0 1.712-1.712 3.811-1.918 4.909-1.901a7.906 7.906 0 0 1 5.361 2.302c.085.085.177.158.264.239.107.099.213.198.324.293.179.153.363.295.549.433.096.071.19.144.288.212.24.165.487.315.738.456.057.032.111.068.168.1.332.179.671.34 1.016.478 11.313 4.561 18.622 15.071 18.622 26.78 0 7.459-2.895 14.37-7.909 19.597z"/><path d="M263.39 220.051c-5.523 0-10 4.477-10 10 0 9.853-8.016 17.869-17.869 17.869-5.523 0-10 4.477-10 10s4.477 10 10 10c20.881 0 37.869-16.988 37.869-37.869 0-5.523-4.477-10-10-10zm-4.725-78.202c-5.523 0-10 4.477-10 10 0 9.853-8.016 17.869-17.869 17.869-5.523 0-10 4.477-10 10s4.477 10 10 10c20.881 0 37.869-16.988 37.869-37.869 0-5.523-4.477-10-10-10z"/></svg>