<svg xmlns="http://www.w3.org/2000/svg" viewBox="0 0 480 480"><path d="M434.973 252.368a196.295 196.295 0 0 0-2.456-83.816l29.04-13.248-60.992-80.8-10.872 10.872c-3.2-3.688-6.464-7.32-9.92-10.776a198.475 198.475 0 0 0-97.176-53.44L289.253 0H133.029l6.504 42.264A200.052 200.052 0 0 0 40.117 189.6l-38.104 120A8 8 0 0 0 9.638 320h52.72v72a8 8 0 0 0 8 8h64v72a8 8 0 0 0 8.992 7.936l192-24a8 8 0 0 0 7.008-7.936v-61.264a196.487 196.487 0 0 0 37.408-29.312c2.864-2.864 5.72-5.976 8.552-9.192l26.04 8.48V327.2l63.912 19.68.088-99.936-43.385 5.424zM398.869 98.8l37.888 50.216-65.728 30.016 20.256 20.248-36.464 17.52 18.544-18.512-17.6-17.6 24.8-12.408-21.296-29.88 39.6-39.6zM267.461 16l-32.728 104h48.52l-36.896 105.816V152h-44.896l16-48h-52.24l-13.536-88h115.776zm101 330.104a180.744 180.744 0 0 1-38.104 29.096 8 8 0 0 0-4 6.944v58.776l-176 22V392a8 8 0 0 0-8-8h-64v-72a8 8 0 0 0-8-8H20.573l35.008-110.216c.152-.457.257-.929.312-1.408A184.045 184.045 0 0 1 142.133 59.2l9.36 60.8h43.76l-16 48h51.104v150.184L305.461 104h-48.92l21.304-67.648a182.676 182.676 0 0 1 90.616 49.544 182.599 182.599 0 0 1 9.92 10.76l-40 40 18.288 25.744-28 14 22.032 21.952-73.944 73.784 141.792-68.216L398.637 184l19.152-8.736A181.886 181.886 0 0 1 422.357 216a180.064 180.064 0 0 1-4.12 38.44l-19.88 2.504v20.152l-24-9.36V304H260.701l111.008 38.76a185.66 185.66 0 0 1-3.248 3.344zm93.792-20.872L398.357 305.6v29.08L355.061 320h35.296v-28.848l24 9.352v-29.448l48-6-.104 60.176z"/></svg>