<svg xmlns="http://www.w3.org/2000/svg" viewBox="0 0 508.52 508.52" width="512" height="512"><g fill="#D80027"><path d="M254.26 0C113.845 0 0 113.845 0 254.26s113.845 254.26 254.26 254.26 254.26-113.845 254.26-254.26S394.675 0 254.26 0zm0 476.737c-122.68 0-222.477-99.829-222.477-222.477 0-122.68 99.797-222.477 222.477-222.477 122.649 0 222.477 99.797 222.477 222.477 0 122.648-99.829 222.477-222.477 222.477z"/><path d="M254.26 95.347c-17.544 0-31.782 14.239-31.782 31.782v158.912c0 17.544 14.239 31.782 31.782 31.782s31.782-14.239 31.782-31.782V127.13c0-17.544-14.238-31.783-31.782-31.783z"/><circle cx="254.26" cy="380.881" r="31.782"/></g></svg>