<svg xmlns="http://www.w3.org/2000/svg" viewBox="0 0 511.999 511.999"><path d="M240.77 136.726a10.006 10.006 0 0 0-7.45-9.448l-95.351-25.146c-.007-.003-.015-.004-.022-.006l-35.911-9.471a10.003 10.003 0 0 0-11.063 4.421c-14.383 23.33-25.694 49.285-32.71 75.061-11.712 43.018-9.724 79.923 5.749 106.725 8.952 15.507 22.089 26.887 38.321 33.37L65.568 447.283l-53.016-13.982c-5.336-1.408-10.811 1.778-12.219 7.119-1.409 5.34 1.778 10.811 7.119 12.22l62.531 16.493 62.687 16.532c.854.225 1.712.333 2.557.333 4.431 0 8.48-2.967 9.662-7.452 1.409-5.34-1.778-10.811-7.119-12.22l-52.862-13.942 36.758-135.023a78.68 78.68 0 0 0 10.79.756c44.591 0 81.418-37.484 98.511-100.27 7.018-25.781 10.407-53.833 9.803-81.121zm-29.103 75.868c-14.579 53.551-44.19 85.523-79.213 85.523-5.101 0-10.295-.688-15.44-2.045-15.412-4.065-27.751-13.474-35.68-27.21-9.407-16.295-12.574-37.792-9.463-63.112 13.352 2.172 25.96 3.014 37.909 3.014 19.664 0 37.58-2.218 54.236-4.28 18.789-2.326 35.464-4.381 50.284-2.527a247.982 247.982 0 0 1-2.633 10.637zm6.285-30.316c-17.727-2.413-36.602-.092-56.391 2.358-25.31 3.133-53.69 6.644-86.177 1.437a227.214 227.214 0 0 1 2.178-8.682c5.892-21.646 15.056-43.448 26.649-63.478l15.889 4.191c-2.88 5.55-5.536 11.252-7.605 15.895-2.248 5.044.019 10.956 5.063 13.205a9.958 9.958 0 0 0 4.065.869c3.827 0 7.481-2.21 9.14-5.931 3.235-7.258 6.396-13.697 9.215-18.796l80.856 21.324a272.231 272.231 0 0 1-2.882 37.608zm224.064 286.855c-.004.002-.009.002-.013.003l-62.175 16.398c5.853-1.545 62.193-16.402 62.188-16.401zm-62.188 16.4l-.499.132.499-.132z"/><path d="M511.665 440.42c-1.407-5.34-6.883-8.524-12.219-7.119l-53.017 13.982-36.765-135.053c16.232-6.483 29.369-17.863 38.32-33.37 15.473-26.802 17.461-63.707 5.75-106.724-7.017-25.776-18.328-51.731-32.711-75.061a10 10 0 0 0-11.063-4.421l-131.282 34.624a10 10 0 0 0-7.448 9.448c-.544 24.555 2.156 49.72 7.814 73.299.063.331.141.659.236.98a270.614 270.614 0 0 0 1.754 6.843c17.09 62.781 53.915 100.266 98.508 100.27h.007c3.579 0 7.184-.257 10.785-.756l36.758 135.023-52.862 13.942c-5.341 1.408-8.528 6.879-7.119 12.22 1.183 4.486 5.232 7.452 9.662 7.452.844 0 1.703-.108 2.557-.333l62.67-16.53h.003l62.545-16.495c5.339-1.409 8.526-6.881 7.117-12.221zM291.166 144.667l116.62-30.756c11.594 20.03 20.758 41.832 26.65 63.479a215.332 215.332 0 0 1 4.16 18.307c-6.083-.603-12.282-.696-18.597-.444-1.073-7.321-2.654-14.952-4-20.871-1.223-5.385-6.584-8.76-11.967-7.535-5.386 1.224-8.76 6.582-7.535 11.968 1.517 6.673 2.71 12.822 3.523 18.09-4.528.516-9.105 1.098-13.735 1.688-25.961 3.313-55.188 7.038-89.119.986-3.835-17.808-5.882-36.466-6-54.912zm88.383 153.449h-.005c-33.219-.003-61.56-28.779-76.831-77.433a233.706 233.706 0 0 0 31.866 2.152c19.724 0 37.614-2.283 54.239-4.404 19.607-2.501 36.884-4.702 52.245-2.287 1.165 20.835-2.309 38.701-10.4 52.716-7.93 13.736-20.268 23.146-35.68 27.21-5.145 1.359-10.337 2.046-15.434 2.046zM255.999 26.001c-5.522 0-10 4.477-10 10v26.083c0 5.523 4.478 10 10 10s10-4.477 10-10V36.001c0-5.523-4.477-10-10-10zm-32.374 49.042l-13.25-22.589c-2.795-4.764-8.921-6.362-13.686-3.566-4.764 2.794-6.36 8.921-3.566 13.685l13.25 22.589a9.996 9.996 0 0 0 13.686 3.566c4.764-2.794 6.36-8.921 3.566-13.685zm91.685-26.154c-4.765-2.795-10.891-1.198-13.686 3.566l-13.25 22.589c-2.795 4.763-1.198 10.891 3.566 13.685a9.998 9.998 0 0 0 13.686-3.566l13.25-22.589c2.794-4.764 1.197-10.891-3.566-13.685z"/><path d="M408.565 146.737a1.115 1.115 0 0 1-.02-.061c-1.633-5.233-7.183-8.183-12.437-6.596-5.288 1.596-8.28 7.176-6.684 12.463.018.053.048.151.066.209a10.005 10.005 0 0 0 9.53 6.982c.991 0 2-.149 2.996-.462 5.27-1.653 8.201-7.265 6.549-12.535z"/><circle cx="109.998" cy="163.997" r="10"/></svg>