<svg xmlns="http://www.w3.org/2000/svg" viewBox="0 0 512 512"><path d="M454.509 60.965a21.463 21.463 0 0 0-12.125-3.74 21.556 21.556 0 0 0-17.834 9.429l-3.574 5.249-6.543-4.226a24.907 24.907 0 0 0 .684-11.806c-1.197-6.574-4.885-12.288-10.379-16.089a24.885 24.885 0 0 0-14.216-4.444 25.038 25.038 0 0 0-16.521 6.223l-6.27-4.049 2.595-3.809c6.691-9.825 4.143-23.263-5.685-29.961A21.466 21.466 0 0 0 352.517 0a21.556 21.556 0 0 0-17.835 9.429l-15.291 22.458c-6.694 9.825-4.145 23.264 5.684 29.962a21.463 21.463 0 0 0 12.125 3.74 21.555 21.555 0 0 0 17.835-9.43l3.572-5.245 5.54 3.578-70.888 102.469h-74.581L147.81 54.521l5.586-3.607 3.572 5.245a21.563 21.563 0 0 0 17.836 9.43h.001c4.337 0 8.53-1.294 12.126-3.742 9.827-6.695 12.376-20.135 5.683-29.958L177.32 9.429A21.557 21.557 0 0 0 159.485 0a21.474 21.474 0 0 0-12.128 3.742c-9.825 6.694-12.375 20.134-5.683 29.958l2.595 3.81-6.307 4.073a25.04 25.04 0 0 0-16.55-6.248 24.879 24.879 0 0 0-14.216 4.445c-9.178 6.349-12.788 17.782-9.677 27.926l-6.495 4.195-3.574-5.249a21.556 21.556 0 0 0-17.834-9.429 21.469 21.469 0 0 0-12.127 3.742c-9.826 6.694-12.376 20.134-5.684 29.959l15.293 22.459a21.56 21.56 0 0 0 17.836 9.429c4.337 0 8.528-1.292 12.126-3.741 9.827-6.695 12.376-20.135 5.683-29.958l-2.595-3.81 5.614-3.626 90.04 130.154a25.025 25.025 0 0 0 3.044 3.619v288.444a8.104 8.104 0 0 0 8.105 8.105h98.032a8.104 8.104 0 0 0 8.105-8.105V215.451a24.984 24.984 0 0 0 3.045-3.621l90.06-130.181 5.658 3.655-2.594 3.809c-6.694 9.825-4.145 23.264 5.684 29.962a21.462 21.462 0 0 0 12.124 3.739 21.558 21.558 0 0 0 17.836-9.428l15.293-22.46c6.692-9.825 4.143-23.265-5.685-29.961zm-97.582-36.388l-15.293 22.459a5.357 5.357 0 0 1-4.435 2.342 5.323 5.323 0 0 1-3-.928 5.36 5.36 0 0 1-1.411-7.439l15.292-22.46a5.363 5.363 0 0 1 4.436-2.341c1.071 0 2.109.322 3 .928a5.36 5.36 0 0 1 1.411 7.439zM156.48 17.14a5.327 5.327 0 0 1 3.004-.93c1.779 0 3.438.875 4.435 2.341l15.293 22.462a5.357 5.357 0 0 1-1.41 7.435 5.318 5.318 0 0 1-3.001.93 5.359 5.359 0 0 1-4.437-2.342l-15.291-22.46a5.359 5.359 0 0 1 1.407-7.436zm-68.543 88.533a5.314 5.314 0 0 1-3.001.929 5.36 5.36 0 0 1-4.438-2.342L65.205 81.8a5.359 5.359 0 0 1 1.41-7.436 5.321 5.321 0 0 1 3.002-.93c1.779 0 3.438.875 4.435 2.341l15.294 22.463a5.357 5.357 0 0 1-1.409 7.435zm309.814-40.31l-94.947 137.243a8.728 8.728 0 0 1-2.33 2.3 8.106 8.106 0 0 0-3.595 6.735v284.15h-34.555V347.81a8.104 8.104 0 0 0-8.105-8.105 8.104 8.104 0 0 0-8.105 8.105v147.98h-31.057V211.642a8.1 8.1 0 0 0-3.593-6.732 8.747 8.747 0 0 1-2.331-2.3L114.188 65.363c-2.762-3.993-1.761-9.489 2.232-12.252a8.749 8.749 0 0 1 4.994-1.565 8.82 8.82 0 0 1 7.255 3.797l79.096 114.335a8.104 8.104 0 0 0 6.665 3.494h83.078a8.1 8.1 0 0 0 6.665-3.494l79.096-114.334a8.822 8.822 0 0 1 7.255-3.797c1.787 0 3.514.541 4.995 1.565 3.993 2.762 4.994 8.258 2.232 12.251zm49.046 16.438l-15.293 22.461a5.365 5.365 0 0 1-4.438 2.341 5.317 5.317 0 0 1-2.999-.927 5.36 5.36 0 0 1-1.411-7.439l15.293-22.461a5.363 5.363 0 0 1 4.436-2.341c1.071 0 2.109.322 3 .928a5.36 5.36 0 0 1 1.412 7.438z"/><path d="M254.219 142.381c28.604 0 51.873-23.271 51.873-51.875s-23.27-51.873-51.873-51.873c-28.605 0-51.875 23.27-51.875 51.873 0 28.604 23.27 51.875 51.875 51.875zm0-87.539c19.665 0 35.664 15.999 35.664 35.664 0 19.666-15.999 35.666-35.664 35.666-19.666 0-35.666-16-35.666-35.666 0-19.665 16-35.664 35.666-35.664z"/></svg>