<svg xmlns="http://www.w3.org/2000/svg" viewBox="0 0 511.007 511.007" width="512" height="512"><g fill="#D80027"><path d="M470.844 477.957c-2.218-38.562-27.424-71.061-62.086-83.979 15.754-55.959 18.449-116.582 7.763-175.732-8.591-47.559-23.206-79.875-26.842-86.314l35.977-35.977a23.663 23.663 0 0 0 6.887-17.746c-.291-6.545-3.327-12.698-8.328-16.88C376.919 21.78 317.003 0 255.503 0S134.087 21.78 86.792 61.328c-5.001 4.182-8.037 10.334-8.328 16.88a23.664 23.664 0 0 0 6.887 17.746l36.758 36.758c-4.235 7.962-18.128 39.652-26.416 85.534-10.66 59.01-8.001 119.483 7.653 175.331-35.226 12.636-60.941 45.413-63.183 84.381a7.541 7.541 0 0 0-.159 1.543v4c0 1.315.338 2.552.933 3.626C44.355 500.822 56.763 511 71.503 511h115.861c.034 0 .067.007.101.007.039 0 .078-.006.116-.007h135.384c.041 0 .082.007.123.007.035 0 .069-.006.103-.007h116.311c14.74 0 27.148-10.178 30.567-23.874a7.461 7.461 0 0 0 .933-3.626v-4a7.404 7.404 0 0 0-.158-1.543zm-69.083-257.046c7.219 39.958 11.621 101.289-7.434 168.955a95.48 95.48 0 0 0-18.064-1.856 15.683 15.683 0 0 0-8.444-7.403L328.6 366.344a15.492 15.492 0 0 0-4.518-.912c-4.63-9.254-4.644-21.293-4.644-32.058a7.52 7.52 0 0 0-.182-1.628c5.552-5.257 10.973-11.098 16.172-17.487 24.781-30.453 39.576-67.372 39.576-98.758 0-24.064-10.348-37.253-36.907-47.038-15.059-5.548-32.391-6.487-50.741-7.481-34.341-1.86-69.819-3.799-96.011-35.694A151.03 151.03 0 0 1 255.503 111c38.496 0 75.352 14.594 103.779 41.093a7.475 7.475 0 0 0 5.113 2.014 7.48 7.48 0 0 0 5.304-2.197l8.82-8.82c4.986 10.653 16.226 38.984 23.242 77.821zM294.462 496c11.375-43.227 23.221-91.358 28.318-115.204.014-.064.05-.234.246-.342a.48.48 0 0 1 .43-.02l39.219 14.263c.2.073.297.213.343.318.07.158.033.249.015.292-12.248 29.845-28.246 67.889-44.573 100.693h-23.998zm-63.887 0c-8.159-30.867-16.665-64.695-22.813-90.55 12.667 10.031 29.61 16.05 47.741 16.05 17.277 0 33.478-5.464 45.926-14.658-6.12 25.67-14.467 58.839-22.481 89.158h-48.373zm-38.543 0c-14.108-27.559-29.415-61.396-45.542-100.693-.018-.043-.055-.134.015-.292a.571.571 0 0 1 .326-.312l39.252-14.275a.469.469 0 0 1 .414.026c.196.108.232.278.246.341 5.097 23.846 16.943 71.978 28.318 115.205h-23.029zm-41.029-343.322a7.62 7.62 0 0 0 .721-.585 154.5 154.5 0 0 1 26.133-19.648c30.533 39.271 72.045 41.53 108.687 43.515 17.19.931 33.427 1.811 46.366 6.578 23.039 8.488 27.093 17.392 27.093 32.962 0 28.047-13.537 61.427-36.21 89.291C302.105 331.443 275.938 348 255.503 348s-46.602-16.557-68.29-43.209c-22.673-27.864-36.21-61.243-36.21-89.291v-62.822zM255.503 363c15.36 0 32.452-6.775 49.082-18.963.344 8.892 1.531 18.361 5.526 26.945a7.469 7.469 0 0 0-1.601 2.703c-6.45 19.321-28.247 32.815-53.006 32.815s-46.557-13.494-53.006-32.815c-.301-.9-.761-1.7-1.331-2.391 4.078-8.568 5.313-18.038 5.678-26.947C223.341 356.341 240.273 363 255.503 363zM93.449 78.875c.106-2.385 1.159-4.53 2.965-6.04C141.016 35.54 197.515 15 255.503 15s114.488 20.54 159.09 57.835c1.806 1.51 2.858 3.655 2.965 6.04a8.515 8.515 0 0 1-2.508 6.472l-50.944 50.944C333.693 110.255 295.407 96 255.503 96s-78.19 14.255-108.602 40.292L95.957 85.347a8.511 8.511 0 0 1-2.508-6.472zm17.004 142.036c6.842-37.872 17.7-65.754 22.859-76.996l2.691 2.691V215.5c0 31.386 14.794 68.305 39.576 98.758 5.313 6.53 10.858 12.491 16.538 17.837-.07.411-.114.83-.114 1.26 0 10.773-.014 22.82-4.671 32.082a15.479 15.479 0 0 0-6.393.901l-39.252 14.275c-3.632 1.331-6.647 4.009-8.436 7.415a95.557 95.557 0 0 0-15.427 1.62c-18.984-67.581-14.582-128.822-7.371-168.737zM55.05 480.745c1.433-42.439 35.881-76.626 78.41-77.694 14.669 35.635 28.684 66.836 41.757 92.949H71.503c-8.679 0-15.815-6.736-16.453-15.255zM439.503 496H335.178c15.018-30.869 29.501-65.236 40.904-92.986 43.202.307 78.426 34.805 79.875 77.731-.639 8.519-7.774 15.255-16.454 15.255z"/><path d="M231.503 63h16.5v16.5a7.5 7.5 0 0 0 15 0V63h16.5a7.5 7.5 0 0 0 0-15h-16.5V31.5a7.5 7.5 0 0 0-15 0V48h-16.5a7.5 7.5 0 0 0 0 15z"/></g></svg>