<svg xmlns="http://www.w3.org/2000/svg" viewBox="0 0 512 512"><path d="M306.961 267.498c-.903-7.883-4.494-15.124-10.126-20.713-6.619-6.569-15.056-10.022-23.77-9.73-6.194.208-12.303 2.305-17.725 6.016-5.757-3.678-12.7-5.813-19.888-6.017-10.097-.29-19.637 3.299-26.172 9.835-6.617 6.617-10.262 15.415-10.262 24.773s3.644 18.156 10.2 24.711l40.438 41.314a8.12 8.12 0 0 0 6.041 2.443 8.083 8.083 0 0 0 5.865-2.79l9.489-10.963a8.083 8.083 0 0 0-.397-11.007c-3.317-3.318-8.756-3.123-11.828.427l-3.741 4.322-34.373-35.116c-7.356-7.356-7.356-19.324 0-26.68 3.269-3.269 8.197-5.115 13.606-5.115.224 0 .451.003.677.01 5.73.162 11.088 2.32 14.708 5.921.52.516 1.081.997 1.724 1.35 3.378 1.856 7.275 1.149 9.741-1.318 3.694-3.694 8.112-5.809 12.441-5.953 4.29-.161 8.413 1.621 11.898 5.106 7.344 7.344 7.356 19.285.037 26.643l-.433.462-.495.571a8.002 8.002 0 0 0 .392 10.896l.114.114c3.285 3.285 8.669 3.091 11.711-.421l.323-.374c7.443-7.573 11.04-17.939 9.805-28.717zM256 0c-40.119 0-72.758 32.639-72.758 72.758 0 40.119 32.639 72.758 72.758 72.758s72.758-32.639 72.758-72.758C328.758 32.639 296.119 0 256 0zm0 16.168c24.591 0 45.558 15.771 53.345 37.726h-26.79l-5.557-11.113c-1.949-3.896-5.864-6.315-10.218-6.315s-8.271 2.42-10.218 6.315l-5.558 11.113h-48.349c7.787-21.955 28.754-37.726 53.345-37.726zm0 113.179c-31.204 0-56.59-25.385-56.59-56.589 0-.903.026-1.801.068-2.695H256a8.084 8.084 0 0 0 7.231-4.469l3.548-7.096 3.548 7.096a8.083 8.083 0 0 0 7.231 4.469h34.964c.042.894.068 1.791.068 2.695 0 31.204-25.386 56.589-56.59 56.589z"/><path d="M323.069 150.905H188.931c-27.824 0-48.805 22.011-48.805 51.2v118.568c0 16.345 13.297 29.642 29.642 29.642 3.846 0 7.596-.738 11.079-2.142v29.567c0 7.793 5.717 14.259 13.174 15.469v89.148c0 16.345 13.297 29.642 29.642 29.642s29.642-13.297 29.642-29.642v-88.926h5.39v88.926c0 16.345 13.297 29.642 29.642 29.642s29.642-13.297 29.642-29.642V393.21c7.457-1.209 13.174-7.676 13.174-15.469v-29.565a29.62 29.62 0 0 0 11.079 2.139c16.345 0 29.642-13.297 29.642-29.642V202.105c0-29.189-20.982-51.2-48.805-51.2zM169.768 334.147c-7.43 0-13.474-6.044-13.474-13.474V202.105c0-16.954 10.114-30.363 24.552-34.03v43.978c0 1.263-.362 2.509-1.02 3.512-11.87 18.085-18.143 39.522-18.143 61.993 0 19.718 4.833 38.639 14.037 55.199a13.428 13.428 0 0 1-5.952 1.39zm67.369 148.211c0 7.43-6.044 13.474-13.474 13.474s-13.474-6.044-13.474-13.474v-88.926h26.947v88.926zm64.674 0c0 7.43-6.044 13.474-13.474 13.474s-13.474-6.044-13.474-13.474v-88.926h26.947v88.926zm16.845-151.679c-2.403 3.658-3.671 7.941-3.671 12.384v34.201h-117.97v-34.201c0-4.443-1.27-8.726-3.671-12.383-10.134-15.443-15.491-33.811-15.491-53.122s5.357-37.679 15.491-53.121c2.403-3.658 3.671-7.941 3.671-12.384v-44.979h117.969v44.979c0 4.443 1.27 8.726 3.671 12.383 10.134 15.443 15.491 33.811 15.491 53.122.001 19.31-5.356 37.679-15.49 53.121zm37.049-10.005c0 7.43-6.044 13.474-13.474 13.474-2.093 0-4.12-.487-5.952-1.392 9.203-16.56 14.036-35.48 14.036-55.198 0-22.471-6.273-43.908-18.144-61.994-.656-1.001-1.019-2.247-1.019-3.511v-43.978c14.438 3.667 24.552 17.076 24.552 34.03v118.569z"/></svg>