<svg xmlns="http://www.w3.org/2000/svg" viewBox="0 0 512 512"><path d="M159.728 267.964c-36.13 0-65.536 33.28-65.536 74.206s29.406 74.223 65.536 74.223c36.147 0 65.536-33.297 65.536-74.223s-29.389-74.206-65.536-74.206zm0 114.312c-17.323 0-31.403-17.988-31.403-40.09 0-22.101 14.08-40.073 31.403-40.073s31.403 17.971 31.403 40.073c-.001 22.102-14.081 40.09-31.403 40.09zm192.529-114.312c-36.13 0-65.536 33.28-65.536 74.206s29.406 74.223 65.536 74.223 65.536-33.297 65.536-74.223-29.406-74.206-65.536-74.206zm0 114.312c-17.323 0-31.403-17.988-31.403-40.09 0-22.101 14.08-40.073 31.403-40.073s31.403 17.971 31.403 40.073c-.001 22.102-14.081 40.09-31.403 40.09zM255.796 76.459c-9.421 0-17.067 7.646-17.067 17.067v401.408c0 9.438 7.646 17.067 17.067 17.067 9.438 0 17.067-7.629 17.067-17.067V93.525c-.001-9.42-7.646-17.066-17.067-17.066z"/><path d="M239.241 90.863c-2.731-9.199-8.636-18.654-16.589-26.624-18.927-18.961-45.449-23.586-58.709-10.308-13.79 13.79-9.37 39.031 10.291 58.709 11.503 11.503 25.771 18.381 38.178 18.381 8.038 0 15.326-2.884 20.514-8.055 7.766-7.766 10.07-19.457 6.315-32.103zm106.462-36.932c-13.261-13.261-39.765-8.704-58.607 10.155-19.593 19.593-23.962 44.783-10.155 58.607 5.239 5.222 12.527 8.09 20.582 8.09 12.373 0 26.59-6.827 38.007-18.244 7.953-7.953 13.824-17.391 16.538-26.59 3.721-12.596 1.383-24.27-6.365-32.018z"/><path d="M183.211 0c-47.224 0-81.596 31.266-87.91 77.773a16.965 16.965 0 0 0-1.109 6.059V334.37c0 9.438 7.646 17.067 17.067 17.067s17.067-7.629 17.067-17.067V95.027c.051-.495.068-1.007.068-1.519 0-36.062 21.521-59.375 54.818-59.375 31.761 0 54.818 21.146 54.818 50.278 0 9.421 7.646 17.067 17.067 17.067s17.067-7.646 17.067-17.067C272.163 36.284 233.933 0 183.211 0z"/><path d="M417.793 92.774c-.017-.546-.051-1.075-.068-1.621a119.83 119.83 0 0 0-.358-7.066l-.017-.256C413.304 33.997 377.993 0 328.67 0c-50.756 0-89.037 36.284-89.037 84.412 0 9.421 7.646 17.067 17.067 17.067s17.067-7.646 17.067-17.067c0-29.133 23.091-50.278 54.903-50.278 30.413 0 51.576 20.429 54.579 51.593V334.37c0 9.438 7.629 17.067 17.067 17.067 9.421 0 17.067-7.629 17.067-17.05V97.348c.324-1.485.478-3.021.41-4.574z"/></svg>